<?xml version="1.0" encoding="utf-8"?>
<!-- Generator: Adobe Illustrator 22.0.1, SVG Export Plug-In . SVG Version: 6.00 Build 0)  -->
<svg version="1.1" id="Capa_1" xmlns="http://www.w3.org/2000/svg" xmlns:xlink="http://www.w3.org/1999/xlink" x="0px" y="0px"
	 viewBox="0 0 738.1 512" style="enable-background:new 0 0 738.1 512;" xml:space="preserve">
<style type="text/css">
	.st0{fill:url(#SVGID_1_);}
</style>
<linearGradient id="SVGID_1_" gradientUnits="userSpaceOnUse" x1="6.593407e-05" y1="256" x2="738.132" y2="256">
	<stop  offset="0" style="stop-color:#7E5936"/>
	<stop  offset="1" style="stop-color:#F5CB86"/>
</linearGradient>
<path class="st0" d="M725.8,287.7c-0.2-0.1-0.3-0.2-0.5-0.2L436.7,163.4c-0.2-0.1-0.4-0.1-0.7-0.2l-58.4-50V56.7h31.9
	c5.2,0,9.4-4.2,9.4-9.4s-4.2-9.4-9.4-9.4h-31.9V9.4c0-5.2-4.2-9.4-9.4-9.4s-9.4,4.2-9.4,9.4v28.5H327c-5.2,0-9.4,4.2-9.4,9.4
	s4.2,9.4,9.4,9.4h31.9v56.5l-58.4,50c-0.2,0.1-0.4,0.1-0.7,0.2L12.9,287.5c-0.2,0.1-0.3,0.1-0.5,0.2c-7.4,3.5-12.3,11-12.3,19.2
	l20.8,197.5c0,2,0.8,3.9,2.2,5.3c1.4,1.4,3.3,2.2,5.3,2.2h206.6h264.9h212.1c4.1,0,7.5-3.4,7.5-7.5L738.1,307
	C738.1,298.8,733.3,291.2,725.8,287.7z M15,307c0-2.4,1.4-4.5,3.5-5.6l248.8-109.7l-32.3,27.7c-4.7,4.1-7.5,10-7.5,16.2l7.5,261.4
	h-79.5c0-11.1,0-77.3,0-94.5c0-12.2-8.7-18.7-17.4-22.2c-11.1-4.5-23.7-4.5-34.8,0c-8.7,3.5-17.4,10-17.4,22.2c0,17.2,0,83.4,0,94.5
	h-50L15,307z M413.8,496.8c0-17.6,0-107,0-144.8c0-17.7-6.8-29.8-15.3-38.1c-19-18.5-47.2-18.5-66.2,0c-8.5,8.3-15.3,20.4-15.3,38.1
	c0,37.8,0,127.2,0,144.8l-67.1,0.2l-7.5-261.4c0-1.9,0.8-3.6,2.2-4.8l123.6-105.9l123.5,105.9c1.4,1.2,2.2,3,2.2,4.9L484.8,497
	L413.8,496.8z M704.4,497h-57.3c0-11.1,0-77.3,0-94.5c0-12.2-8.7-18.7-17.4-22.2c-11.1-4.5-23.7-4.5-34.8,0
	c-8.7,3.5-17.4,10-17.4,22.2c0,17.2,0,83.4,0,94.5h-77.7l9.1-261.3c0-6.3-2.7-12.2-7.5-16.3v0l-32.5-27.8l250.6,109.9
	c2.1,1.1,3.5,3.3,3.5,5.7L704.4,497z"/>
</svg>
