<?xml version="1.0" standalone="no"?>
<!DOCTYPE svg PUBLIC "-//W3C//DTD SVG 1.1//EN" "http://www.w3.org/Graphics/SVG/1.1/DTD/svg11.dtd" >
<svg xmlns="http://www.w3.org/2000/svg" xmlns:xlink="http://www.w3.org/1999/xlink" version="1.1">
<metadata></metadata>
<defs>
<font id="rasbernitalic" horiz-adv-x="1417" >
<font-face units-per-em="2048" ascent="1536" descent="-512" />
<missing-glyph horiz-adv-x="479" />
<glyph unicode="&#xfb01;" horiz-adv-x="1083" d="M74 -401q30 31 47 93t37 176l6 36l201 1130h-140l6 31h138l12 59q72 430 426 430q122 0 182.5 -59.5t46.5 -140.5q-6 -38 -33.5 -59t-60.5 -21q-50 0 -63 24q14 99 -19 162.5t-112 63.5q-69 0 -129.5 -73.5t-81.5 -193.5q-22 -125 -13 -192h398q112 0 157 20h4l-149 -852 q-13 -71 -4 -117t43 -46q41 0 90 67l4 -4q-71 -143 -176 -143q-58 0 -87.5 34.5t-30.5 94t11 137.5l107 608q17 100 7 135t-54 35h-326l-199 -1130q-57 -316 -192 -316q-26 0 -53 6v5z" />
<glyph unicode="&#xfb02;" horiz-adv-x="1083" d="M74 -401q30 31 47 93t37 176l6 36l201 1130h-140l6 31h138l10 51q38 215 143.5 333t278.5 118q130 0 225 -45q53 7 135 28h4l-231 -1317q-13 -71 -4 -117t43 -46q41 0 90 67l4 -4q-71 -143 -176 -143q-58 0 -87.5 34.5t-30.5 94t11 137.5l203 1153q-18 0 -45 20 t-53.5 44.5t-68 44.5t-83.5 20q-78 0 -139.5 -68t-81.5 -186q-14 -76 8 -219h285l-6 -31h-285l-199 -1130q-57 -316 -192 -316q-26 0 -53 6v5z" />
<glyph unicode="&#xfb03;" horiz-adv-x="1642" d="M74 -401q30 31 47 93t37 176l6 36l201 1130h-140l6 31h138l10 53q34 197 125.5 306.5t226.5 109.5q99 0 143 -50t31 -124q-6 -35 -30 -52.5t-54 -17.5q-18 0 -33 6q12 98 -14 152.5t-92 54.5q-62 0 -116 -61.5t-72 -161.5q-12 -83 30 -215h404l12 59q72 430 426 430 q117 0 175.5 -56t45.5 -132q-6 -40 -36 -62t-66 -22q-27 0 -45 14q12 96 -25.5 162t-107.5 66q-69 0 -129.5 -73.5t-81.5 -193.5q-22 -125 -13 -192h398q112 0 157 20h4l-149 -852q-13 -71 -4 -117t43 -46q41 0 90 67l4 -4q-72 -143 -176 -143q-58 0 -87.5 34.5t-30.5 94 t11 137.5l107 608q17 100 7 135t-54 35h-326l-198 -1130q-57 -316 -193 -316q-26 0 -53 6v5q30 31 47 93t37 176q1 8 2 12.5t2 11t2 12.5l201 1130h-406l-199 -1130q-57 -316 -192 -316q-26 0 -53 6v5z" />
<glyph unicode="&#xfb04;" horiz-adv-x="1642" d="M74 -401q30 31 47 93t37 176l6 36l201 1130h-140l6 31h138l10 53q34 197 125.5 306.5t226.5 109.5q99 0 143 -50t31 -124q-6 -35 -30 -52.5t-54 -17.5q-18 0 -33 6q12 98 -14 152.5t-92 54.5q-62 0 -116 -61.5t-72 -161.5q-12 -83 30 -215h404l10 51q38 215 143.5 333 t278.5 118q130 0 225 -45q9 1 135 28h4l-231 -1317q-13 -71 -4 -117t43 -46q41 0 90 67l4 -4q-72 -143 -176 -143q-58 0 -87.5 34.5t-30.5 94t11 137.5l203 1153q-18 0 -45 20.5t-53.5 45t-68 45t-83.5 20.5q-77 0 -139 -69t-82 -187q-14 -76 8 -219h285l-6 -31h-285 l-198 -1130q-57 -316 -193 -316q-26 0 -53 6v5q30 31 47 93t37 176q1 8 2 12.5t2 11t2 12.5l201 1130h-406l-199 -1130q-57 -316 -192 -316q-26 0 -53 6v5z" />
<glyph horiz-adv-x="0" />
<glyph horiz-adv-x="0" />
<glyph unicode="&#xd;" horiz-adv-x="512" />
<glyph unicode=" "  horiz-adv-x="479" />
<glyph unicode="&#x09;" horiz-adv-x="479" />
<glyph unicode="&#xa0;" horiz-adv-x="479" />
<glyph unicode="!" horiz-adv-x="471" d="M162 55q0 54 26.5 93.5t77.5 39.5q72 0 72 -71q0 -52 -28 -91.5t-79 -39.5q-69 0 -69 69zM283 469l43 236q7 40 12.5 80t10 72.5t7.5 71.5t5.5 64.5t4 63t2 55.5t1 54t0.5 46.5v45.5v38q0 65 30 108.5t93 43.5q37 0 60 -20.5t23 -57.5q0 -46 -33.5 -147t-79.5 -247 t-67 -271l-45 -236h-67z" />
<glyph unicode="&#x22;" horiz-adv-x="704" d="M334 1071q36 51 80 138t53 143q-50 0 -75 22.5t-25 61.5q0 44 29 77t75 33q78 0 78 -96q0 -76 -65 -189.5t-134 -189.5h-16zM604 1071q36 51 80 138t53 143q-50 0 -75 22.5t-25 61.5q0 44 29 77t75 33q78 0 78 -96q0 -77 -65 -190t-133 -189h-17z" />
<glyph unicode="#" horiz-adv-x="1175" d="M164 -20l221 436h-219l6 35h229l164 321h-233l6 33h244l247 485h39l-245 -485h311l248 485h39l-248 -485h252l-4 -33h-265l-165 -321h274l-4 -35h-287l-221 -436h-39l221 436h-311l-223 -436h-37zM440 451h314l164 321h-314z" />
<glyph unicode="$" horiz-adv-x="1103" d="M180 90l31 352h4q24 -185 87 -279t192 -108l145 600q-35 20 -54 31t-51 31t-50.5 35t-43 37t-38.5 43.5t-28 47.5t-20 56t-6 63q0 194 124.5 307t322.5 113h26l37 148h27l-35 -150q32 -2 60 -6t63 -13.5t48 -13t59.5 -19l52.5 -17.5l-23 -342h-4q-43 191 -98 279 t-166 104l-129 -541q13 -7 38 -21q37 -20 56.5 -31t53.5 -32t52.5 -36t45 -38t41.5 -45.5t29.5 -50t21 -59t6.5 -66.5q0 -87 -29.5 -161t-80 -126.5t-118.5 -89.5t-145 -54.5t-160 -17.5h-10l-37 -151h-28l36 151q-44 2 -90 10.5t-66.5 13.5t-79.5 24t-69 22zM496 1100 q0 -78 49.5 -132t142.5 -106l127 531h-33q-122 0 -204 -84.5t-82 -208.5zM522 53h21q140 0 247 91t107 229q0 47 -17.5 86.5t-54.5 73t-70.5 56t-90.5 54.5z" />
<glyph unicode="%" horiz-adv-x="1193" d="M242 0l872 1374l-2 2q-77 -49 -192 -49q-98 0 -164 35l-4 -4q28 -45 28 -107q0 -132 -78 -230.5t-208 -98.5q-90 0 -142.5 52t-52.5 144q0 132 79 231t208 99q74 0 121 -33q94 -65 217 -65q57 0 114.5 17.5t96.5 47.5l20 31l31 -19l-58 -77l-837 -1381zM385 1069 q0 -62 30 -95.5t83 -33.5q59 0 106.5 66t69.5 147t22 147q0 63 -30 96.5t-82 33.5q-59 0 -107 -66.5t-70 -147.5t-22 -147zM670 188q0 132 78.5 230t207.5 98q91 0 143 -52t52 -145q0 -132 -79 -230.5t-208 -98.5q-91 0 -142.5 52.5t-51.5 145.5zM756 137q0 -62 29 -95.5 t81 -33.5q46 0 85.5 38.5t64 96t38 118t13.5 108.5q0 62 -30.5 95.5t-82.5 33.5q-45 0 -84 -39t-63 -96.5t-37.5 -117.5t-13.5 -108z" />
<glyph unicode="&#x26;" horiz-adv-x="1556" d="M217 379q0 217 178.5 354.5t481.5 173.5v4q-120 38 -185 121t-65 176q0 50 17 93t54 80t103 58t155 21q122 0 190 -57t68 -141q0 -81 -48 -133.5t-111 -49.5l-2 4q47 102 47 205q0 64 -38 108t-110 44q-98 0 -151 -60.5t-53 -152.5q0 -90 53.5 -177t152.5 -137v-8 q-250 -40 -408.5 -176t-158.5 -319q0 -167 121.5 -264t314.5 -97q248 0 395.5 120t147.5 294q0 116 -60.5 196t-166.5 80q-38 0 -63.5 -25t-33.5 -60t-5.5 -70t14.5 -56q-32 -14 -62 -14q-39 0 -63.5 24.5t-24.5 67.5q0 73 56.5 120.5t144.5 47.5q80 0 168 -30t162.5 -59.5 t119.5 -29.5q51 0 71.5 56.5t-7.5 115.5q37 11 55 11q39 0 60 -22.5t20 -63.5q-1 -61 -48 -97.5t-122 -36.5q-32 0 -74 8.5t-71 17.5t-76.5 25t-63.5 21q52 -38 79.5 -99.5t27.5 -133.5q0 -99 -42 -185t-121.5 -152t-203.5 -104.5t-278 -38.5q-234 0 -387.5 108.5 t-153.5 293.5z" />
<glyph unicode="'" horiz-adv-x="434" d="M334 1071q36 51 80 138t53 143q-50 0 -75 22.5t-25 61.5q0 44 29 77t75 33q78 0 78 -96q0 -76 -65 -189.5t-134 -189.5h-16z" />
<glyph unicode="(" horiz-adv-x="456" d="M207 193q0 225 47.5 470t148 485t236.5 398h31q-136 -158 -236 -399t-147 -486t-47 -471q0 -324 100 -520h-31q-102 200 -102 523z" />
<glyph unicode=")" horiz-adv-x="456" d="M0 -330q137 160 237 400.5t146.5 484.5t46.5 471q0 324 -100 520h32q99 -200 99 -518q0 -228 -46 -472.5t-145.5 -485t-236.5 -400.5h-33z" />
<glyph unicode="*" horiz-adv-x="1015" d="M356 883q-4 15 3 29t22 22l135 76q36 19 68.5 32.5t73 28.5t69.5 27q-19 10 -79.5 38t-100.5 54l-109 76q-12 8 -13 23t9 30q11 15 24.5 18.5t24.5 -6.5l105 -80q29 -21 51.5 -43t49 -52t44.5 -48q2 29 3.5 104.5t8.5 128.5l27 156q1 17 13.5 28t27.5 11t22.5 -11 t4.5 -28l-31 -156q-8 -41 -18.5 -76.5t-25.5 -80t-24 -76.5q21 15 84 65t109 78l135 80q15 10 27.5 6.5t17.5 -18.5q12 -36 -22 -53l-136 -76q-46 -24 -114 -50.5t-97 -39.5q24 -12 59.5 -27t63 -29t56.5 -34l110 -76q12 -8 13 -23t-9 -30q-25 -32 -53 -13l-102 80 q-28 22 -50 43.5t-50.5 53t-43.5 47.5q-2 -33 -3 -77t-3 -80t-8 -77l-25 -156q-3 -17 -14.5 -27.5t-26.5 -10.5q-36 0 -26 38l29 156q6 32 14.5 63.5t15.5 52t19 56.5l20 60q-27 -20 -62 -48t-65 -49.5t-65 -42.5l-138 -82q-31 -19 -45 15z" />
<glyph unicode="+" horiz-adv-x="825" d="M195 573l4 35h305l59 338h33l-61 -338h305l-6 -35h-306l-59 -337h-31l60 337h-303z" />
<glyph unicode="," horiz-adv-x="468" d="M14 -303l4 18q78 23 145.5 108.5t82.5 174.5q-84 0 -84 76q0 51 28.5 89t79.5 38q70 0 70 -80q0 -137 -97.5 -263t-228.5 -161z" />
<glyph unicode="-" horiz-adv-x="651" d="M190 553l5 35h469l-7 -35h-467z" />
<glyph unicode="." horiz-adv-x="468" d="M162 55q0 54 26.5 93.5t77.5 39.5q72 0 72 -69q0 -55 -27 -94t-80 -39q-69 0 -69 69z" />
<glyph unicode="/" horiz-adv-x="546" d="M0 0l791 1556h30l-790 -1556h-31z" />
<glyph unicode="0" horiz-adv-x="1249" d="M207 483q0 104 17 213t51 219.5t90.5 207t128.5 171.5t172 118.5t215 43.5q206 0 310.5 -132.5t104.5 -367.5q0 -104 -17 -213t-51 -219t-90 -206.5t-128 -171.5t-172 -118.5t-215 -43.5q-206 0 -311 131.5t-105 367.5zM371 381q0 -178 64.5 -275.5t191.5 -97.5 q98 0 183 72t142.5 186t99.5 255t61.5 279t19.5 259q0 178 -64.5 275.5t-191.5 97.5q-97 0 -182.5 -72t-143 -186.5t-99.5 -255.5t-61.5 -279t-19.5 -258z" />
<glyph unicode="1" horiz-adv-x="624" d="M94 0v4q81 18 120 70t58 159l154 867q18 103 -4.5 151.5t-102.5 65.5v4q184 54 330 133v-4l-215 -1217q-19 -106 2 -158t94 -71v-4h-436z" />
<glyph unicode="2" horiz-adv-x="1034" d="M78 6q25 110 86.5 212t138.5 181t164.5 156t169.5 152t149 152.5t107.5 174t40.5 201.5q0 90 -51.5 139t-130.5 49q-127 0 -206.5 -100t-105.5 -262q-51 0 -81.5 16t-30.5 62q0 55 34 111.5t91 101.5t137.5 73.5t165.5 28.5q155 0 242 -65t87 -197q0 -88 -27 -167 t-73 -141t-107 -118t-130.5 -104.5t-140.5 -94.5t-140 -95t-127 -98.5t-103.5 -111t-66.5 -127.5l8 -2q99 96 242 96q56 0 158.5 -29.5t156.5 -29.5q75 0 136.5 56.5t117.5 203.5h10q-46 -171 -72 -232q-67 -160 -189 -196q-40 -12 -87 -12q-68 0 -138 22.5t-129.5 45 t-102.5 22.5q-99 0 -175 -84z" />
<glyph unicode="3" horiz-adv-x="1054" d="M166 225q0 64 38 107t107 43q-10 -82 -10 -133q0 -232 201 -232q78 0 145 47t110 119t67 155.5t24 160.5q0 274 -352 299l2 16q89 19 164.5 56.5t135 93t93 134.5t33.5 173q0 83 -47.5 122t-124.5 39q-113 0 -186 -97.5t-93 -250.5h-4q-50 0 -77 15t-27 61 q0 51 32.5 105.5t85.5 98t126 71.5t147 28q311 0 311 -223q0 -77 -25.5 -141t-67 -108.5t-101 -79.5t-122 -55.5t-135.5 -33.5v-6q179 -6 282 -87t103 -235q0 -218 -146 -362.5t-366 -144.5q-85 0 -150 22.5t-101.5 59t-54 78t-17.5 85.5z" />
<glyph unicode="4" horiz-adv-x="913" d="M106 369l9 47q44 52 132.5 151t153 171t141.5 172t123 178t71.5 163t11.5 152q47 53 94 53q29 0 46 -22t17 -64q0 -74 -51.5 -169.5t-141 -198.5t-176.5 -192t-192 -192t-154 -157h414l80 457q15 12 79 53.5t95 75.5h10l-102 -586h156l-2 -15q-23 -3 -45.5 -25t-34.5 -52 h-90l-25 -144q-19 -100 2.5 -151.5t93.5 -69.5v-4h-436v4q80 18 119 68.5t57 152.5l27 144h-482z" />
<glyph unicode="5" horiz-adv-x="1054" d="M166 219q0 57 40 106t105 50h4q-10 -82 -10 -133q0 -232 199 -232q68 0 127 38.5t98.5 100t68.5 137.5t42.5 150t13.5 139q0 149 -64.5 228.5t-173.5 79.5q-117 0 -254 -101l-38 23q83 263 170 629h409q85 0 131.5 17.5t67.5 61.5h10l-33 -124q-25 -99 -137 -99 q-86 0 -213.5 14.5t-218.5 14.5q-15 -55 -139 -483l2 -5q156 109 317 109q144 0 236 -90.5t92 -257.5q0 -92 -22.5 -180.5t-67.5 -166.5t-107 -137t-147 -93.5t-182 -34.5q-86 0 -151.5 21.5t-102 57t-54.5 76t-18 84.5z" />
<glyph unicode="6" horiz-adv-x="1126" d="M203 465q0 100 17.5 208.5t51.5 220.5t90 212t127 178.5t169 125t210 46.5q77 0 138.5 -25t95 -62.5t49 -77.5t10.5 -74q-4 -29 -33 -49.5t-61 -20.5q-40 0 -53 33q3 41 -2 80.5t-19 80.5t-47.5 66t-81.5 25q-73 0 -140 -51t-118.5 -132.5t-95 -189.5t-72 -217 t-47.5 -221q73 139 176.5 222t225.5 83q158 0 239.5 -86.5t81.5 -243.5q0 -118 -35 -226.5t-100.5 -195t-168.5 -138.5t-228 -52q-177 0 -278 124.5t-101 356.5zM365 352q0 -171 60.5 -256.5t160.5 -85.5q87 0 161 67t118 167t68.5 205.5t24.5 193.5q0 118 -52 184t-158 66 q-101 0 -202 -99.5t-167 -256.5q-14 -98 -14 -185z" />
<glyph unicode="7" horiz-adv-x="976" d="M274 1122q14 77 35 132t58 102t96 70.5t141 23.5q68 0 137.5 -24.5t128 -49t101.5 -24.5q103 0 172 82h33q-196 -263 -251 -343q-274 -397 -361 -727q-48 -183 -46 -360v-4h-213v4q90 388 260.5 675t521.5 650l-4 2q-66 -62 -121.5 -86t-117.5 -24q-46 0 -151.5 32.5 t-174.5 32.5q-186 0 -231 -164h-13z" />
<glyph unicode="8" horiz-adv-x="1081" d="M174 350q17 158 121 273t258 149q-101 23 -156 100.5t-41 194.5q17 179 137.5 277t299.5 98q165 0 250.5 -82t68.5 -232q-13 -136 -100.5 -232.5t-212.5 -123.5q126 -29 192 -125.5t51 -232.5q-23 -207 -161.5 -318.5t-343.5 -111.5q-195 0 -289.5 92.5t-73.5 273.5z M328 299q-21 -139 37.5 -214t175.5 -75q56 0 107.5 27.5t91 73.5t71 105.5t51.5 123.5t29 129q18 122 -41 206.5t-174 84.5h-4q-68 0 -130 -46.5t-105 -118t-71.5 -149t-37.5 -147.5zM500 1018q-15 -105 37 -169.5t141 -64.5h4q64 0 128 66t105.5 156.5t51.5 173.5 q18 110 -32.5 173.5t-146.5 63.5q-69 0 -133 -66t-103 -155.5t-52 -177.5z" />
<glyph unicode="9" horiz-adv-x="1126" d="M215 223q4 29 33 49.5t61 20.5q38 0 51 -33q-2 -41 5 -81t24 -80.5t54 -65.5t89 -25q86 0 162.5 75.5t132 200t94.5 259t64 278.5q-73 -140 -176.5 -223.5t-226.5 -83.5q-157 0 -238.5 86t-81.5 242q0 122 37.5 232.5t106 195.5t173.5 135.5t232 50.5q174 0 268.5 -116 t94.5 -343q0 -85 -11 -177.5t-36 -191.5t-60.5 -191.5t-89 -175t-117.5 -144t-149 -97.5t-181 -36q-81 0 -147 25t-103 62.5t-54 77.5t-11 74zM416 799q0 -119 53 -185.5t158 -66.5q102 0 204 101.5t168 260.5q17 139 17 211q0 159 -56 234.5t-153 75.5q-73 0 -138.5 -43.5 t-110.5 -112.5t-78 -154t-48.5 -167.5t-15.5 -153.5z" />
<glyph unicode=":" horiz-adv-x="468" d="M162 55q0 55 27 94t79 39q70 0 70 -69q0 -55 -27 -94t-80 -39q-69 0 -69 69zM305 862q0 54 27.5 93.5t79.5 39.5q69 0 69 -69q0 -55 -26.5 -94t-79.5 -39q-70 0 -70 69z" />
<glyph unicode=";" horiz-adv-x="468" d="M14 -303l4 18q78 23 146.5 109t83.5 174q-86 0 -86 76q0 53 28.5 90t79.5 37q70 0 70 -80q0 -136 -97 -261.5t-229 -162.5zM305 862q0 54 27.5 93.5t79.5 39.5q69 0 69 -69q0 -55 -26.5 -94t-79.5 -39q-70 0 -70 69z" />
<glyph unicode="&#x3c;" horiz-adv-x="946" d="M195 616l14 80l805 396l-19 -103l-762 -330v-4l658 -262l-19 -102z" />
<glyph unicode="=" horiz-adv-x="825" d="M168 436l6 35h641l-6 -35h-641zM231 793l7 32h639l-5 -32h-641z" />
<glyph unicode="&#x3e;" horiz-adv-x="946" d="M176 291l17 102l751 262v4l-645 330l18 103l666 -396l-14 -80z" />
<glyph unicode="?" horiz-adv-x="929" d="M281 1133q0 79 56 153t156 122t216 48q323 0 323 -248q0 -72 -18 -131t-48.5 -100t-70 -75t-84.5 -61.5t-90.5 -54t-89 -57t-79 -65t-61 -84.5t-34.5 -111h-47q12 77 45 142t76 110.5t91.5 87.5t95 84t84 88.5t60.5 112.5t23 145q0 90 -51 138t-129 48q-232 0 -312 -364 h-4q-48 -9 -78 10t-30 62zM289 55q0 55 26 94t78 39q72 0 72 -71q0 -52 -28 -91.5t-79 -39.5q-69 0 -69 69z" />
<glyph unicode="@" horiz-adv-x="1533" d="M147 188q0 144 40.5 285t118.5 263.5t182.5 216.5t242 148t287.5 54q269 0 407.5 -161t104.5 -435q-6 -71 -25 -148t-54 -157t-80.5 -142.5t-112 -102.5t-142.5 -40q-88 0 -127.5 65.5t-7.5 203.5l35 149h-4q-87 -205 -177 -303t-208 -98q-79 0 -132 60.5t-53 182.5 q0 103 34.5 215.5t93 208.5t147.5 158.5t188 62.5q160 0 187 -165h4l30 151h113l-145 -614q-16 -67 -17 -114t12 -72t33 -35.5t49 -10.5q67 -1 128 54t101.5 139.5t66.5 174t34 167.5q32 268 -99 426t-392 158q-176 0 -334 -81.5t-266.5 -213t-172 -299t-63.5 -338.5 q0 -231 132.5 -366.5t365.5 -135.5q236 0 426 133l12 -18q-205 -138 -444 -138q-244 0 -381.5 137.5t-137.5 374.5zM571 248q0 -90 38.5 -132t97.5 -42q169 0 344 463l26 110q-8 77 -48 127.5t-103 50.5q-73 0 -140.5 -57.5t-113.5 -144.5t-73.5 -187.5t-27.5 -187.5z" />
<glyph unicode="A" horiz-adv-x="1099" d="M27 0l2 4q83 68 192 303l494 1049l-10 78h133q29 0 32 -31l123 -1145q11 -104 26 -159.5t54 -94.5l-2 -4h-342l2 4q96 52 96 209q0 25 -2 53l-26 246h-445l-96 -205q-43 -98 -43 -160q0 -105 88 -143l-2 -4h-274zM369 547h428l-76 766h-4z" />
<glyph unicode="B" horiz-adv-x="1136" d="M125 0v4q44 19 72 73.5t47 155.5l170 967q12 66 12 113q0 95 -49 117v4h371q202 0 299.5 -52.5t97.5 -173.5q0 -91 -31 -162t-88 -117t-128 -74.5t-159 -43.5v-4q377 -25 377 -303q0 -129 -47 -228t-130.5 -158t-189 -88.5t-231.5 -29.5h-393zM369 29h129 q200 0 330 136.5t130 340.5q0 137 -86.5 208.5t-240.5 71.5h-127zM508 811h57q84 0 161.5 29.5t136 81.5t93.5 129t35 166q0 106 -64.5 148t-197.5 42h-117z" />
<glyph unicode="C" horiz-adv-x="1200" d="M211 522q0 136 27 268.5t85 253t139 212t197.5 146t253.5 54.5q68 0 132.5 -15t110 -30.5t69.5 -15.5q39 0 61 39h4l-30 -414h-7q-30 210 -109.5 308.5t-232.5 98.5q-103 0 -190 -56t-146.5 -147.5t-101.5 -209t-61 -239.5t-19 -240q0 -224 102 -346.5t275 -122.5 q254 0 410 284h10q-79 -166 -208.5 -266t-303.5 -100q-225 0 -346 144.5t-121 393.5z" />
<glyph unicode="D" horiz-adv-x="1359" d="M125 0v4q44 19 72 73.5t47 155.5l170 967q12 66 12 113q0 95 -49 117v4h469q270 0 409.5 -132t139.5 -384q0 -189 -54 -354.5t-156 -291.5t-260.5 -199t-355.5 -73h-444zM369 31h186q109 0 205 40.5t167 110.5t127 161t91.5 194.5t53.5 209t18 207.5q0 221 -101.5 336 t-296.5 115h-209z" />
<glyph unicode="E" horiz-adv-x="1095" d="M127 0v4q84 37 117 229l170 967q13 67 13 114q0 93 -48 116v4h801l-27 -357h-2q-20 124 -56 191.5t-106.5 100t-191.5 32.5h-185l-241 -1364h239q193 0 295 81t201 308h2l-109 -426h-872zM494 721l4 27h176q58 0 94 4t72 16.5t60 37.5t46.5 66.5t42.5 104.5h4l-86 -485 h-4v24q-1 61 -9 100q-10 46 -41.5 69t-70.5 29.5t-112 6.5h-176z" />
<glyph unicode="F" horiz-adv-x="1007" d="M125 0v4q44 19 72 73.5t47 155.5l170 967q11 64 11 110q0 97 -48 120v4h801l-25 -357h-4q-15 93 -37.5 151.5t-63 99t-101 57t-152.5 16.5h-185l-116 -674h176q58 0 93 4t70 16.5t57.5 38t44 66.5t42.5 104h4l-86 -485h-4q1 17 1 33q0 32 -3 56q-4 36 -16 62.5 t-27.5 41.5t-44.5 23t-59 10.5t-78 2.5h-175l-83 -467q-11 -56 -11 -97q0 -10 1 -18q3 -46 35 -74t101 -40v-4h-407z" />
<glyph unicode="G" horiz-adv-x="1267" d="M217 516q0 129 27.5 259t86 253t140.5 218t201 152.5t258 57.5q44 0 82.5 -3.5t78.5 -13t63 -16t70.5 -22t67.5 -21.5l-26 -360h-4q-10 79 -24 137.5t-38 112.5t-58 87.5t-85 53t-117 19.5q-110 0 -203.5 -67t-155.5 -171t-106.5 -233t-64 -251t-19.5 -227 q0 -223 92 -344t262 -121q101 0 184 50t132 131l39 215q12 64 12 113q0 30 -4 55q-12 65 -75 96.5t-193 34.5h-11l2 8h449v-4q-37 -58 -57 -166l-62 -354q-74 -99 -194.5 -155t-253.5 -56q-243 0 -369.5 141t-126.5 391z" />
<glyph unicode="H" horiz-adv-x="1290" d="M125 0v4q44 19 72 73.5t47 155.5l170 967q12 66 12 113q0 95 -49 117v4h317l-2 -4q-79 -32 -117 -230l-83 -475h563l84 475q12 66 12 113q0 95 -49 117l2 4h315l-2 -4q-79 -32 -117 -230l-170 -967q-12 -67 -12 -114q0 -23 2 -41q8 -56 47 -74l-2 -4h-315v4 q44 19 72 73.5t47 155.5l80 457h-564l-79 -457q-12 -68 -12 -116q0 -21 2 -39q8 -56 46 -74l-2 -4h-315z" />
<glyph unicode="I" horiz-adv-x="565" d="M125 0v4q44 19 72 73.5t47 155.5l170 967q12 66 12 113q0 95 -49 117v4h317l-2 -4q-79 -32 -117 -230l-169 -967q-12 -68 -12 -116q0 -21 2 -39q8 -56 46 -74l-2 -4h-315z" />
<glyph unicode="J" horiz-adv-x="575" d="M-47 -182q46 16 78 33.5t71 55t66.5 90.5t55.5 141t48 206l152 856q12 64 12 110q0 50 -22 80q-21 29 -64 40v4h355v-4q-43 -17 -71.5 -73t-47.5 -157l-150 -856q-21 -119 -62 -211t-88 -147.5t-108 -93t-112.5 -54t-112.5 -24.5v4z" />
<glyph unicode="K" horiz-adv-x="1138" d="M125 0v4q44 19 72 73.5t47 155.5l170 967q12 66 12 113q0 95 -49 117v4h317l-2 -4q-79 -32 -117 -230l-71 -405q277 256 387.5 372t122.5 183q1 6 1 12q0 49 -67 68l2 4h344l-2 -4q-30 -12 -72 -42t-111.5 -89.5t-127.5 -110.5t-173.5 -155t-195.5 -175l-2 -4h17 q92 0 159 -33.5t104 -89t61.5 -127.5t33 -148t17 -151.5t15.5 -137t26 -106t51 -57.5v-4h-156q-39 0 -62 45t-31.5 116.5t-14.5 158.5t-17.5 174.5t-33.5 160t-69 119.5t-118 49h-19l-75 -65l-92 -525q-12 -68 -12 -116q0 -21 2 -39q8 -56 46 -74l-2 -4h-315z" />
<glyph unicode="L" horiz-adv-x="1064" d="M125 0v4q86 36 119 229l170 967q12 66 12 113q0 95 -49 117v4h317l-2 -4q-79 -32 -117 -230l-204 -1163h202q104 0 175 20t129.5 72.5t103 130t96.5 207.5h2l-125 -467h-829z" />
<glyph unicode="M" horiz-adv-x="1667" d="M125 0v4q44 19 72 73.5t47 155.5l170 967q11 64 11 110q0 97 -48 120v4h125q47 0 59 -41l316 -1180h4l673 1221h240v-4q-82 -33 -117 -230l-170 -967q-13 -65 -13 -112q0 -92 48 -117v-4h-383v4q87 18 127.5 73.5t61.5 172.5l190 1081h-4l-725 -1323h-18q-16 0 -28.5 8.5 t-22 28t-15 35t-14.5 45.5l-262 1063h-5l-147 -877q-7 -50 -7 -92q0 -75 24 -123q38 -74 161 -92v-4h-350z" />
<glyph unicode="N" horiz-adv-x="1241" d="M125 0v4q44 19 72 73.5t47 155.5l170 967q12 66 12 113q0 95 -49 117v4h125q28 0 43 -9.5t26 -31.5l482 -1149h4l141 878q6 47 6 87q0 81 -25 131q-37 74 -157 90v4h348v-4q-43 -17 -71.5 -73t-47.5 -157l-211 -1204h-16q-64 0 -127 129l-446 1102h-5l-149 -916 q-7 -49 -7 -90q0 -77 25 -125q38 -74 162 -92l-2 -4h-350z" />
<glyph unicode="O" d="M215 516q0 111 21 222.5t61.5 217t104.5 196t145 158.5t188.5 107t229.5 39q238 0 363.5 -141t125.5 -389q0 -112 -21 -223.5t-61.5 -217t-104.5 -196.5t-144.5 -159t-188 -107t-229.5 -39q-239 0 -364.5 141.5t-125.5 390.5zM389 440q0 -203 82.5 -317.5t235.5 -114.5 q92 0 174.5 48t144 128t111.5 182.5t81 213.5t47.5 218t16.5 199q0 204 -83.5 319.5t-237.5 115.5q-109 0 -204.5 -68.5t-161 -177t-113.5 -242t-70.5 -263.5t-22.5 -241z" />
<glyph unicode="P" horiz-adv-x="1101" d="M125 0v4q44 19 72 73.5t47 155.5l170 967q12 66 12 113q0 95 -49 117v4h375q231 0 337.5 -60.5t106.5 -214.5q0 -115 -37 -205.5t-99 -148t-149.5 -95t-181.5 -52.5t-203 -15h-49l-71 -410q-15 -71 -15 -118q0 -22 3 -39q10 -54 67 -72l-2 -4h-334zM481 672h49 q218 0 361 138.5t143 363.5q0 128 -72 180.5t-214 52.5h-136z" />
<glyph unicode="Q" d="M231 623q0 125 32 246t95.5 227t150.5 186.5t204.5 127t249.5 46.5q241 0 369 -140.5t128 -371.5q0 -178 -60.5 -340.5t-180.5 -287.5t-279 -177l-532 -258v-4q42 -3 131.5 -29.5t195 -50.5t197.5 -24q190 0 311 67l-29 -168q-88 -28 -182 -28q-77 0 -162.5 20.5t-162 50 l-153 59t-160 50.5t-158.5 22l4 27l587 242q-49 -9 -102 -9q-240 0 -367 141.5t-127 375.5zM403 551q0 -190 85.5 -305t240.5 -115q101 0 192.5 61t156 158t113 215.5t72 235t23.5 215.5q0 188 -86 302t-242 114q-100 0 -191 -61t-155.5 -157.5t-113 -214.5t-72 -234 t-23.5 -214z" />
<glyph unicode="R" horiz-adv-x="1128" d="M125 0v4q44 19 72 73.5t47 155.5l170 967q12 66 12 113q0 95 -49 117v4h340q227 0 331.5 -53.5t104.5 -192.5q0 -178 -117 -299t-293 -148v-4q65 -8 109.5 -46.5t67 -97t35.5 -127.5t20 -141.5t15.5 -136t28.5 -113.5t52 -71v-4h-147q-40 0 -64.5 39.5t-35.5 103t-17 140 t-14.5 153.5t-23 140.5t-47 103t-81.5 39.5h-149l-86 -486q-15 -71 -15 -118q0 -22 3 -39q10 -54 67 -72l-2 -4h-334zM496 748h94q108 0 202 64.5t147.5 167t53.5 214.5q0 64 -19.5 106.5t-59 65.5t-88.5 32t-119 9h-95z" />
<glyph unicode="S" horiz-adv-x="1103" d="M154 55l30 375h4q29 -210 115 -311t254 -101q158 0 258 82t100 230q0 67 -32.5 123.5t-84 97.5t-114 79.5t-124.5 79t-113.5 86t-84 110.5t-32.5 143q0 194 124.5 300.5t327.5 106.5q71 0 136.5 -16t110 -31.5t65.5 -15.5q41 0 67 41h4l-32 -414h-7q-60 410 -356 410 q-132 0 -216.5 -73t-84.5 -204q0 -71 33.5 -131t87 -103t118 -82.5t129 -80t118 -84.5t87 -106t33.5 -136q0 -111 -44.5 -198.5t-121 -140.5t-173.5 -80t-208 -27q-44 0 -83 3.5t-83 13t-66 14.5t-75 20.5t-67 19.5z" />
<glyph unicode="T" horiz-adv-x="1095" d="M213 967l125 467h924l-39 -467h-4q-4 86 -10.5 145t-20 111t-34.5 83t-54 54t-78 32t-107 9h-41l-204 -1168q-8 -48 -8 -84q0 -45 13 -75q24 -52 126 -70l-2 -4h-504v4q57 9 94.5 26.5t60.5 48t35.5 65t22.5 89.5l205 1168h-41q-74 0 -129 -15t-98.5 -43.5t-82.5 -83.5 t-71.5 -121.5t-73.5 -170.5h-4z" />
<glyph unicode="U" horiz-adv-x="1267" d="M293 508l121 692q12 66 12 113q0 95 -49 117v4h330l-2 -4q-51 -17 -80.5 -72t-49.5 -158l-120 -692q-15 -84 -16 -152q0 -290 276 -290q155 0 256.5 106t138.5 324q88 508 98 667q1 22 1 42q0 205 -122 225v4h312l-2 -4q-87 -22 -142 -267q-40 -201 -116 -667 q-46 -260 -165.5 -387t-326.5 -127q-221 0 -311 128q-59 83 -60 227q0 77 17 171z" />
<glyph unicode="V" horiz-adv-x="1095" d="M246 1430v4h440v-4q-72 -13 -107 -40.5t-43 -73.5q-3 -20 -3 -44q0 -32 6 -72l125 -1016h4l428 885q67 151 67 229q0 57 -39.5 89.5t-126.5 42.5v4h357v-4q-38 -17 -76 -74.5t-102 -192.5l-570 -1175h-28q-62 0 -74 90l-146 1122q-13 115 -38 163.5t-74 66.5z" />
<glyph unicode="W" horiz-adv-x="1845" d="M248 1430v4h426v-4q-63 -12 -92 -34q-30 -20 -42 -68q-6 -23 -6 -54q0 -33 7 -74l123 -1016h4l456 955l-8 61q-13 113 -40.5 162.5t-78.5 67.5v4h441v-4q-102 -18 -128 -62q-17 -29 -17 -92q0 -33 5 -76l117 -1016h4l426 885q68 146 68 229q0 57 -38 89.5t-124 42.5v4 h354v-4q-38 -16 -74.5 -72.5t-103.5 -194.5l-569 -1175h-29q-62 0 -74 90l-122 995l-527 -1085h-28q-60 0 -72 90l-148 1122q-13 116 -37 164t-73 66z" />
<glyph unicode="X" horiz-adv-x="1126" d="M16 0v4q44 21 108.5 81.5t131.5 147.5l367 482l-166 485q-34 102 -63.5 158t-65.5 72v4h364v-4q-66 -18 -82 -78q-6 -20 -5 -43q0 -47 22 -109l123 -362q319 422 319 514q0 64 -72 78v4h301v-4q-44 -17 -111 -80t-136 -152l-291 -385l201 -580q66 -195 133 -229v-4h-369 v4q82 23 82 116q0 47 -21 113l-155 457q-377 -504 -377 -606q0 -63 74 -80v-4h-312z" />
<glyph unicode="Y" horiz-adv-x="1040" d="M252 1430v4h432v-4q-95 -17 -114 -65q-6 -16 -6 -39q0 -47 26 -126l143 -434h4l273 397q73 106 73 172q0 81 -135 95l2 4h342v-4q-42 -19 -109 -90.5t-139 -176.5l-290 -426l-88 -504q-12 -53 -12 -95q0 -33 8 -59q18 -57 88 -75v-4h-414v4q78 18 113 70t55 159l80 463 l-170 504q-37 108 -75.5 160t-86.5 70z" />
<glyph unicode="Z" horiz-adv-x="1081" d="M80 0v4q36 28 168 229l753 1160v4h-198q-68 0 -118.5 -7t-95 -25t-77.5 -45.5t-65 -72.5t-59 -101.5t-58 -137.5h-4l118 426h805v-4q-54 -32 -180 -230l-756 -1159v-4h271q85 0 147.5 14.5t110 42.5t87.5 82.5t72.5 120.5t71.5 170h2l-125 -467h-870z" />
<glyph unicode="[" horiz-adv-x="477" d="M127 -330l330 1876h252l-7 -30h-219l-319 -1815h219l-4 -31h-252z" />
<glyph unicode="\" horiz-adv-x="546" d="M274 1556h31l242 -1556h-31z" />
<glyph unicode="]" horiz-adv-x="477" d="M-16 -330l6 31h219l319 1815h-219l6 30h250l-329 -1876h-252z" />
<glyph unicode="^" horiz-adv-x="1054" d="M258 569l487 873h70l182 -873h-120l-105 815h-4l-389 -815h-121z" />
<glyph unicode="_" horiz-adv-x="825" d="M72 -123l4 35h641l-6 -35h-639z" />
<glyph unicode="`" horiz-adv-x="522" d="M299 1481l121 80q18 -92 72 -195.5t110 -136.5l-22 -10q-73 20 -154.5 96.5t-126.5 165.5z" />
<glyph unicode="a" horiz-adv-x="1024" d="M176 326q0 96 21 197.5t66 201t108 177.5t154 126.5t196 48.5q71 0 129 -17t100 -28q21 -6 43.5 -6t46.5 6h2l-139 -799q-9 -44 -9 -79q0 -21 3 -38q9 -46 43 -46q43 0 92 67l4 -4q-75 -143 -170 -143q-76 0 -102 72q-14 39 -13 93q0 44 9 99l47 250h-6 q-69 -259 -163.5 -387.5t-227.5 -128.5q-106 0 -170 85t-64 253zM328 352q0 -146 42.5 -212t114.5 -66q182 0 349 633l49 284q-63 47 -164 47q-72 0 -137 -47t-110 -122t-78.5 -166.5t-49.5 -182.5t-16 -168z" />
<glyph unicode="b" horiz-adv-x="1069" d="M176 12l225 1272q12 68 12 115q0 22 -3 40q-8 55 -45 74v5q91 4 233 32h4l-127 -719l-67 -317h6q36 97 69 172.5t78 154.5t90 131t101.5 85t117.5 33q105 0 171.5 -75t66.5 -237q0 -77 -16 -163.5t-46 -176t-77 -170.5t-105 -144.5t-135 -101.5t-162 -38q-59 0 -107 17.5 t-76.5 43t-49 51t-35.5 43t-25 17.5q-14 0 -32 -32t-56 -112h-10zM362 231q25 -108 72.5 -159.5t124.5 -51.5q74 0 140 56t110.5 142.5t77.5 189.5t48 197t15 165q0 122 -42.5 182t-112.5 60q-55 0 -112 -54.5t-110 -151.5t-99 -208.5t-91 -247.5z" />
<glyph unicode="c" horiz-adv-x="942" d="M182 360q0 77 14 158.5t41.5 163t71.5 153.5t99.5 127.5t130.5 88t161 32.5q82 0 143.5 -23t95.5 -62q33 -38 49 -84q13 -38 13 -79v-16q-7 -46 -30 -79t-58 -33q-21 0 -37.5 8.5t-19.5 23.5q12 78 12 127q0 86 -40 140.5t-126 54.5q-84 0 -154.5 -70.5t-113 -176.5 t-65.5 -219t-23 -210q0 -164 59 -252t166 -88q108 0 185.5 55.5t142.5 165.5l16 -10q-76 -136 -176 -205t-235 -69q-157 0 -239.5 100t-82.5 278z" />
<glyph unicode="d" horiz-adv-x="1093" d="M182 424q22 172 90.5 320.5t175 240.5t224.5 92q97 0 156 -53.5t71 -155.5h4l29 197l41 219q11 67 11 113q0 23 -2 42q-8 55 -46 74v5q96 5 233 32h5l-234 -1317q-8 -42 -8 -75q0 -23 4 -42q9 -46 41 -46q45 0 94 67l2 -4q-33 -67 -76.5 -105t-91.5 -38q-79 0 -103 72 q-13 38 -13 91q0 45 10 101l47 262h-4q-153 -530 -432 -530q-124 0 -190 111q-46 78 -46 207q0 55 8 120zM344 438q-12 -75 -11 -135q0 -89 25 -141q43 -88 129 -88q98 0 198 159.5t183 460.5l19 107q-8 103 -55 166t-121 63q-77 0 -156 -88.5t-135 -224.5t-76 -279z" />
<glyph unicode="e" horiz-adv-x="909" d="M182 352q0 95 19.5 194.5t62 196t103 172t149.5 122t193 46.5q121 0 182 -60.5t61 -160.5q0 -82 -40.5 -152t-103 -116.5t-145 -81t-160 -52.5t-153.5 -24q-4 -62 -4 -84q0 -309 225 -309q102 0 188 65.5t142 184.5h12q-65 -152 -171 -231.5t-238 -79.5q-162 0 -242 97.5 t-80 272.5zM352 449q64 19 126 46t129 69.5t116.5 91.5t82 115t32.5 138q0 69 -35 110.5t-98 41.5q-62 0 -116.5 -41t-93.5 -105t-69.5 -147t-48 -163t-25.5 -156z" />
<glyph unicode="f" horiz-adv-x="620" d="M74 -401q30 31 47 93t37 176l6 36l201 1130h-140l6 31h138l10 55q76 434 364 434q102 0 149.5 -42.5t47.5 -110.5q0 -44 -25.5 -78.5t-66.5 -34.5q-29 0 -49 17q6 37 6 69q0 150 -111 150q-68 0 -122.5 -71.5t-69.5 -180.5q-2 -23 -2 -47q0 -75 24 -160h285l-6 -31h-285 l-199 -1130q-57 -316 -192 -316q-26 0 -53 6v5z" />
<glyph unicode="g" horiz-adv-x="1054" d="M49 -305q0 79 40 132.5t101 53.5q39 0 66 -18q-61 -68 -61 -182q0 -77 47 -122.5t135 -45.5q78 0 146.5 50.5t116.5 134.5t81.5 182t52.5 204l86 465h-4q-174 -557 -446 -557q-114 0 -177 90t-63 250q0 97 21.5 199.5t66 200.5t105.5 174.5t147.5 123.5t185.5 47 q102 0 162 -58.5t78 -164.5h6l64 211h86l-170 -952q-31 -177 -109 -319.5t-200.5 -229t-266.5 -86.5q-136 0 -216.5 57.5t-80.5 159.5zM326 367q0 -141 43 -214t123 -73q102 0 197 147t173 414l27 160q-8 103 -54.5 166t-121.5 63q-87 0 -162.5 -63t-123 -162t-74.5 -214 t-27 -224z" />
<glyph unicode="h" horiz-adv-x="1130" d="M174 0l223 1266q12 69 12 116q-1 22 -3 40q-8 56 -44 75v4q123 16 236 55h4l-139 -784l-76 -401h8q10 27 31 84q44 120 68.5 183.5t72.5 164.5t88.5 153.5t99.5 94t122 41.5q60 0 101.5 -20t69.5 -65q26 -45 30 -119q1 -13 1 -26q0 -66 -14 -155l-82 -474q-9 -44 -9 -79 q0 -21 3 -38q9 -46 43 -46q43 0 92 67l2 -4q-72 -143 -174 -143q-59 0 -89 34t-31 94v10q0 56 11 128l80 451q16 83 16 141q-1 24 -3 44q-10 68 -39 94t-86 26q-27 0 -56 -18.5t-58 -57t-55.5 -80t-57 -107.5t-53 -118t-53 -132.5t-48.5 -130t-47 -130.5l-43 -238h-154z" />
<glyph unicode="i" horiz-adv-x="516" d="M208 118v10q0 56 11 128l96 539q12 69 12 116q0 23 -3 41q-8 56 -45 74v4q125 16 237 55h4l-151 -852q-8 -41 -7 -74q0 -24 4 -43q10 -46 42 -46q43 0 92 67l4 -4q-75 -143 -176 -143q-59 0 -89 34t-31 94zM379 1350q0 64 35 111.5t94 47.5q84 0 84 -73q0 -62 -34.5 -110 t-90.5 -48q-88 0 -88 72z" />
<glyph unicode="j" horiz-adv-x="499" d="M-115 -516q92 24 169 146.5t112 322.5l149 842q12 69 12 116q0 23 -3 41q-8 55 -45 74v4q125 16 237 55h4l-182 -1036q-26 -147 -73.5 -258t-108.5 -176.5t-128.5 -98.5t-142.5 -36v4zM379 1350q0 64 35 111.5t94 47.5q84 0 84 -73q0 -62 -34.5 -110t-90.5 -48 q-88 0 -88 72z" />
<glyph unicode="k" horiz-adv-x="954" d="M174 0l227 1284q12 64 12 111q0 94 -48 118v5q96 5 233 32h4l-86 -487l-78 -418h4l93 115q61 76 96.5 117.5t87.5 93.5t96.5 76t85.5 24q35 0 52.5 -18t17.5 -49q0 -21 -6 -53.5t-13 -45.5h-4q-58 51 -108 51q-51 0 -118 -56.5t-159 -156.5l-53 -55v-4q55 -3 99.5 -20.5 t73.5 -42t51 -63.5t34 -73.5t19.5 -84t9.5 -84.5t4 -85q1 -43 2.5 -64.5t6 -48t15 -37.5t27.5 -11q43 0 92 67l4 -4q-75 -143 -178 -143q-57 0 -86 34q-30 34 -34 90q-2 25 -2 53q0 36 3 77q1 30 1 54v22q0 31 -4 75.5t-11 75t-20.5 64.5t-32.5 55.5t-48.5 37t-66.5 17.5 l-33 -37l-108 -608h-154z" />
<glyph unicode="l" horiz-adv-x="516" d="M208 118v10q0 56 11 128l182 1028q12 64 12 111q0 94 -48 118v5q96 5 233 32h4l-233 -1317q-8 -41 -7 -74q0 -24 4 -43q10 -46 42 -46q43 0 92 67l4 -4q-75 -143 -176 -143q-59 0 -89 34t-31 94z" />
<glyph unicode="m" horiz-adv-x="1671" d="M174 0l141 795q12 69 12 116q0 23 -3 41q-8 56 -45 74v4q122 16 235 55h2l-51 -292l-68 -357h6q25 80 45.5 139t49 131.5t55 124.5t61.5 104t71 84.5t80.5 52.5t92.5 20q187 0 187 -234q0 -66 -15 -151l-12 -70l-45 -201h8q26 83 43.5 134.5t47 128.5t54.5 125.5 t61 104.5t71.5 88t81.5 53.5t96 21.5q185 0 186 -233q0 -67 -16 -152l-82 -474q-9 -44 -9 -79q0 -21 3 -38q9 -46 43 -46q43 0 92 67l2 -4q-71 -143 -174 -143q-58 0 -88 34t-31 94v9q0 56 12 129l78 451q17 91 17 153q0 58 -14 90q-14 34 -37 48t-58 14q-30 0 -59 -15 t-57.5 -49.5t-52 -69t-51 -95t-47 -105t-47 -121.5t-43 -122t-42.5 -128l-56 -307h-153l125 707q16 82 16 140q0 24 -3 44q-9 68 -35 94.5t-73 26.5q-24 0 -47.5 -10t-46 -32t-43 -46.5t-42.5 -64t-39.5 -74t-39 -87t-37 -91.5t-36.5 -99.5t-34 -99t-34 -101.5l-55 -307 h-154z" />
<glyph unicode="n" horiz-adv-x="1130" d="M174 0l141 795q12 69 12 116q0 23 -3 41q-8 56 -45 74v4q122 16 235 55h2l-51 -292l-78 -422h8q102 282 147 382q124 276 258 326q33 13 68 13q211 0 211 -244q0 -63 -14 -141l-82 -474q-9 -44 -9 -79q0 -21 3 -38q9 -46 43 -46q43 0 92 67l2 -4q-72 -143 -174 -143 q-59 0 -89 34t-31 94v10q0 56 11 128l80 451q17 84 17 142q0 23 -2 43q-10 68 -40 94t-87 26q-27 0 -56 -18.5t-58 -57t-55.5 -80t-57 -107.5t-53 -118t-53 -132.5t-48.5 -130t-47 -130.5l-43 -238h-154z" />
<glyph unicode="o" horiz-adv-x="1064" d="M174 383q0 99 21 197t65.5 189t107 161t153.5 111.5t198 41.5q172 0 264 -107.5t92 -293.5q0 -99 -21 -197t-65.5 -189t-107 -161t-153 -111.5t-196.5 -41.5q-174 0 -266 106.5t-92 294.5zM326 295q0 -135 56 -213t159 -78q73 0 137.5 56.5t108.5 143.5t76.5 191.5 t47.5 201t15 171.5q0 138 -57 215.5t-160 77.5q-73 0 -137 -56.5t-108 -143.5t-76 -192t-47 -201.5t-15 -172.5z" />
<glyph unicode="p" horiz-adv-x="1069" d="M8 -508q83 32 117 229l190 1074q12 69 12 116q0 23 -3 41q-8 55 -45 74v4q122 16 235 55h2l-65 -374l-52 -256h9q35 104 68.5 186.5t78.5 170t91 145.5t104 95.5t120 37.5q104 0 171 -75t67 -237q0 -76 -14 -162t-41.5 -175t-72 -169.5t-99.5 -144.5t-130.5 -101.5 t-160.5 -37.5q-83 0 -146.5 45.5t-85.5 132.5l-77 -445q-13 -61 -13 -106q0 -28 5 -49q12 -57 63 -74v-4h-328v4zM371 238q11 -111 65 -163t131 -52q72 0 136.5 56t108.5 142t76 188.5t47 195.5t15 163q0 124 -42 184t-113 60q-37 0 -75 -26.5t-74 -76.5t-69.5 -111 t-67.5 -141.5t-62.5 -156t-59.5 -166.5z" />
<glyph unicode="q" horiz-adv-x="1060" d="M158 340q0 86 15.5 173.5t44.5 169.5t74 153.5t101 125t129 84.5t154 31q101 0 165 -57t83 -158h6l57 203h84l-237 -1344q-11 -65 -11 -113q0 -94 45 -116v-4h-350v4q73 17 108.5 70.5t53.5 158.5l92 523l70 301h-6q-42 -116 -90.5 -210t-104.5 -169t-120.5 -116.5 t-131.5 -41.5q-105 0 -168 87.5t-63 244.5zM315 367q0 -132 43 -202.5t113 -70.5q97 0 193.5 152t177.5 397l28 158q-9 104 -56 166.5t-122 62.5q-67 0 -128 -42.5t-105.5 -112t-77.5 -156.5t-49.5 -178t-16.5 -174z" />
<glyph unicode="r" horiz-adv-x="833" d="M174 0l141 795q12 69 12 116q0 23 -3 41q-8 56 -45 74v4q122 16 235 55h4l-41 -229l-33 -168h7q64 197 144 300.5t191 103.5q78 0 118 -43t40 -113q0 -107 -75 -185.5t-175 -84.5v4q51 35 83 99.5t32 129.5q0 51 -24 82t-72 31q-148 0 -283 -445l-102 -567h-154z" />
<glyph unicode="s" horiz-adv-x="856" d="M125 180q0 44 28 79t70 44q19 -299 211 -299q106 0 174 70.5t68 175.5q0 65 -43 118t-104 91.5t-122 78.5t-104 98.5t-43 131.5q0 147 107 231t262 84q136 0 205 -56.5t69 -135.5q0 -46 -26 -74t-78 -31q-2 55 -12 100.5t-31.5 86t-60 63.5t-91.5 23q-96 0 -156.5 -57 t-60.5 -154q0 -47 23.5 -87t61 -69.5t83 -57.5t91 -57t83 -61t61 -76t23.5 -96q0 -156 -119 -259t-286 -103q-133 0 -208 57.5t-75 140.5z" />
<glyph unicode="t" horiz-adv-x="587" d="M213 1034l6 31h143q93 90 175 317h28l-53 -317h229l-6 -31h-227l-123 -710q-14 -82 -14 -141q0 -144 84 -144q36 0 73 22l2 -12q-91 -57 -174 -57q-141 0 -141 183q0 57 14 132l129 727h-145z" />
<glyph unicode="u" horiz-adv-x="1114" d="M242 385l73 410q12 69 12 116q0 23 -3 41q-8 56 -45 74v4q125 16 237 55h4l-119 -671q-13 -74 -13 -130q0 -182 136 -182q60 0 120 60t108.5 156.5t86 200t62.5 208.5l14 88q24 160 66 215t131 55h4l-149 -852q-9 -43 -8 -77q0 -22 3 -40q9 -46 42 -46q43 0 92 67l4 -4 q-75 -143 -176 -143q-51 0 -77 34t-27 94v10q0 56 11 128l54 315h-4q-24 -80 -51 -153t-68.5 -154.5t-87 -140t-106.5 -97t-126 -38.5q-132 0 -183 100q-31 60 -31 155q0 64 14 142z" />
<glyph unicode="v" horiz-adv-x="835" d="M215 1061l2 4q72 16 113 16q70 0 101.5 -50t35.5 -173q3 -134 5 -361q0 -52 1 -101q0 -162 -4 -283h4q199 338 284 522t85 307q0 73 -43 119v4q29 6 73 6q107 0 107 -84q0 -63 -59.5 -184t-136 -241.5t-181 -289t-164.5 -282.5h-28q-24 0 -38.5 18t-15.5 51l-45 740 q-6 104 -33 176t-63 86z" />
<glyph unicode="w" horiz-adv-x="1353" d="M186 1061l2 4q72 16 115 16q69 0 101 -50t36 -173q4 -134 6 -361v-101q0 -162 -4 -283h2q194 328 278.5 505.5t90.5 292.5q-12 60 -33.5 100.5t-46.5 49.5l2 4q72 16 113 16q69 0 101 -50t36 -173q4 -134 5 -361q0 -52 1 -101q0 -162 -4 -283h2q199 337 285 521.5 t86 307.5q0 73 -43 119v4q29 6 74 6q106 0 106 -84q0 -63 -59.5 -184t-136 -241.5t-181 -289t-164.5 -282.5h-28q-24 0 -38.5 18t-15.5 51q-2 27 -5 83t-5 83l-22 330q-1 23 -11 168h-4q-52 -106 -205 -367.5t-210 -365.5h-29q-50 0 -53 69l-47 740q-6 105 -33 176.5 t-64 85.5z" />
<glyph unicode="x" horiz-adv-x="829" d="M43 78q0 36 20 75.5t61 85t80.5 84t101.5 96.5t102 99l-60 307q-40 194 -133 236l2 4q72 16 113 16q70 0 110.5 -51.5t63.5 -171.5l53 -276q106 118 151.5 193.5t45.5 166.5q0 73 -43 119v4q29 6 73 6q107 0 107 -84q0 -34 -15.5 -70.5t-54 -83.5t-68.5 -79t-94 -96.5 t-96 -98.5l62 -326q18 -84 38 -123.5t62 -39.5q43 0 92 67l4 -4q-75 -143 -176 -143q-35 0 -63 14t-46 35.5t-33.5 59t-24.5 71t-21 86.5l-45 242q-7 -8 -22 -23q-46 -48 -68 -72t-55 -65t-48 -70t-27 -67t-12 -76q0 -72 43 -121v-4q-29 -6 -73 -6q-107 0 -107 84z" />
<glyph unicode="y" horiz-adv-x="854" d="M-100 -379q0 69 51.5 124t138.5 58v-4q-27 -13 -43 -46t-16 -70q0 -47 25.5 -80t74.5 -33q61 0 125.5 41.5t110.5 101.5t76 126t30 114q0 232 -58 523t-126 448q-50 119 -103 139l2 4q66 14 115 14q61 0 95.5 -37.5t58.5 -119.5q58 -166 91 -459q23 -209 23 -354 q0 -58 -4 -105h4q74 136 127 281t78.5 269t36 217.5t10.5 168.5q0 72 -43 121v4q44 6 74 6q107 0 107 -86q0 -138 -122.5 -476t-289.5 -605q-120 -193 -249.5 -307.5t-248.5 -114.5q-73 0 -112 39.5t-39 97.5z" />
<glyph unicode="z" horiz-adv-x="835" d="M61 8l725 924l-2 4q-64 -21 -120 -21q-45 0 -126 13.5t-114 13.5q-61 0 -105.5 -41.5t-80.5 -152.5h-5q22 100 47.5 166t55.5 101.5t61 49.5t72 14q34 0 129 -17.5t160 -17.5q91 0 176 27l12 -14l-731 -920l2 -4q59 21 121 21q50 0 141 -15.5t129 -15.5q77 0 133 48.5 t99 178.5h4q-26 -111 -56 -183.5t-65.5 -111t-72 -53t-85.5 -14.5q-39 0 -140.5 16t-166.5 16q-98 0 -186 -26z" />
<glyph unicode="{" horiz-adv-x="477" d="M186 635l9 45q112 24 169.5 107.5t57.5 209.5q0 36 -4 114.5t-4 113.5q0 321 295 321l-9 -45q-137 0 -196.5 -54.5t-59.5 -164.5q0 -37 8.5 -124.5t8.5 -135.5q0 -129 -65 -231t-173 -132l-2 -4q58 -19 96.5 -77.5t38.5 -147.5q0 -70 -22.5 -152.5t-49 -146.5t-49 -142.5 t-22.5 -140.5q0 -65 40 -99t134 -34l-8 -45q-99 0 -141.5 47.5t-42.5 135.5q0 71 20 153.5t44.5 146t44.5 142.5t20 143q0 84 -39.5 133t-98.5 64z" />
<glyph unicode="|" horiz-adv-x="595" d="M221 -350l338 1917h33l-338 -1917h-33z" />
<glyph unicode="}" horiz-adv-x="477" d="M-16 -330l6 45q73 0 124.5 23.5t79.5 67t40 96.5t12 121q0 24 -3 86.5t-3 95.5q0 58 6.5 111t23.5 109t44 100t71 79t102 51l2 4q-59 18 -97 77t-38 147q0 75 32 169t63.5 180.5t31.5 145.5t-40.5 91t-135.5 32l8 45q189 0 189 -170q0 -57 -18.5 -125t-41 -121.5 t-41 -123.5t-18.5 -129q0 -84 40 -133t101 -64l-8 -45q-73 -17 -122.5 -59.5t-74 -104t-34 -122.5t-9.5 -136q0 -24 1.5 -69.5t1.5 -67.5q0 -62 -7.5 -116.5t-28 -109t-52.5 -93.5t-85 -63t-122 -24z" />
<glyph unicode="~" horiz-adv-x="1054" d="M219 618q153 136 275 136q45 0 94 -18.5t84 -40t80 -40t84 -18.5q98 0 211 113l20 -45q-117 -101 -215 -101q-44 0 -92 19.5t-82.5 43t-81 43t-88.5 19.5q-120 0 -266 -156z" />
<glyph unicode="&#xa1;" horiz-adv-x="471" d="M86 -299q0 38 33.5 140t80 252t68.5 276l41 235h68l-41 -235q-18 -104 -29 -210.5t-13 -170.5t-3 -138.5t-2 -89.5q0 -58 -29.5 -96.5t-89.5 -38.5q-36 0 -60 20t-24 56zM322 954q0 54 27.5 93.5t78.5 39.5q70 0 70 -69q0 -55 -27 -94t-80 -39q-69 0 -69 69z" />
<glyph unicode="&#xa2;" horiz-adv-x="1007" d="M201 524q0 99 19.5 196.5t61.5 189.5t102 162.5t148 115t193 47.5l45 250h29l-43 -250q149 -3 225 -79t76 -179q0 -43 -23 -80t-63 -37q-22 0 -38.5 9t-19.5 22q9 70 9 98q0 92 -43 155.5t-127 67.5l-179 -1011q32 -4 56 -4q99 0 186.5 59t149.5 164l18 -10 q-74 -131 -181.5 -202.5t-240.5 -74.5l-39 -217h-28l38 217q-161 6 -246 109.5t-85 281.5zM362 539q0 -133 47.5 -218.5t135.5 -111.5l176 1003q-90 -6 -161.5 -73t-113 -168.5t-63 -212.5t-21.5 -219z" />
<glyph unicode="&#xa3;" horiz-adv-x="1060" d="M72 16q69 80 112.5 137t91 135t70.5 159t23 167q0 10 -1 30.5t-1 29.5h-160l4 31h151q-1 12 -13.5 108.5t-12.5 151.5q0 99 26 185.5t76.5 155t133 108.5t186.5 40q81 0 142 -20t94 -53t49 -70t16 -76q0 -66 -40.5 -106.5t-103.5 -28.5q7 61 7 98q0 232 -195 232 q-67 0 -116.5 -30t-76.5 -80.5t-40 -107t-13 -118.5q0 -48 11.5 -150.5t11.5 -163.5q0 -25 -4 -75h278l-4 -31h-278q-22 -149 -99.5 -279t-206.5 -270l5 -2q113 80 221 80q56 0 159.5 -30t155.5 -30q75 0 137 57t117 203h8q-44 -169 -72 -232q-65 -146 -190 -176 q-37 -9 -80 -9q-67 0 -136.5 23.5t-129.5 47t-104 23.5q-94 0 -172 -86z" />
<glyph unicode="&#xa4;" horiz-adv-x="1533" d="M301 182l180 168q-65 100 -65 244q0 134 48 258t136 215l-115 160l31 28l115 -159q148 135 354 135q199 0 303 -129l168 153l21 -26l-166 -158q59 -92 59 -233q0 -140 -50.5 -270.5t-143.5 -221.5l116 -164l-30 -26l-119 161q-144 -122 -340 -122q-199 0 -301 127 l-180 -166zM469 604q0 -162 91.5 -259t250.5 -97q113 0 210 49.5t160 130.5t98.5 184t35.5 211q0 163 -90 259t-248 96q-113 0 -210 -49.5t-161 -130t-100.5 -183.5t-36.5 -211z" />
<glyph unicode="&#xa5;" horiz-adv-x="1038" d="M252 1430v4h432v-4q-96 -17 -114.5 -65t20.5 -165l143 -434h2l275 397q39 57 57 101.5t15 80.5t-36.5 57.5t-97.5 27.5v4h342v-4q-42 -20 -108.5 -91t-137.5 -176l-290 -426l-11 -55h271l-6 -31h-271l-32 -192h268l-4 -31h-271l-32 -195q-22 -97 -5 -154t87 -75v-4h-412 v4q78 18 113 70t53 159l35 195h-271l4 31h271l34 192h-270l6 31h271l2 14l-172 504q-35 107 -73 159.5t-87 70.5z" />
<glyph unicode="&#xa6;" horiz-adv-x="595" d="M221 -350l141 809h33l-141 -809h-33zM416 760l143 807h33l-143 -807h-33z" />
<glyph unicode="&#xa7;" horiz-adv-x="1214" d="M102 -385l33 373h4q22 -214 99 -313t235 -99q111 0 197.5 73t101.5 191q8 58 -11.5 107.5t-58 85t-90 72t-107 66.5t-109 69t-96.5 80t-69 99t-26 126q0 132 76 230.5t200 144.5q-43 65 -43 147q0 180 124 284.5t308 104.5q54 0 101 -7.5t73.5 -16t75 -26t78.5 -26.5 l-27 -360h-4q-48 218 -116.5 314t-198.5 96q-114 0 -190 -75t-76 -190q0 -56 33.5 -104t86.5 -83.5t117.5 -70.5t129 -74.5t117.5 -85t86.5 -112t33.5 -146.5q0 -138 -76.5 -241t-202.5 -162q29 -70 21 -152q-10 -94 -54 -170t-109.5 -123.5t-143.5 -72.5t-160 -25 q-54 0 -107 7.5t-83 15t-90 25.5t-83 24zM344 639q0 -62 31.5 -115t80 -89t111.5 -74t122 -69.5t115 -76t87 -92.5q65 49 103 120t38 152q0 74 -40 133.5t-104.5 102.5t-133.5 79.5t-141.5 84.5t-112.5 98q-69 -39 -112.5 -108t-43.5 -146z" />
<glyph unicode="&#xa8;" horiz-adv-x="776" d="M391 1352q0 55 27 94t80 39q69 0 69 -68q0 -55 -27 -95t-79 -40q-70 0 -70 70zM698 1352q0 55 27 94t80 39q69 0 69 -68q0 -55 -27 -95t-79 -40q-70 0 -70 70z" />
<glyph unicode="&#xa9;" horiz-adv-x="1533" d="M211 541q0 173 58 336.5t161 291.5t258 205.5t336 77.5q257 0 404 -152t147 -411q0 -139 -36 -273t-106.5 -250t-166.5 -204t-226 -138.5t-276 -50.5q-258 0 -405.5 153t-147.5 415zM244 545q0 -250 139.5 -398.5t384.5 -148.5q139 0 263.5 49.5t216.5 135.5t159.5 198 t102 241t34.5 261q0 249 -139.5 396.5t-384.5 147.5q-139 0 -263.5 -49.5t-216.5 -134.5t-159.5 -197t-102 -240.5t-34.5 -260.5zM547 610q0 100 28 197t80.5 179.5t139.5 133.5t194 51q123 0 187.5 -60.5t64.5 -141.5q0 -37 -20 -67t-54 -30q-43 0 -49 25q6 37 6 82 q0 74 -34.5 123t-106.5 49q-74 0 -133.5 -50.5t-95 -131t-54 -172.5t-18.5 -183q0 -130 55 -200t158 -70q171 0 276 176l17 -8q-60 -107 -149 -164t-197 -57q-144 0 -219.5 84.5t-75.5 234.5z" />
<glyph unicode="&#xaa;" horiz-adv-x="479" d="M215 1020q11 59 48.5 98t78 55t102.5 39t97 43l4 39q10 73 -2.5 109.5t-65.5 36.5q-45 0 -71 -25t-31 -59q-6 -28 8.5 -48t40.5 -22q-32 -37 -66 -37q-32 0 -49 21.5t-10 58.5q8 53 59.5 89t130.5 36t113.5 -45.5t22.5 -132.5l-35 -248q-15 -98 20 -115l-2 -2h-61 q-29 0 -36.5 28t-2.5 85l12 78h-2q-36 -97 -91.5 -147t-121.5 -50q-45 0 -71 32t-19 83zM299 1032q-6 -38 8.5 -60t42.5 -22q47 0 96.5 57.5t81.5 161.5l11 70q-25 -16 -63.5 -36t-62.5 -34t-50 -33.5t-41.5 -45t-22.5 -58.5z" />
<glyph unicode="&#xab;" horiz-adv-x="866" d="M201 608l6 37l430 426l-12 -63l-387 -375v-4l266 -318l-12 -65zM496 608l6 37l430 426l-12 -63l-388 -375v-4l267 -318l-13 -65z" />
<glyph unicode="&#xac;" horiz-adv-x="1054" d="M279 657l4 21h667l-55 -311h-18l51 290h-649z" />
<glyph unicode="&#xad;" horiz-adv-x="651" d="M190 553l5 35h469l-7 -35h-467z" />
<glyph unicode="&#xae;" horiz-adv-x="1533" d="M211 539q0 139 36.5 272.5t107.5 249t168 203t226.5 138t274.5 50.5q257 0 404 -152t147 -411q0 -139 -36 -273t-106.5 -250t-166.5 -204t-226 -138.5t-276 -50.5q-257 0 -405 152.5t-148 413.5zM244 545q0 -251 139.5 -399t384.5 -148q139 0 263.5 49.5t216.5 135.5 t159.5 198t102 241t34.5 261q0 249 -139 396.5t-383 147.5q-139 0 -263.5 -49.5t-217 -134.5t-160.5 -197t-102.5 -240.5t-34.5 -260.5zM557 291v4q50 19 74 147l100 576q24 129 -20 145l2 4h219q144 0 211 -33.5t67 -121.5q0 -228 -258 -267v-2q57 -8 90.5 -50t44.5 -100.5 t17 -117.5t20 -110.5t41 -69.5v-4h-92q-35 0 -53 45.5t-24 110t-13.5 129t-31.5 110t-68 45.5h-95l-49 -289q-14 -67 -7.5 -102t44.5 -45l-2 -4h-217zM793 752h61q108 0 180 76.5t72 189.5q0 76 -46.5 104.5t-135.5 28.5h-60z" />
<glyph unicode="&#xaf;" horiz-adv-x="712" d="M326 1325l6 33h528l-6 -33h-528z" />
<glyph unicode="&#xb0;" horiz-adv-x="661" d="M322 1157q0 121 73 209t193 88q80 0 130 -45t50 -133q0 -123 -72 -211t-192 -88q-80 0 -131 45.5t-51 134.5zM391 1130q0 -66 33.5 -99.5t83.5 -33.5q60 0 105.5 52.5t65 119t19.5 129.5q0 68 -32 102t-82 34q-46 0 -84 -31t-61 -78t-35.5 -98.5t-12.5 -96.5z" />
<glyph unicode="&#xb1;" horiz-adv-x="825" d="M166 195l6 34h563l-6 -34h-563zM215 694l4 35h305l60 338h32l-61 -338h305l-6 -35h-305l-60 -338h-30l59 338h-303z" />
<glyph unicode="&#xb2;" horiz-adv-x="528" d="M209 924q14 57 45 109.5t69.5 92t81.5 77.5t83.5 75t73.5 75.5t53 86.5t20 102q0 44 -25 68t-63 24q-118 0 -154 -180q-59 0 -59 37q0 59 64.5 108.5t152.5 49.5q75 0 118.5 -32t43.5 -97q0 -56 -21.5 -104t-57 -84t-78.5 -68.5t-90 -62.5t-88 -60t-74.5 -69t-47.5 -81 l4 -2q52 49 121 49q27 0 78.5 -15t79.5 -15q37 0 67.5 28t59.5 101h6q-30 -107 -49 -141q-43 -81 -127 -81q-43 0 -103 24t-84 24q-46 0 -86 -43z" />
<glyph unicode="&#xb3;" horiz-adv-x="526" d="M246 1038q0 32 19.5 52t53.5 20q-4 -50 -4 -66q0 -116 101 -116q52 0 92.5 40t59 94t18.5 107q0 70 -42.5 106t-129.5 44v8q93 20 152 79t59 150q0 78 -84 78q-107 0 -138 -172q-59 0 -59 39q0 56 62 103t139 47q153 0 153 -109q0 -93 -62.5 -143.5t-162.5 -67.5v-4 q90 -2 141.5 -43t51.5 -117q0 -108 -74 -182t-182 -74q-83 0 -123.5 39t-40.5 88z" />
<glyph unicode="&#xb4;" horiz-adv-x="522" d="M299 1229q68 34 159 137t142 195l90 -80q-74 -89 -182 -165.5t-189 -96.5z" />
<glyph unicode="&#xb6;" horiz-adv-x="1255" d="M254 840q0 273 170.5 433.5t445.5 160.5h514v-4q-43 -17 -70.5 -73t-45.5 -157l-250 -1417q-12 -71 -12 -117q0 -91 49 -112l-2 -5h-176l2 5q49 57 79 229l289 1626h-53q-74 0 -120 -56t-62 -153l-250 -1417q-14 -67 -14 -139q0 -69 14 -90l-2 -5h-258l2 5q53 9 86.5 25 t54 47t30.5 64.5t21 92.5l117 666h-61q-226 0 -362 100t-136 291z" />
<glyph unicode="&#xb7;" horiz-adv-x="468" d="M264 633q0 54 27 92.5t78 38.5q71 0 71 -70q0 -55 -26.5 -94t-79.5 -39q-70 0 -70 72z" />
<glyph unicode="&#xb8;" horiz-adv-x="479" d="M33 -348q28 -21 71 -21q55 0 91 38t36 93q0 38 -20 61t-59 23l-2 11l79 143h25l-68 -129q61 -1 93 -35.5t32 -87.5q0 -73 -52.5 -132.5t-125.5 -59.5q-52 0 -77.5 26.5t-22.5 69.5z" />
<glyph unicode="&#xb9;" horiz-adv-x="382" d="M246 922v2q40 9 60.5 35.5t27.5 78.5l78 435q9 50 -3 74.5t-51 33.5v2q79 20 166 66l-2 -2l-106 -609q-9 -53 2 -79t47 -35v-2h-219z" />
<glyph unicode="&#xba;" horiz-adv-x="548" d="M248 1104q0 85 31 163t97.5 131.5t153.5 53.5q91 0 139 -53.5t48 -147.5q0 -64 -18.5 -125t-53 -112t-89.5 -82t-122 -31q-90 0 -138 54t-48 149zM326 1051q0 -64 28.5 -100t81.5 -36q46 0 86.5 42t64.5 103.5t38 125.5t14 114q0 65 -29 101.5t-84 36.5 q-46 0 -85.5 -42.5t-63.5 -104.5t-37.5 -126.5t-13.5 -113.5z" />
<glyph unicode="&#xbb;" horiz-adv-x="866" d="M166 246l12 65l379 318v4l-256 375l10 63l281 -426l-6 -37zM461 246l12 65l379 318v4l-256 375l10 63l281 -426l-6 -37z" />
<glyph unicode="&#xbc;" horiz-adv-x="919" d="M106 41l951 1352h28l-950 -1352h-29zM211 717v2q40 9 60 35.5t28 79.5l78 434q9 50 -2.5 74.5t-50.5 31.5v2q78 22 165 68l-2 -2l-106 -608q-9 -53 2 -79.5t47 -35.5v-2h-219zM514 184l4 25q21 24 81 90t96 109.5t79 102.5t60 108.5t8 89.5q22 18 41 18q32 0 32 -43 q0 -47 -43 -113t-94 -118t-122.5 -122t-98.5 -100h205l39 228q9 8 42 27.5t48 37.5h6l-51 -293h76l-2 -8q-9 -2 -21 -13.5t-18 -25.5h-43l-15 -71q-8 -51 2.5 -76.5t46.5 -34.5l-2 -2h-217v2q40 9 59.5 34.5t28.5 76.5l13 71h-240z" />
<glyph unicode="&#xbd;" horiz-adv-x="1048" d="M106 41l951 1352h28l-950 -1352h-29zM211 717v2q40 9 60 35.5t28 79.5l78 434q9 50 -2.5 74.5t-50.5 33.5v2q77 20 165 66l-2 -2l-106 -608q-9 -53 2 -79.5t47 -35.5v-2h-219zM565 2q13 57 44 109.5t69.5 92t82 78t84 75.5t73.5 75.5t53 86.5t20 102q0 44 -25.5 68 t-64.5 24q-111 0 -153 -181q-58 0 -58 37q0 59 63.5 108.5t151.5 49.5q76 0 120 -32t44 -97q0 -56 -21.5 -104t-57 -84t-79 -68t-90.5 -62.5t-88 -60.5t-74 -68.5t-47 -80.5l2 -2q52 49 121 49q29 0 81 -15.5t79 -15.5q36 0 67 28t58 101h6q-30 -105 -46 -136 q-43 -85 -128 -85q-43 0 -102.5 23.5t-83.5 23.5q-49 0 -86 -43z" />
<glyph unicode="&#xbe;" horiz-adv-x="1062" d="M209 834q0 30 21 50.5t55 20.5q-6 -37 -6 -65q0 -117 100 -117q51 0 91.5 40t59.5 93.5t19 106.5q0 137 -172 149v8q93 22 152 81.5t59 150.5q0 78 -84 78q-106 0 -137 -175q-58 0 -58 41q0 56 60.5 103t136.5 47q156 0 156 -111q0 -167 -226 -211v-2q91 -3 142 -43.5 t51 -117.5q0 -107 -74.5 -180.5t-181.5 -73.5q-83 0 -123.5 39t-40.5 88zM250 41l948 1352h29l-948 -1352h-29zM659 184l5 25q21 24 67 75.5t78 87t72 87.5t63 91.5t36.5 83t6.5 77.5q22 18 39 18q35 0 35 -45q0 -47 -43.5 -113t-94.5 -118t-122.5 -121.5t-98.5 -100.5h205 l39 230q4 3 39 24t51 39h6l-51 -293h76l-2 -8q-9 -2 -21 -13.5t-18 -25.5h-45l-12 -71q-9 -50 2 -76t47 -35l-2 -2h-217v2q40 9 59 34.5t27 76.5l14 71h-240z" />
<glyph unicode="&#xbf;" horiz-adv-x="929" d="M84 -135q0 90 29 159.5t76 115t104 82.5t116.5 72.5t111 74.5t89.5 99t49 136h50q-11 -77 -44 -141.5t-75.5 -110.5t-91.5 -88t-95.5 -84.5t-85 -89.5t-61.5 -113t-23 -145q0 -89 51.5 -136.5t129.5 -47.5q231 0 311 364h4q109 0 109 -78q0 -120 -123 -218.5t-305 -98.5 q-326 0 -326 248zM653 956q0 54 27.5 92.5t79.5 38.5q71 0 71 -73q0 -54 -27 -91.5t-79 -37.5q-72 0 -72 71z" />
<glyph unicode="&#xc0;" horiz-adv-x="1099" d="M27 0l2 4q83 68 192 303l494 1049l-10 78h133q29 0 32 -31l123 -1145q11 -104 26 -159.5t54 -94.5l-2 -4h-342l2 4q112 60 94 262l-26 246h-445l-96 -205q-43 -98 -43 -160q0 -105 88 -143l-2 -4h-274zM369 547h428l-76 766h-4zM610 1808l117 80q18 -92 73 -195t111 -137 l-22 -10q-74 20 -156 97t-123 165z" />
<glyph unicode="&#xc1;" horiz-adv-x="1099" d="M27 0l2 4q83 68 192 303l494 1049l-10 78h133q29 0 32 -31l123 -1145q11 -104 26 -159.5t54 -94.5l-2 -4h-342l2 4q112 60 94 262l-26 246h-445l-96 -205q-43 -98 -43 -160q0 -105 88 -143l-2 -4h-274zM369 547h428l-76 766h-4zM684 1556q68 34 159 137t142 195l90 -80 q-74 -88 -182.5 -165t-187.5 -97z" />
<glyph unicode="&#xc2;" horiz-adv-x="1099" d="M27 0l2 4q83 68 192 303l494 1049l-10 78h133q29 0 32 -31l123 -1145q11 -104 26 -159.5t54 -94.5l-2 -4h-342l2 4q112 60 94 262l-26 246h-445l-96 -205q-43 -98 -43 -160q0 -105 88 -143l-2 -4h-274zM369 547h428l-76 766h-4zM545 1556q113 58 284 304h78 q78 -245 176 -304l-22 -10q-52 14 -113 77.5t-98 135.5q-65 -73 -147 -136t-138 -77z" />
<glyph unicode="&#xc3;" horiz-adv-x="1099" d="M27 0l2 4q83 68 192 303l494 1049l-10 78h133q29 0 32 -31l123 -1145q11 -104 26 -159.5t54 -94.5l-2 -4h-342l2 4q112 60 94 262l-26 246h-445l-96 -205q-43 -98 -43 -160q0 -105 88 -143l-2 -4h-274zM369 547h428l-76 766h-4zM504 1653q107 151 217 151q32 0 63.5 -18 t53 -39t50.5 -39t58 -18q73 0 141 118l72 -47q-100 -135 -188 -135q-32 0 -62 20t-49 43.5t-46.5 43.5t-55.5 20q-45 0 -89 -35.5t-96 -120.5z" />
<glyph unicode="&#xc4;" horiz-adv-x="1099" d="M29 2v4q48 38 93 112t101 189l492 1051l-8 78h131q29 0 32 -33l123 -1143q10 -106 25.5 -161t54.5 -93l-2 -4h-340v4q112 56 94 262l-24 246h-447l-96 -207q-41 -93 -41 -160q0 -106 86 -141v-4h-274zM369 547h430l-78 766h-4zM592 1679q0 55 26 94t78 39q74 0 74 -71 q0 -52 -28.5 -91.5t-77.5 -39.5q-72 0 -72 69zM911 1679q0 55 26.5 94t78.5 39q71 0 71 -71q0 -52 -28.5 -91.5t-77.5 -39.5q-70 0 -70 69z" />
<glyph unicode="&#xc5;" horiz-adv-x="1099" d="M27 0l2 4q83 68 192 303l494 1049l-8 78h131q29 0 32 -31l123 -1145q11 -104 26 -159.5t54 -94.5l-2 -4h-342l2 4q112 59 94 264l-26 246h-445l-96 -207q-41 -93 -41 -160q0 -106 86 -143v-4h-276zM369 547h430l-78 766h-4zM645 1591q0 91 58.5 158.5t148.5 67.5 q66 0 103.5 -38.5t37.5 -103.5q0 -92 -58 -160.5t-149 -68.5q-66 0 -103.5 39.5t-37.5 105.5zM696 1599q0 -50 26.5 -79t72.5 -29q63 0 106 54.5t43 119.5q0 49 -27 78t-73 29q-65 0 -106.5 -53t-41.5 -120z" />
<glyph unicode="&#xc6;" horiz-adv-x="1607" d="M25 0l2 4q55 42 120 125t123 178l668 1047q0 49 -20 76v4h774l-27 -357h-4q-20 124 -56 191.5t-106.5 100t-191.5 32.5h-209l-84 -653h170q58 0 93.5 4t71.5 16.5t60 37.5t47 66.5t43 104.5h4l-86 -485h-4q2 52 -2.5 89.5t-17.5 63t-29.5 40.5t-46 23t-59.5 10.5t-78 2.5 h-168l-88 -684h198q192 0 293.5 81t200.5 308h4l-109 -426h-837v4q56 29 83.5 90.5t43.5 171.5l30 246h-387l-133 -205q-23 -41 -39 -75.5t-26.5 -72t-9 -66t17.5 -52.5t49 -37v-4h-278zM463 547h373l100 751h-4z" />
<glyph unicode="&#xc7;" horiz-adv-x="1200" d="M211 522q0 136 27 268.5t85 253t139 212t197.5 146t253.5 54.5q68 0 132.5 -15t110 -30.5t69.5 -15.5q39 0 61 39h4l-30 -414h-7q-30 210 -109.5 308.5t-232.5 98.5q-103 0 -190 -56t-146.5 -147.5t-101.5 -209t-61 -239.5t-19 -240q0 -224 102 -346.5t275 -122.5 q254 0 410 284h10q-77 -165 -207.5 -265.5t-302.5 -100.5l-59 -115q61 -1 92.5 -35t31.5 -88q0 -73 -52.5 -132.5t-125.5 -59.5q-52 0 -77.5 26.5t-22.5 69.5q28 -21 72 -21q55 0 91 38t36 93q0 38 -20.5 61t-59.5 23l-2 11l71 129q-214 7 -329 151t-115 387z" />
<glyph unicode="&#xc8;" horiz-adv-x="1095" d="M127 0v4q84 37 117 229l170 967q37 196 -35 230v4h801l-27 -357h-2q-20 124 -56 191.5t-106.5 100t-191.5 32.5h-185l-241 -1364h239q193 0 295 81t201 308h2l-109 -426h-872zM494 721l4 27h176q58 0 94 4t72 16.5t60 37.5t46.5 66.5t42.5 104.5h4l-86 -485h-4 q2 78 -8.5 124t-42 69t-70.5 29.5t-112 6.5h-176zM627 1808l116 80q18 -92 73.5 -195t111.5 -137l-23 -10q-73 20 -155 97t-123 165z" />
<glyph unicode="&#xc9;" horiz-adv-x="1095" d="M127 0v4q84 37 117 229l170 967q37 196 -35 230v4h801l-27 -357h-2q-20 124 -56 191.5t-106.5 100t-191.5 32.5h-185l-241 -1364h239q193 0 295 81t201 308h2l-109 -426h-872zM494 721l4 27h176q58 0 94 4t72 16.5t60 37.5t46.5 66.5t42.5 104.5h4l-86 -485h-4 q2 78 -8.5 124t-42 69t-70.5 29.5t-112 6.5h-176zM727 1556q68 34 159 137t142 195l90 -80q-74 -88 -182.5 -165t-187.5 -97z" />
<glyph unicode="&#xca;" horiz-adv-x="1095" d="M127 0v4q84 37 117 229l170 967q37 196 -35 230v4h801l-27 -357h-2q-20 124 -56 191.5t-106.5 100t-191.5 32.5h-185l-241 -1364h239q193 0 295 81t201 308h2l-109 -426h-872zM494 721l4 27h176q58 0 94 4t72 16.5t60 37.5t46.5 66.5t42.5 104.5h4l-86 -485h-4 q2 78 -8.5 124t-42 69t-70.5 29.5t-112 6.5h-176zM541 1556q113 58 284 304h78q78 -245 176 -304l-22 -10q-52 14 -113 77.5t-98 135.5q-65 -73 -147 -136t-138 -77z" />
<glyph unicode="&#xcb;" horiz-adv-x="1095" d="M127 2v4q86 34 119 230l170 964q19 101 10 157t-47 75v4h801l-27 -359h-2q-20 124 -56 191.5t-106.5 100t-191.5 32.5h-185l-239 -1362h239q131 0 215.5 35.5t148 117t130.5 236.5h2l-109 -426h-872zM494 723l4 25h176q72 0 114 6.5t82 30.5t67 70t52 124h4l-86 -487h-4 q2 78 -8.5 124t-42 70t-71 30.5t-111.5 6.5h-176zM606 1679q0 55 26.5 94t78.5 39q73 0 73 -71q0 -52 -28.5 -91.5t-77.5 -39.5q-72 0 -72 69zM926 1679q0 55 26 94t78 39q72 0 72 -71q0 -51 -29 -91t-78 -40q-69 0 -69 69z" />
<glyph unicode="&#xcc;" horiz-adv-x="565" d="M125 0v4q44 19 72 73.5t47 155.5l170 967q37 197 -37 230v4h317l-2 -4q-79 -32 -117 -230l-169 -967q-18 -98 -10 -154.5t46 -74.5l-2 -4h-315zM350 1808l117 80q18 -92 73 -195t111 -137l-22 -10q-74 20 -156 97t-123 165z" />
<glyph unicode="&#xcd;" horiz-adv-x="565" d="M125 0v4q44 19 72 73.5t47 155.5l170 967q37 197 -37 230v4h317l-2 -4q-79 -32 -117 -230l-169 -967q-18 -98 -10 -154.5t46 -74.5l-2 -4h-315zM455 1556q68 34 159 137t142 195l90 -80q-74 -88 -183 -165t-188 -97z" />
<glyph unicode="&#xce;" horiz-adv-x="565" d="M125 0v4q44 19 72 73.5t47 155.5l170 967q37 197 -37 230v4h317l-2 -4q-79 -32 -117 -230l-169 -967q-18 -98 -10 -154.5t46 -74.5l-2 -4h-315zM289 1556q113 58 284 304h78q78 -245 176 -304l-22 -10q-52 14 -113 77.5t-98 135.5q-65 -73 -147 -136t-138 -77z" />
<glyph unicode="&#xcf;" horiz-adv-x="565" d="M127 2v4q83 33 117 230l170 964q36 196 -35 232v4h315v-4q-44 -18 -72 -74t-47 -158l-169 -964q-34 -197 36 -230v-4h-315zM340 1679q0 55 26 94t78 39q72 0 72 -71q0 -52 -27.5 -91.5t-76.5 -39.5q-72 0 -72 69zM657 1679q0 55 26.5 94t78.5 39q72 0 72 -71 q0 -52 -28 -91.5t-77 -39.5q-72 0 -72 69z" />
<glyph unicode="&#xd0;" horiz-adv-x="1359" d="M125 0v4q44 19 72 73.5t47 155.5l73 422h-143l6 35h144l90 510q37 197 -37 230v4h469q270 0 409.5 -132t139.5 -384q0 -189 -54 -354.5t-156 -291.5t-260.5 -199t-355.5 -73h-444zM369 31h186q109 0 205 40.5t167 110.5t127 161t91.5 194.5t53.5 209t18 207.5 q0 221 -101.5 336t-296.5 115h-209l-125 -715h291l-6 -35h-291z" />
<glyph unicode="&#xd1;" horiz-adv-x="1241" d="M125 0v4q44 19 72 73.5t47 155.5l170 967q37 197 -37 230v4h125q28 0 43 -9.5t26 -31.5l482 -1149h4l141 878q18 144 -19 218t-157 90v4h348v-4q-43 -17 -71.5 -73t-47.5 -157l-211 -1204h-16q-64 0 -127 129l-446 1102h-5l-149 -916q-20 -142 18 -215.5t162 -91.5l-2 -4 h-350zM614 1653q107 151 217 151q32 0 63.5 -18t53 -39t51 -39t58.5 -18q73 0 141 118l72 -47q-100 -135 -189 -135q-32 0 -62 20t-49 43.5t-46.5 43.5t-55.5 20q-45 0 -88.5 -35.5t-95.5 -120.5z" />
<glyph unicode="&#xd2;" d="M215 516q0 111 21 222.5t61.5 217t104.5 196t145 158.5t188.5 107t229.5 39q238 0 363.5 -141t125.5 -389q0 -112 -21 -223.5t-61.5 -217t-104.5 -196.5t-144.5 -159t-188 -107t-229.5 -39q-239 0 -364.5 141.5t-125.5 390.5zM389 440q0 -203 82.5 -317.5t235.5 -114.5 q92 0 174.5 48t144 128t111.5 182.5t81 213.5t47.5 218t16.5 199q0 204 -83.5 319.5t-237.5 115.5q-109 0 -204.5 -68.5t-161 -177t-113.5 -242t-70.5 -263.5t-22.5 -241zM786 1808l117 80q18 -92 73 -195t111 -137l-22 -10q-74 20 -156 97t-123 165z" />
<glyph unicode="&#xd3;" d="M215 516q0 111 21 222.5t61.5 217t104.5 196t145 158.5t188.5 107t229.5 39q238 0 363.5 -141t125.5 -389q0 -112 -21 -223.5t-61.5 -217t-104.5 -196.5t-144.5 -159t-188 -107t-229.5 -39q-239 0 -364.5 141.5t-125.5 390.5zM389 440q0 -203 82.5 -317.5t235.5 -114.5 q92 0 174.5 48t144 128t111.5 182.5t81 213.5t47.5 218t16.5 199q0 204 -83.5 319.5t-237.5 115.5q-109 0 -204.5 -68.5t-161 -177t-113.5 -242t-70.5 -263.5t-22.5 -241zM879 1556q68 34 159 137t142 195l90 -80q-74 -88 -183 -165t-188 -97z" />
<glyph unicode="&#xd4;" d="M215 516q0 111 21 222.5t61.5 217t104.5 196t145 158.5t188.5 107t229.5 39q238 0 363.5 -141t125.5 -389q0 -112 -21 -223.5t-61.5 -217t-104.5 -196.5t-144.5 -159t-188 -107t-229.5 -39q-239 0 -364.5 141.5t-125.5 390.5zM389 440q0 -203 82.5 -317.5t235.5 -114.5 q92 0 174.5 48t144 128t111.5 182.5t81 213.5t47.5 218t16.5 199q0 204 -83.5 319.5t-237.5 115.5q-109 0 -204.5 -68.5t-161 -177t-113.5 -242t-70.5 -263.5t-22.5 -241zM713 1556q113 58 284 304h78q78 -245 176 -304l-22 -10q-52 14 -113 77.5t-98 135.5 q-65 -73 -147 -136t-138 -77z" />
<glyph unicode="&#xd5;" d="M215 516q0 111 21 222.5t61.5 217t104.5 196t145 158.5t188.5 107t229.5 39q238 0 363.5 -141t125.5 -389q0 -112 -21 -223.5t-61.5 -217t-104.5 -196.5t-144.5 -159t-188 -107t-229.5 -39q-239 0 -364.5 141.5t-125.5 390.5zM389 440q0 -203 82.5 -317.5t235.5 -114.5 q92 0 174.5 48t144 128t111.5 182.5t81 213.5t47.5 218t16.5 199q0 204 -83.5 319.5t-237.5 115.5q-109 0 -204.5 -68.5t-161 -177t-113.5 -242t-70.5 -263.5t-22.5 -241zM682 1653q107 151 217 151q32 0 63.5 -18t53 -39t50.5 -39t58 -18q74 0 142 118l71 -47 q-100 -135 -188 -135q-32 0 -62 20t-49 43.5t-46.5 43.5t-55.5 20q-45 0 -88.5 -35.5t-95.5 -120.5z" />
<glyph unicode="&#xd6;" d="M215 516q0 134 29 267t91 255t148.5 215.5t210.5 149t269 55.5q240 0 366.5 -142t126.5 -390q0 -111 -21 -222.5t-62 -217t-105.5 -196.5t-145.5 -159.5t-189.5 -107.5t-230.5 -39q-237 0 -362 141.5t-125 390.5zM387 442q0 -204 83 -318t237 -114q92 0 174.5 48t144 128 t111.5 182.5t81 213.5t47.5 218t16.5 199q0 204 -83 319.5t-238 115.5q-91 0 -173.5 -48.5t-144 -129t-111.5 -183t-81 -214.5t-47.5 -218.5t-16.5 -198.5zM764 1679q0 55 26 94t78 39q72 0 72 -71q0 -52 -27.5 -91.5t-78.5 -39.5q-70 0 -70 69zM1081 1679q0 55 26.5 94 t78.5 39q71 0 71 -71q0 -52 -27.5 -91.5t-78.5 -39.5q-70 0 -70 69z" />
<glyph unicode="&#xd7;" horiz-adv-x="825" d="M236 350l260 242l-174 239l24 23l174 -240l258 240l19 -23l-260 -239l174 -242l-25 -22l-174 239l-258 -239z" />
<glyph unicode="&#xd8;" d="M215 516q0 111 21 222.5t61.5 217t104.5 196t145 158.5t188.5 107t229.5 39q142 0 245 -53l90 153h29l-96 -165q109 -62 165 -182t56 -283q0 -112 -21 -223.5t-61.5 -217t-104.5 -196.5t-144.5 -159t-188 -107t-229.5 -39q-148 0 -256 57l-72 -123h-29l78 135 q-104 64 -157.5 182.5t-53.5 280.5zM389 440q0 -200 80 -315l707 1218q-83 89 -215 89q-109 0 -204.5 -68.5t-161 -177t-113.5 -242t-70.5 -263.5t-22.5 -241zM485 104q81 -96 222 -96q92 0 174.5 48t144 128t111.5 182.5t81 213.5t47.5 218t16.5 199q0 209 -88 326z" />
<glyph unicode="&#xd9;" horiz-adv-x="1267" d="M293 508l121 692q37 197 -37 230v4h330l-2 -4q-51 -17 -80.5 -72t-49.5 -158l-120 -692q-80 -442 260 -442q155 0 256.5 106t138.5 324q88 508 98 667q13 245 -121 267v4h312l-2 -4q-87 -22 -142 -267q-40 -201 -116 -667q-46 -260 -165.5 -387t-326.5 -127 q-221 0 -311.5 127.5t-42.5 398.5zM698 1808l117 80q18 -92 73 -195t111 -137l-22 -10q-74 20 -156 97t-123 165z" />
<glyph unicode="&#xda;" horiz-adv-x="1267" d="M293 508l121 692q37 197 -37 230v4h330l-2 -4q-51 -17 -80.5 -72t-49.5 -158l-120 -692q-80 -442 260 -442q155 0 256.5 106t138.5 324q88 508 98 667q13 245 -121 267v4h312l-2 -4q-87 -22 -142 -267q-40 -201 -116 -667q-46 -260 -165.5 -387t-326.5 -127 q-221 0 -311.5 127.5t-42.5 398.5zM862 1556q68 34 159 137t142 195l90 -80q-74 -88 -182.5 -165t-187.5 -97z" />
<glyph unicode="&#xdb;" horiz-adv-x="1267" d="M293 508l121 692q37 197 -37 230v4h330l-2 -4q-51 -17 -80.5 -72t-49.5 -158l-120 -692q-80 -442 260 -442q155 0 256.5 106t138.5 324q88 508 98 667q13 245 -121 267v4h312l-2 -4q-87 -22 -142 -267q-40 -201 -116 -667q-46 -260 -165.5 -387t-326.5 -127 q-221 0 -311.5 127.5t-42.5 398.5zM647 1556q115 58 285 304h78q78 -245 176 -304l-23 -10q-52 14 -113 77.5t-98 135.5q-65 -73 -146.5 -136t-137.5 -77z" />
<glyph unicode="&#xdc;" horiz-adv-x="1267" d="M291 508l121 692q39 194 -35 232v4h328v-4q-52 -18 -81.5 -72.5t-50.5 -159.5l-120 -692q-77 -440 260 -440q156 0 258 105.5t141 322.5q85 490 96 667q13 245 -121 269l3 4h309l-2 -4q-85 -24 -140 -269q-51 -252 -118 -667q-46 -258 -166.5 -385t-327.5 -127 q-220 0 -310 127t-44 397zM707 1679q0 56 25.5 94.5t78.5 38.5q72 0 72 -71q0 -51 -29 -91t-78 -40q-69 0 -69 69zM1024 1679q0 55 26 94t78 39q72 0 72 -71q0 -52 -27.5 -91.5t-78.5 -39.5q-70 0 -70 69z" />
<glyph unicode="&#xdd;" horiz-adv-x="1040" d="M252 1430v4h432v-4q-95 -17 -113.5 -65t19.5 -165l143 -434h4l273 397q73 106 73 172q0 81 -135 95l2 4h342v-4q-42 -19 -109 -90.5t-139 -176.5l-290 -426l-88 -504q-22 -97 -4 -154t88 -75v-4h-414v4q78 18 113 70t55 159l80 463l-170 504q-37 108 -75.5 160t-86.5 70z M766 1556q68 34 159 137t142 195l90 -80q-74 -88 -183 -165t-188 -97z" />
<glyph unicode="&#xde;" horiz-adv-x="1146" d="M125 0v4q44 19 72 73.5t47 155.5l170 967q34 197 -37 230v4h315v-4q-82 -33 -117 -230l-16 -94h176q223 0 329.5 -65t106.5 -214q0 -128 -43 -223.5t-121 -153t-180.5 -85t-228.5 -27.5h-174l-18 -105q-37 -193 34 -229v-4h-315zM428 367h156q130 0 225.5 66t141.5 172 t46 237q0 127 -72 180t-216 53h-156z" />
<glyph unicode="&#xdf;" horiz-adv-x="1177" d="M74 -401q30 31 47 93t37 176l6 36l198 1120q23 134 77 237.5t125.5 164.5t149.5 91.5t158 30.5q74 0 128 -17.5t83 -47.5t42.5 -64.5t13.5 -75.5q0 -63 -32 -126t-85.5 -114t-108.5 -89.5t-114 -69.5v-4q21 -16 68.5 -51t72.5 -55t64.5 -55t61.5 -65t45 -70t33.5 -85.5 t10.5 -97.5q0 -87 -30.5 -172.5t-83.5 -153.5t-133 -110.5t-171 -42.5q-124 0 -194 54t-70 134q0 43 25.5 85t64.5 48q-2 -63 5.5 -114t25.5 -94t52.5 -67t82.5 -24q85 0 152 65t99 152t32 170q0 36 -5.5 69t-18 64t-25.5 56t-36 53t-40 47.5t-48 47t-49.5 43t-54 45 t-53.5 44.5v4q55 50 87.5 82t84.5 90.5t82 106t53 109t23 118.5q0 154 -150 154q-105 0 -201 -110.5t-133 -321.5l-209 -1188q-57 -316 -192 -316q-26 0 -53 6v5z" />
<glyph unicode="&#xe0;" horiz-adv-x="1024" d="M176 326q0 96 21 197.5t66 201t108 177.5t154 126.5t196 48.5q71 0 129 -17t100 -28t90 0h2l-139 -799q-15 -71 -6 -117t43 -46q43 0 92 67l4 -4q-75 -143 -170 -143q-76 0 -101.5 72t-4.5 192l47 250h-6q-69 -259 -163.5 -387.5t-227.5 -128.5q-106 0 -170 85t-64 253z M328 352q0 -146 42.5 -212t114.5 -66q182 0 349 633l49 284q-63 47 -164 47q-72 0 -137 -47t-110 -122t-78.5 -166.5t-49.5 -182.5t-16 -168zM594 1481l121 80q18 -92 72 -195.5t110 -136.5l-23 -10q-73 20 -154 96.5t-126 165.5z" />
<glyph unicode="&#xe1;" horiz-adv-x="1024" d="M176 326q0 96 21 197.5t66 201t108 177.5t154 126.5t196 48.5q71 0 129 -17t100 -28t90 0h2l-139 -799q-15 -71 -6 -117t43 -46q43 0 92 67l4 -4q-75 -143 -170 -143q-76 0 -101.5 72t-4.5 192l47 250h-6q-69 -259 -163.5 -387.5t-227.5 -128.5q-106 0 -170 85t-64 253z M328 352q0 -146 42.5 -212t114.5 -66q182 0 349 633l49 284q-63 47 -164 47q-72 0 -137 -47t-110 -122t-78.5 -166.5t-49.5 -182.5t-16 -168zM670 1229q68 34 159 137t142 195l90 -80q-74 -89 -182 -165.5t-189 -96.5z" />
<glyph unicode="&#xe2;" horiz-adv-x="1024" d="M176 326q0 96 21 197.5t66 201t108 177.5t154 126.5t196 48.5q71 0 129 -17t100 -28t90 0h2l-139 -799q-15 -71 -6 -117t43 -46q43 0 92 67l4 -4q-75 -143 -170 -143q-76 0 -101.5 72t-4.5 192l47 250h-6q-69 -259 -163.5 -387.5t-227.5 -128.5q-106 0 -170 85t-64 253z M328 352q0 -146 42.5 -212t114.5 -66q182 0 349 633l49 284q-63 47 -164 47q-72 0 -137 -47t-110 -122t-78.5 -166.5t-49.5 -182.5t-16 -168zM487 1229q120 61 283 303h78q83 -246 178 -303l-22 -10q-52 14 -113 77.5t-98 135.5q-65 -73 -147.5 -136t-139.5 -77z" />
<glyph unicode="&#xe3;" horiz-adv-x="1024" d="M176 326q0 96 21 197.5t66 201t108 177.5t154 126.5t196 48.5q71 0 129 -17t100 -28t90 0h2l-139 -799q-15 -71 -6 -117t43 -46q43 0 92 67l4 -4q-75 -143 -170 -143q-76 0 -101.5 72t-4.5 192l47 250h-6q-69 -259 -163.5 -387.5t-227.5 -128.5q-106 0 -170 85t-64 253z M328 352q0 -146 42.5 -212t114.5 -66q182 0 349 633l49 284q-63 47 -164 47q-72 0 -137 -47t-110 -122t-78.5 -166.5t-49.5 -182.5t-16 -168zM489 1337q102 152 199 152q30 0 59 -17.5t48 -39t45.5 -39t52.5 -17.5q67 0 129 117l65 -47q-48 -69 -93 -102t-79 -33 q-29 0 -56 20t-44.5 43.5t-42.5 43.5t-51 20q-40 0 -79.5 -35.5t-90.5 -120.5z" />
<glyph unicode="&#xe4;" horiz-adv-x="1024" d="M174 326q0 96 21 198.5t66 202t108 177.5t154 126.5t196 48.5q72 0 131 -17t101 -28t89 0l2 -2l-139 -796q-13 -72 -4 -119t41 -47q44 0 92 69l4 -4q-76 -145 -170 -145q-76 0 -101.5 72.5t-4.5 191.5l47 252h-6q-69 -259 -163.5 -388.5t-227.5 -129.5q-108 0 -172 85 t-64 253zM328 352q0 -145 43 -211.5t114 -66.5q182 0 349 635l49 282q-55 47 -166 47q-72 0 -136 -47t-109 -122t-78.5 -166.5t-49.5 -182.5t-16 -168zM553 1352q0 55 26.5 94t79.5 39q70 0 70 -68q0 -55 -27 -95t-79 -40q-70 0 -70 70zM858 1352q0 55 28 94t81 39 q69 0 69 -68q0 -55 -27 -95t-79 -40q-72 0 -72 70z" />
<glyph unicode="&#xe5;" horiz-adv-x="1024" d="M176 326q0 96 21 198.5t66 202t108 177.5t154 126.5t196 48.5q71 0 129.5 -17t100.5 -28t89 0l4 -2l-141 -796q-28 -166 39 -166q41 0 92 69l2 -4q-34 -67 -77.5 -106t-92.5 -39q-76 0 -100.5 72.5t-3.5 191.5l45 252h-6q-70 -260 -163.5 -389t-227.5 -129 q-106 0 -170 85t-64 253zM328 352q0 -145 43 -211.5t114 -66.5q182 0 349 635l49 282q-55 47 -164 47q-72 0 -137 -47t-110 -122t-78.5 -166.5t-49.5 -182.5t-16 -168zM600 1241q0 91 58.5 159t148.5 68q64 0 101.5 -38t37.5 -103q0 -90 -58 -159.5t-147 -69.5 q-65 0 -103 39t-38 104zM651 1251q0 -49 26.5 -78.5t70.5 -29.5q64 0 106.5 53.5t42.5 118.5q0 50 -26.5 79t-71.5 29q-66 0 -107 -52.5t-41 -119.5z" />
<glyph unicode="&#xe6;" horiz-adv-x="1437" d="M115 170q0 75 33 137.5t83.5 104.5t123.5 82t139 66.5t144.5 61.5t127.5 64l12 80q13 88 10.5 153t-39 102.5t-108.5 37.5q-93 0 -149.5 -55t-65.5 -123q-8 -58 20.5 -96t85.5 -35q-59 -74 -133 -74q-58 0 -91.5 41t-26.5 106q9 112 119.5 186t263.5 74 q120 0 172.5 -69.5t44.5 -192.5h4q56 127 148.5 194.5t203.5 67.5q123 0 183.5 -57t60.5 -156q0 -83 -40 -153t-101.5 -116.5t-143.5 -82t-157 -54t-150 -28.5q-2 -20 -2 -59q0 -161 57 -247.5t162 -86.5q100 0 184 65t142 185h10q-64 -152 -168.5 -231.5t-235.5 -79.5 q-151 0 -229 115.5t-72 293.5h-4q-55 -183 -166 -291t-254 -108q-91 0 -144.5 45.5t-53.5 132.5zM272 199q0 -57 32.5 -91t86.5 -34q111 0 207 119.5t145 328.5l21 142q-35 -23 -96.5 -58t-110 -61.5t-104.5 -66.5t-93.5 -78t-62.5 -91t-25 -110zM889 449q64 18 126 45 t127 69t113.5 91.5t79.5 116t31 138.5q0 68 -34 110t-97 42q-75 0 -139 -59t-105.5 -152.5t-67.5 -197t-34 -203.5z" />
<glyph unicode="&#xe7;" horiz-adv-x="942" d="M182 360q0 77 14 158.5t41.5 163t71.5 153.5t99.5 127.5t130.5 88t161 32.5q82 0 143.5 -23t95.5 -61.5t49.5 -84t12.5 -95.5q-7 -46 -30 -79t-58 -33q-21 0 -37.5 8.5t-19.5 23.5q12 78 12 127q0 86 -40 140.5t-126 54.5q-84 0 -154.5 -70.5t-113 -176.5t-65.5 -219 t-23 -210q0 -164 59 -252t166 -88q108 0 185.5 55.5t142.5 165.5l16 -10q-153 -271 -403 -274l-59 -113q61 -1 93 -35.5t32 -87.5q0 -73 -53 -132.5t-126 -59.5q-52 0 -77.5 26.5t-22.5 69.5q28 -21 72 -21q55 0 91 38t36 93q0 38 -20.5 61t-59.5 23l-2 11l71 127 q-150 6 -227.5 105.5t-77.5 272.5z" />
<glyph unicode="&#xe8;" horiz-adv-x="909" d="M182 352q0 95 19.5 194.5t62 196t103 172t149.5 122t193 46.5q121 0 182 -60.5t61 -160.5q0 -82 -40.5 -152t-103 -116.5t-145 -81t-160 -52.5t-153.5 -24q-4 -62 -4 -84q0 -309 225 -309q102 0 188 65.5t142 184.5h12q-65 -152 -171 -231.5t-238 -79.5q-162 0 -242 97.5 t-80 272.5zM352 449q64 19 126 46t129 69.5t116.5 91.5t82 115t32.5 138q0 69 -35 110.5t-98 41.5q-62 0 -116.5 -41t-93.5 -105t-69.5 -147t-48 -163t-25.5 -156zM522 1481l121 80q18 -92 72 -195.5t110 -136.5l-22 -10q-73 20 -154.5 96.5t-126.5 165.5z" />
<glyph unicode="&#xe9;" horiz-adv-x="909" d="M182 352q0 95 19.5 194.5t62 196t103 172t149.5 122t193 46.5q121 0 182 -60.5t61 -160.5q0 -82 -40.5 -152t-103 -116.5t-145 -81t-160 -52.5t-153.5 -24q-4 -62 -4 -84q0 -309 225 -309q102 0 188 65.5t142 184.5h12q-65 -152 -171 -231.5t-238 -79.5q-162 0 -242 97.5 t-80 272.5zM352 449q64 19 126 46t129 69.5t116.5 91.5t82 115t32.5 138q0 69 -35 110.5t-98 41.5q-62 0 -116.5 -41t-93.5 -105t-69.5 -147t-48 -163t-25.5 -156zM600 1229q68 34 159 137t142 195l90 -80q-74 -89 -181.5 -165.5t-188.5 -96.5z" />
<glyph unicode="&#xea;" horiz-adv-x="909" d="M182 352q0 95 19.5 194.5t62 196t103 172t149.5 122t193 46.5q121 0 182 -60.5t61 -160.5q0 -82 -40.5 -152t-103 -116.5t-145 -81t-160 -52.5t-153.5 -24q-4 -62 -4 -84q0 -309 225 -309q102 0 188 65.5t142 184.5h12q-65 -152 -171 -231.5t-238 -79.5q-162 0 -242 97.5 t-80 272.5zM352 449q64 19 126 46t129 69.5t116.5 91.5t82 115t32.5 138q0 69 -35 110.5t-98 41.5q-62 0 -116.5 -41t-93.5 -105t-69.5 -147t-48 -163t-25.5 -156zM457 1229q119 61 282 303h78q83 -246 178 -303l-22 -10q-52 14 -113 77.5t-98 135.5q-65 -73 -147.5 -136 t-139.5 -77z" />
<glyph unicode="&#xeb;" horiz-adv-x="909" d="M182 354q0 95 19.5 194t62.5 195.5t103.5 171.5t149 121.5t192.5 46.5q122 0 182.5 -59.5t60.5 -159.5q0 -82 -40.5 -152t-103 -116.5t-145 -81.5t-160 -53t-153.5 -25q-4 -62 -4 -82q0 -311 225 -311q102 0 188.5 65.5t143.5 184.5h10q-64 -151 -170.5 -231t-238.5 -80 q-162 0 -242 97.5t-80 274.5zM352 451q63 18 125.5 45.5t129 69.5t117 91t82.5 115.5t32 138.5q0 68 -35 109t-98 41q-62 0 -116.5 -40.5t-93.5 -104.5t-69.5 -146.5t-48 -162.5t-25.5 -156zM512 1352q0 55 26.5 94t79.5 39q70 0 70 -68q0 -55 -27 -95t-79 -40q-70 0 -70 70 zM819 1352q0 55 27 94t80 39q69 0 69 -68q0 -55 -27 -95t-79 -40q-70 0 -70 70z" />
<glyph unicode="&#xec;" horiz-adv-x="516" d="M208 118.5q-1 59.5 11 137.5l96 539q17 101 9 156.5t-45 74.5v4q125 16 237 55h4l-151 -852q-13 -71 -3.5 -117t42.5 -46q43 0 92 67l4 -4q-75 -143 -176 -143q-59 0 -89 34.5t-31 94zM254 1481l121 80q18 -92 72 -195.5t110 -136.5l-22 -10q-73 20 -154.5 96.5 t-126.5 165.5z" />
<glyph unicode="&#xed;" horiz-adv-x="516" d="M208 118.5q-1 59.5 11 137.5l96 539q17 101 9 156.5t-45 74.5v4q125 16 237 55h4l-151 -852q-13 -71 -3.5 -117t42.5 -46q43 0 92 67l4 -4q-75 -143 -176 -143q-59 0 -89 34.5t-31 94zM319 1229q69 34 160.5 137t141.5 195l90 -80q-74 -89 -182 -165.5t-189 -96.5z" />
<glyph unicode="&#xee;" horiz-adv-x="516" d="M188 1229q120 61 283 303h78q83 -246 178 -303l-22 -10q-52 14 -113 77.5t-98 135.5q-65 -73 -147.5 -136t-139.5 -77zM208 118.5q-1 59.5 11 137.5l96 539q17 101 9 156.5t-45 74.5v4q125 16 237 55h4l-151 -852q-13 -71 -3.5 -117t42.5 -46q43 0 92 67l4 -4 q-75 -143 -176 -143q-59 0 -89 34.5t-31 94z" />
<glyph unicode="&#xef;" horiz-adv-x="516" d="M208 120.5q-1 59.5 11 137.5l96 539q34 196 -36 229v4q128 17 237 57h4l-151 -851q-28 -166 39 -166q41 0 92 69l4 -4q-76 -145 -178 -145q-58 0 -87.5 35.5t-30.5 95zM238 1352q0 55 26.5 94t79.5 39q70 0 70 -68q0 -55 -27.5 -95t-79.5 -40q-69 0 -69 70zM545 1352 q0 55 26.5 94t79.5 39q70 0 70 -68q0 -55 -27.5 -95t-79.5 -40q-69 0 -69 70z" />
<glyph unicode="&#xf0;" horiz-adv-x="1110" d="M156 287q0 116 40.5 236t110.5 219t176.5 162t227.5 63q119 0 184.5 -75t65.5 -190q0 -22 -3 -43h5q98 322 98 551q0 78 -10 127l-222 -127l-8 25l223 129q-42 160 -165 160q-77 0 -139.5 -64t-92.5 -137q-32 0 -52 14t-20 37q0 63 94 118.5t218 55.5q160 0 243 -133 l154 88l10 -24l-151 -88q61 -111 61 -289q0 -126 -32.5 -275t-97.5 -297.5t-152 -270.5t-207.5 -198.5t-251.5 -76.5q-140 0 -223.5 76.5t-83.5 226.5zM287 231q0 -109 53 -164t131 -55q71 0 138 41t123 114.5t103 164t87 200.5q10 62 10 119q0 124 -53 203.5t-144 79.5 q-90 0 -175.5 -73t-143.5 -181t-93.5 -229t-35.5 -220z" />
<glyph unicode="&#xf1;" horiz-adv-x="1130" d="M174 0l141 795q17 101 9 156.5t-45 74.5v4q122 16 235 55h2l-51 -292l-78 -422h8q102 282 147 382q124 276 258 326q33 13 68 13q265 0 197 -385l-82 -474q-15 -71 -6 -117t43 -46q43 0 92 67l2 -4q-72 -143 -174 -143q-59 0 -89 34.5t-31 94t11 137.5l80 451 q24 117 14.5 185t-39.5 94t-87 26q-27 0 -56 -18.5t-58 -57t-55.5 -80t-57 -107.5t-53 -118t-53 -132.5t-48.5 -130t-47 -130.5l-43 -238h-154zM512 1337q102 152 199 152q25 0 48 -11.5t41 -28.5t35 -33.5t38 -28t42 -11.5q67 0 129 117l66 -47q-48 -69 -93 -102t-79 -33 q-29 0 -56.5 20t-45 43.5t-42.5 43.5t-51 20q-40 0 -79.5 -35.5t-90.5 -120.5z" />
<glyph unicode="&#xf2;" horiz-adv-x="1064" d="M174 383q0 99 21 197t65.5 189t107 161t153.5 111.5t198 41.5q172 0 264 -107.5t92 -293.5q0 -99 -21 -197t-65.5 -189t-107 -161t-153 -111.5t-196.5 -41.5q-174 0 -266 106.5t-92 294.5zM326 295q0 -135 56 -213t159 -78q73 0 137.5 56.5t108.5 143.5t76.5 191.5 t47.5 201t15 171.5q0 138 -57 215.5t-160 77.5q-73 0 -137 -56.5t-108 -143.5t-76 -192t-47 -201.5t-15 -172.5zM549 1481l121 80q18 -92 72 -195.5t110 -136.5l-23 -10q-73 20 -154 96.5t-126 165.5z" />
<glyph unicode="&#xf3;" horiz-adv-x="1064" d="M174 383q0 99 21 197t65.5 189t107 161t153.5 111.5t198 41.5q172 0 264 -107.5t92 -293.5q0 -99 -21 -197t-65.5 -189t-107 -161t-153 -111.5t-196.5 -41.5q-174 0 -266 106.5t-92 294.5zM326 295q0 -135 56 -213t159 -78q73 0 137.5 56.5t108.5 143.5t76.5 191.5 t47.5 201t15 171.5q0 138 -57 215.5t-160 77.5q-73 0 -137 -56.5t-108 -143.5t-76 -192t-47 -201.5t-15 -172.5zM645 1229q68 34 159 137t142 195l90 -80q-74 -89 -181.5 -165.5t-188.5 -96.5z" />
<glyph unicode="&#xf4;" horiz-adv-x="1064" d="M174 383q0 99 21 197t65.5 189t107 161t153.5 111.5t198 41.5q172 0 264 -107.5t92 -293.5q0 -99 -21 -197t-65.5 -189t-107 -161t-153 -111.5t-196.5 -41.5q-174 0 -266 106.5t-92 294.5zM326 295q0 -135 56 -213t159 -78q73 0 137.5 56.5t108.5 143.5t76.5 191.5 t47.5 201t15 171.5q0 138 -57 215.5t-160 77.5q-73 0 -137 -56.5t-108 -143.5t-76 -192t-47 -201.5t-15 -172.5zM477 1229q120 61 283 303h78q83 -246 178 -303l-23 -10q-52 14 -113 77.5t-98 135.5q-66 -74 -147.5 -136.5t-138.5 -76.5z" />
<glyph unicode="&#xf5;" horiz-adv-x="1064" d="M174 383q0 99 21 197t65.5 189t107 161t153.5 111.5t198 41.5q172 0 264 -107.5t92 -293.5q0 -99 -21 -197t-65.5 -189t-107 -161t-153 -111.5t-196.5 -41.5q-174 0 -266 106.5t-92 294.5zM326 295q0 -135 56 -213t159 -78q73 0 137.5 56.5t108.5 143.5t76.5 191.5 t47.5 201t15 171.5q0 138 -57 215.5t-160 77.5q-73 0 -137 -56.5t-108 -143.5t-76 -192t-47 -201.5t-15 -172.5zM475 1337q102 152 199 152q30 0 59 -17.5t48 -39t45.5 -39t52.5 -17.5q67 0 129 117l65 -47q-48 -69 -93 -102t-79 -33q-29 0 -56 20t-44.5 43.5t-42.5 43.5 t-51 20q-40 0 -79.5 -35.5t-90.5 -120.5z" />
<glyph unicode="&#xf6;" horiz-adv-x="1064" d="M176 383q0 82 15 164.5t44 161t75 146t104.5 119t137 80.5t167.5 29q172 0 264 -106.5t92 -294.5q0 -99 -21 -196.5t-65.5 -189t-107 -161t-153 -111.5t-196.5 -42q-174 0 -265 106.5t-91 294.5zM326 297q0 -136 57 -214.5t160 -78.5q72 0 136 56.5t108 143.5t76.5 191.5 t47.5 201.5t15 173q0 136 -57 214.5t-160 78.5q-72 0 -136 -56.5t-108 -143.5t-76.5 -191.5t-47.5 -201.5t-15 -173zM535 1352q0 55 27 94t79 39q72 0 72 -68q0 -55 -27.5 -95t-79.5 -40q-71 0 -71 70zM842 1352q0 55 26.5 94t79.5 39q70 0 70 -68q0 -55 -27.5 -95 t-79.5 -40q-69 0 -69 70z" />
<glyph unicode="&#xf7;" horiz-adv-x="749" d="M195 573l6 35h563l-6 -35h-563zM319 145q0 54 27 94t78 40q72 0 72 -70q0 -54 -27.5 -93.5t-79.5 -39.5q-70 0 -70 69zM455 915q0 53 27 93.5t77 40.5q72 0 72 -70q0 -55 -27 -94t-80 -39q-69 0 -69 69z" />
<glyph unicode="&#xf8;" horiz-adv-x="1064" d="M174 383q0 99 21 197t65.5 189t107 161t153.5 111.5t198 41.5q140 0 229 -73l103 166h30l-112 -185q106 -106 106 -309q0 -99 -21 -197t-65.5 -189t-107 -161t-153 -111.5t-196.5 -41.5q-100 0 -172 34l-71 -118h-31l80 131q-164 95 -164 354zM326 295q0 -134 51 -205 l522 840q-55 131 -190 131q-73 0 -137 -56.5t-108 -143.5t-76 -192t-47 -201.5t-15 -172.5zM393 68q58 -64 148 -64q73 0 137.5 56.5t108.5 143.5t76.5 191.5t47.5 201t15 171.5q0 66 -17 129z" />
<glyph unicode="&#xf9;" horiz-adv-x="1114" d="M242 385l73 410q17 101 9 156.5t-45 74.5v4q125 16 237 55h4l-119 -671q-55 -312 123 -312q60 0 120 60t108.5 156.5t86 200t62.5 208.5l14 88q24 160 66 215t131 55h4l-149 -852q-14 -71 -5 -117t42 -46q43 0 92 67l4 -4q-75 -143 -176 -143q-51 0 -77 34.5t-27 94 t11 137.5l54 315h-4q-24 -80 -51 -153t-68.5 -154.5t-87 -140t-106.5 -97t-126 -38.5q-132 0 -183 100.5t-17 296.5zM535 1481l120 80q18 -92 72.5 -195t110.5 -137l-23 -10q-73 20 -154 96.5t-126 165.5z" />
<glyph unicode="&#xfa;" horiz-adv-x="1114" d="M242 385l73 410q17 101 9 156.5t-45 74.5v4q125 16 237 55h4l-119 -671q-55 -312 123 -312q60 0 120 60t108.5 156.5t86 200t62.5 208.5l14 88q24 160 66 215t131 55h4l-149 -852q-14 -71 -5 -117t42 -46q43 0 92 67l4 -4q-75 -143 -176 -143q-51 0 -77 34.5t-27 94 t11 137.5l54 315h-4q-24 -80 -51 -153t-68.5 -154.5t-87 -140t-106.5 -97t-126 -38.5q-132 0 -183 100.5t-17 296.5zM700 1229q68 34 159 137t142 195l91 -80q-74 -89 -182 -165.5t-189 -96.5z" />
<glyph unicode="&#xfb;" horiz-adv-x="1114" d="M242 385l73 410q17 101 9 156.5t-45 74.5v4q125 16 237 55h4l-119 -671q-55 -312 123 -312q60 0 120 60t108.5 156.5t86 200t62.5 208.5l14 88q24 160 66 215t131 55h4l-149 -852q-14 -71 -5 -117t42 -46q43 0 92 67l4 -4q-75 -143 -176 -143q-51 0 -77 34.5t-27 94 t11 137.5l54 315h-4q-24 -80 -51 -153t-68.5 -154.5t-87 -140t-106.5 -97t-126 -38.5q-132 0 -183 100.5t-17 296.5zM498 1229q119 61 282 303h78q83 -246 178 -303l-22 -10q-52 14 -113 77.5t-98 135.5q-65 -73 -147.5 -136t-139.5 -77z" />
<glyph unicode="&#xfc;" horiz-adv-x="1114" d="M244 385l71 412q37 194 -34 229v4q129 17 235 57h4l-119 -671q-52 -312 123 -312q60 0 120 59.5t108.5 156t86 200.5t62.5 209l14 86q24 161 65.5 216.5t131.5 55.5h4l-151 -851q-13 -72 -3.5 -119t42.5 -47q44 0 92 69l4 -4q-76 -145 -176 -145q-137 0 -93 268l54 313 h-4q-19 -65 -41 -125.5t-52.5 -129.5t-66.5 -124.5t-78 -102.5t-93 -73t-106 -26q-134 0 -184.5 99.5t-15.5 295.5zM547 1352q0 55 27 94t79 39q70 0 70 -68q0 -55 -27.5 -95t-79.5 -40q-69 0 -69 70zM854 1352q0 55 26 94t78 39q70 0 70 -68q0 -55 -27 -95t-77 -40 q-70 0 -70 70z" />
<glyph unicode="&#xfd;" horiz-adv-x="854" d="M-100 -379q0 69 51.5 124t138.5 58v-4q-27 -13 -43 -46t-16 -70q0 -47 25.5 -80t74.5 -33q61 0 125.5 41.5t110.5 101.5t76 126t30 114q0 232 -58 523t-126 448q-50 119 -103 139l2 4q66 14 115 14q61 0 95.5 -37.5t58.5 -119.5q58 -166 90.5 -459t19.5 -459h4 q74 136 127 281t78.5 269t36 217.5t10.5 168.5q0 72 -43 121v4q44 6 74 6q107 0 107 -86q0 -138 -122.5 -476t-289.5 -605q-120 -193 -249.5 -307.5t-248.5 -114.5q-73 0 -112 39.5t-39 97.5zM565 1231q69 34 160 136t141 194l90 -80q-74 -89 -181.5 -165.5t-188.5 -96.5z " />
<glyph unicode="&#xfe;" horiz-adv-x="1069" d="M8 -508q83 32 117 229l274 1563q18 99 10 155t-44 74v5q98 5 231 32h4l-149 -839l-52 -256h9q35 104 68.5 186.5t78.5 170t91 145.5t104 95.5t120 37.5q104 0 171 -75t67 -237q0 -76 -14 -162t-41.5 -175t-72 -169.5t-99.5 -144.5t-130.5 -101.5t-160.5 -37.5 q-83 0 -146.5 45.5t-85.5 132.5l-77 -445q-20 -98 -8 -155t63 -74v-4h-328v4zM371 238q11 -111 65 -163t131 -52q72 0 136.5 56t108.5 142t76 188.5t47 195.5t15 163q0 124 -42 184t-113 60q-37 0 -75 -26.5t-74 -76.5t-69.5 -111t-67.5 -141.5t-62.5 -156t-59.5 -166.5z " />
<glyph unicode="&#xff;" horiz-adv-x="854" d="M-100 -379q0 69 51.5 124t138.5 58v-4q-27 -13 -43 -46t-16 -70q0 -47 25.5 -80t74.5 -33q81 0 162.5 69.5t129.5 158.5t48 155q0 233 -57.5 524t-124.5 447q-50 119 -103 139l2 4q63 14 115 14q61 0 95.5 -37.5t58.5 -119.5q57 -167 90 -460.5t20 -457.5h2 q75 136 128 281t78.5 269t36.5 217t11 169q0 72 -43 121v4q44 6 74 6q107 0 107 -86q0 -138 -122.5 -476t-289.5 -605q-120 -193 -249.5 -307.5t-248.5 -114.5q-73 0 -112 39.5t-39 97.5zM444 1352q0 55 27 94t80 39q70 0 70 -68q0 -55 -27.5 -95t-79.5 -40q-70 0 -70 70z M750 1352q0 55 27.5 94t80.5 39q70 0 70 -68q0 -55 -27.5 -95t-79.5 -40q-71 0 -71 70z" />
<glyph unicode="&#x152;" horiz-adv-x="1710" d="M211 518q0 107 20 215t58 212t98.5 194.5t137 159t179 108t218.5 39.5q39 0 117 -6t104 -6h649l-25 -357h-4q-28 183 -102 253.5t-252 70.5h-154l-114 -653h145q58 0 94 4t72.5 16.5t60.5 37.5t46.5 66.5t42.5 104.5h4l-86 -485h-4q2 52 -2 89.5t-17 63t-29.5 40.5 t-46.5 23t-60.5 10.5t-78.5 2.5h-145l-121 -684h209q131 0 215.5 36t148 117.5t129.5 235.5h4l-108 -426h-725q-24 0 -85.5 -5t-96.5 -5q-242 0 -369 139.5t-127 388.5zM385 487q0 -215 87.5 -337.5t244.5 -131.5l63 5q77 38 109 210l170 967q12 71 12 119q0 61 -20 90 q-38 14 -125 14q-107 0 -199.5 -67t-153.5 -170.5t-105 -231t-63.5 -247.5t-19.5 -220z" />
<glyph unicode="&#x153;" horiz-adv-x="1613" d="M188 532q42 252 182.5 401.5t348.5 149.5q130 0 210 -73.5t99 -204.5h4q64 130 164 204t217 74q144 0 201.5 -75.5t34.5 -204.5q-12 -70 -59.5 -130.5t-111 -100t-142 -70t-148 -45.5t-133.5 -21q-31 -393 219 -393q103 0 188.5 65t143.5 185h12q-65 -152 -171.5 -231.5 t-238.5 -79.5q-122 0 -190.5 69t-83.5 195h-4q-64 -124 -168 -194t-230 -70q-208 0 -297.5 148.5t-46.5 401.5zM350 532q-39 -245 11 -386.5t182 -141.5q127 0 223.5 142.5t136.5 385.5q37 247 -12.5 388t-181.5 141q-129 0 -225.5 -143t-133.5 -386zM1055 449 q73 22 143.5 53.5t145 78.5t126 113.5t64.5 141.5q18 99 -16 162t-109 63q-114 0 -206.5 -131.5t-127.5 -343.5q-13 -65 -20 -137z" />
<glyph unicode="&#x178;" horiz-adv-x="1040" d="M252 1432v4h432v-4q-95 -18 -113.5 -66.5t19.5 -165.5l143 -434h4l273 397q71 107 71 172q0 83 -133 97l2 4h340v-4q-41 -19 -108 -91.5t-138 -177.5l-290 -424l-90 -503q-21 -99 -2.5 -156.5t88.5 -73.5v-4h-414v4q76 16 112 70t54 160l82 462l-170 502 q-36 108 -74.5 160t-87.5 72zM623 1679q0 55 26 94t78 39q72 0 72 -71q0 -52 -28 -91.5t-79 -39.5q-69 0 -69 69zM940 1679q0 55 26 94t78 39q72 0 72 -71q0 -52 -27.5 -91.5t-78.5 -39.5q-70 0 -70 69z" />
<glyph unicode="&#x2c6;" horiz-adv-x="770" d="M334 1229q119 61 282 303h78q83 -246 178 -303l-22 -10q-52 14 -113 77.5t-98 135.5q-65 -73 -147.5 -136t-139.5 -77z" />
<glyph unicode="&#x2dc;" horiz-adv-x="729" d="M311 1337q102 152 199 152q30 0 59 -17.5t48 -39t45.5 -39t52.5 -17.5q67 0 129 117l65 -47q-48 -69 -93 -102t-79 -33q-29 0 -56 20t-44.5 43.5t-42.5 43.5t-51 20q-40 0 -79.5 -35.5t-90.5 -120.5z" />
<glyph unicode="&#x2000;" horiz-adv-x="944" />
<glyph unicode="&#x2001;" horiz-adv-x="1888" />
<glyph unicode="&#x2002;" horiz-adv-x="944" />
<glyph unicode="&#x2003;" horiz-adv-x="1888" />
<glyph unicode="&#x2004;" horiz-adv-x="629" />
<glyph unicode="&#x2005;" horiz-adv-x="472" />
<glyph unicode="&#x2006;" horiz-adv-x="314" />
<glyph unicode="&#x2007;" horiz-adv-x="314" />
<glyph unicode="&#x2008;" horiz-adv-x="236" />
<glyph unicode="&#x2009;" horiz-adv-x="377" />
<glyph unicode="&#x200a;" horiz-adv-x="104" />
<glyph unicode="&#x2010;" horiz-adv-x="651" d="M190 553l5 35h469l-7 -35h-467z" />
<glyph unicode="&#x2011;" horiz-adv-x="651" d="M190 553l5 35h469l-7 -35h-467z" />
<glyph unicode="&#x2012;" horiz-adv-x="651" d="M190 553l5 35h469l-7 -35h-467z" />
<glyph unicode="&#x2013;" horiz-adv-x="905" d="M190 553l5 35h723l-7 -35h-721z" />
<glyph unicode="&#x2014;" horiz-adv-x="1728" d="M190 553l5 35h1544l-4 -35h-1545z" />
<glyph unicode="&#x2018;" horiz-adv-x="468" d="M317 1110q0 126 92.5 238t215.5 147l-4 -16q-86 -29 -153 -107.5t-85 -165.5q31 17 59 17q34 0 57 -19.5t23 -56.5q0 -54 -33.5 -91.5t-87.5 -37.5q-84 0 -84 92z" />
<glyph unicode="&#x2019;" horiz-adv-x="468" d="M287 1018l4 16q88 29 155 107.5t82 165.5q-31 -17 -59 -17q-33 0 -56.5 20t-23.5 56q0 53 33.5 91t87.5 38q86 0 86 -90q0 -122 -94.5 -237t-214.5 -150z" />
<glyph unicode="&#x201a;" horiz-adv-x="468" d="M74 -201l2 19q87 29 154 107t85 165q-29 -16 -59 -16q-33 0 -56.5 20t-23.5 56q0 53 33.5 91t87.5 38q40 0 63 -23.5t23 -67.5q0 -121 -95 -237t-214 -152z" />
<glyph unicode="&#x201c;" horiz-adv-x="745" d="M317 1110q0 126 92.5 238t215.5 147l-4 -16q-86 -29 -153 -107.5t-85 -165.5q31 17 59 17q34 0 57 -19.5t23 -56.5q0 -54 -33.5 -91.5t-87.5 -37.5q-84 0 -84 92zM594 1110q0 126 92 238t215 147l-4 -16q-86 -29 -153 -107.5t-85 -165.5q31 17 60 17q34 0 57 -19.5 t23 -56.5q0 -54 -33.5 -91.5t-87.5 -37.5q-84 0 -84 92z" />
<glyph unicode="&#x201d;" horiz-adv-x="745" d="M287 1018l4 16q88 29 155 107.5t82 165.5q-31 -17 -59 -17q-33 0 -56.5 20t-23.5 56q0 53 33.5 91t87.5 38q86 0 86 -90q0 -122 -94.5 -237t-214.5 -150zM563 1018l4 16q88 29 155.5 108t82.5 165q-31 -17 -60 -17q-33 0 -56 20t-23 56q0 53 33 91t87 38q86 0 86 -90 q0 -122 -94.5 -237t-214.5 -150z" />
<glyph unicode="&#x201e;" horiz-adv-x="745" d="M74 -201l2 19q87 29 154 107t85 165q-29 -16 -59 -16q-33 0 -56.5 20t-23.5 56q0 53 33.5 91t85.5 38q41 0 63.5 -23.5t22.5 -67.5q0 -122 -94 -237.5t-213 -151.5zM352 -201l2 19q87 29 154.5 107t85.5 165q-29 -16 -59 -16q-33 0 -56.5 20t-23.5 56q0 53 33 91t85 38 q41 0 63.5 -23.5t22.5 -67.5q0 -122 -94 -237.5t-213 -151.5z" />
<glyph unicode="&#x2022;" horiz-adv-x="784" d="M305 610q0 117 66 198t182 81q80 0 121 -41.5t41 -116.5q0 -117 -63.5 -201t-178.5 -84q-83 0 -125.5 43t-42.5 121z" />
<glyph unicode="&#x2026;" horiz-adv-x="1409" d="M162 55q0 54 26.5 93.5t77.5 39.5q72 0 72 -69q0 -55 -27 -94t-80 -39q-69 0 -69 69zM631 55q0 54 26.5 93.5t77.5 39.5q72 0 72 -69q0 -55 -27 -94t-80 -39q-69 0 -69 69zM1102 55q0 54 26.5 93.5t77.5 39.5q72 0 72 -69q0 -55 -27 -94t-80 -39q-69 0 -69 69z" />
<glyph unicode="&#x202f;" horiz-adv-x="377" />
<glyph unicode="&#x2039;" horiz-adv-x="571" d="M201 608l6 37l430 426l-12 -63l-387 -375v-4l266 -318l-12 -65z" />
<glyph unicode="&#x203a;" horiz-adv-x="571" d="M166 246l12 65l379 318v4l-256 375l10 63l281 -426l-6 -37z" />
<glyph unicode="&#x205f;" horiz-adv-x="472" />
<glyph unicode="&#x20ac;" horiz-adv-x="1247" d="M133 582l6 34h142q8 93 34 209h-139l6 33h144q35 123 89 226.5t131 189t183.5 134t231.5 48.5q75 0 136 -24t97 -61.5t55 -79t19 -81.5q0 -59 -40.5 -87.5t-101.5 -28.5q7 51 7 82q0 114 -50 185t-141 71q-77 0 -146.5 -47.5t-123 -130.5t-94.5 -181.5t-72 -214.5h553 l-6 -33h-557q-29 -132 -41 -209h530l-6 -34h-528q-15 -111 -15 -203q0 -177 64.5 -274t191.5 -97q105 0 188 96t115 242q52 0 81.5 -14.5t29.5 -57.5q0 -40 -31 -89.5t-84 -94.5t-134 -75.5t-169 -30.5q-206 0 -311 131.5t-105 367.5q0 33 4 99h-143z" />
<glyph unicode="&#x2122;" horiz-adv-x="1472" d="M289 1202l63 232h475l-18 -232h-2q-6 126 -34.5 170.5t-117.5 44.5h-24l-96 -543q-10 -54 2 -80t61 -34v-2h-254v2q55 8 76 34t31 80l96 543h-27q-87 0 -132 -44.5t-97 -170.5h-2zM817 758v2q42 16 60 114l77 443q17 98 -18 115v2h68q24 0 30 -21l162 -539h2l328 560h121 v-2q-42 -17 -60 -115l-78 -443q-18 -96 19 -114v-2h-195v2q44 9 64.5 37t29.5 86l89 497h-3l-346 -618h-16q-11 0 -19 9.5t-11.5 19t-8.5 28.5l-141 484h-4l-64 -390q-8 -72 10 -108t78 -45v-2h-174z" />
<glyph unicode="&#x25fc;" horiz-adv-x="1085" d="M0 0v1085h1085v-1085h-1085z" />
</font>
</defs>
</svg>
