<?xml version="1.0" encoding="utf-8"?>
<!-- Generator: Adobe Illustrator 22.0.1, SVG Export Plug-In . SVG Version: 6.00 Build 0)  -->
<svg version="1.1" id="Capa_1" xmlns="http://www.w3.org/2000/svg" xmlns:xlink="http://www.w3.org/1999/xlink" x="0px" y="0px"
	 viewBox="0 0 1920 878.5" style="enable-background:new 0 0 1920 878.5;" xml:space="preserve">
<style type="text/css">
	.st0{fill:#FFFFFF;}
	.st1{display:none;}
	.st2{display:inline;}
	.st3{fill:url(#SVGID_1_);}
	.st4{fill:url(#SVGID_2_);}
	.st5{fill:url(#SVGID_3_);}
	.st6{fill:url(#SVGID_4_);}
	.st7{fill:url(#SVGID_5_);}
	.st8{fill:url(#SVGID_6_);}
	.st9{fill:url(#SVGID_7_);}
	.st10{opacity:0.3;fill:#FFE998;enable-background:new    ;}
	.st11{fill:url(#SVGID_8_);}
	.st12{fill:url(#SVGID_9_);}
	.st13{fill:url(#SVGID_10_);}
	.st14{fill:url(#SVGID_11_);}
	.st15{fill:url(#SVGID_12_);}
	.st16{fill:url(#SVGID_13_);}
	.st17{fill:url(#SVGID_14_);}
	.st18{fill:url(#SVGID_15_);}
	.st19{fill:url(#SVGID_16_);}
	.st20{fill:url(#SVGID_17_);}
	.st21{fill:url(#SVGID_18_);}
	.st22{fill:url(#SVGID_19_);}
	.st23{fill:url(#SVGID_20_);}
	.st24{fill:url(#SVGID_21_);}
	.st25{display:inline;fill:url(#SVGID_22_);}
	.st26{display:inline;fill:url(#SVGID_23_);}
	.st27{display:inline;fill:url(#SVGID_24_);}
	.st28{display:inline;fill:url(#SVGID_25_);}
	.st29{display:inline;fill:url(#SVGID_26_);}
	.st30{display:inline;fill:url(#SVGID_27_);}
</style>
<g id="Capa_1_1_">
	<g>
		<g>
			<path class="st0" d="M990.7,51.2c0,2.7-1.6,5.4-4.3,6.5c-0.5,0-1.6,0.5-2.2,0.5c-2.7,0-5.9-1.6-7-4.3c0-1.1-2.7-6.5-8.6-13.5
				c-10.2-10.8-28-19.9-53.9-19.9c-32.9,0-78.7,15.6-139.1,64.1c-104.6,84.6-193,187-193,187l-13.5,16.2l-8.1,35.6
				c0,0-2.2,8.6-3.2,11.9c-7.5,30.2-26.4,110.5-33.4,179c-1.6,16.2-2.7,33.4-2.7,50.7c0,88.9,19.4,186,90.6,245.3
				c35.6,29.6,90.6,44.7,135.8,44.7c16.2,0,30.7-2.2,43.1-5.9c49.1-16.2,88.4-55,94.9-105.1c0.5-4.9,1.1-9.7,1.1-14.6
				c0-38.3-19.4-73.3-52.8-92.7c-10.2-5.9-21-9.7-31.8-12.4c-7.5-1.6-14-2.2-21-2.2c-48.5,0-81,33.7-81,33.7c-4.1,3.1-10.2,5-15,5
				c-4.1,0-7.5-1.3-10.2-3.8c-2.1-1.9-2.7-5-2.7-8.2c0-5.6,2.7-11.9,12.3-17.6c39.6-27,78.9-23.8,90.8-23.8c1.6,0,2.7,0,2.7,0
				c22.1,0.5,43.7,5.9,63.1,17.2c37.2,22.1,59.3,60.9,59.3,104c0,5.4-0.5,11.3-1.1,16.7c-7,55-43.1,100.3-95.4,121.3
				c-20.5,8.1-42,11.9-64.1,11.9c-49.6,0-118-19.4-163.9-58.2c-75.5-64.1-96.5-164.9-96.5-256c0-109.4,29.6-204.8,30.7-208.1
				l5.4-20.5l-6.5,6.5c-14,15.1-28,32.3-41,48L431.3,436c-93.9,116.5-182.3,227-316,227c-65.8,0-89.5-35.6-89.5-40.4
				c-0.5-1.1-0.5-1.6-0.5-2.7c0-2.7,1.6-5.4,3.8-6.5c1.1-0.5,2.2-0.5,3.2-0.5c2.2,0,5.9,3.8,6.5,4.3c1.6,2.7,9.7,15.6,32.9,24.3
				c10.2,2.2,21,3.2,31.3,3.2c80.3,0,153.1-67.4,225.8-141.2c66.8-67.4,131.5-136.4,197.8-208.1c1.1-2.7,1.6-5.9,2.2-8.6
				c10.8-44.2,16.2-81.9,16.2-113.7c0-114.8-63.6-156.3-135.8-156.3c-41,0-84.6,13.5-120.7,34c-55,31.3-113.7,81.4-161.2,146.1
				C80.9,259.8,55.5,326.6,48,352.5c-7.5,25.3-10.8,46.4-10.8,64.1c0,44.2,19.4,64.7,36.1,69c6.5,1.6,13.5,2.7,19.9,2.7
				c30.2,0,60.9-16.2,89.5-41c40.4-35,71.7-85.7,90-131c14.6-36.7,13.4-73.8,13.4-73.8c0.7-16,7.6-23.3,20.1-23.3
				c8.3,0.7,14.5,6.7,14.5,18.7c0,3.3-0.7,6.7-1.4,10.7c-14.5,56.7-89.3,177.2-128,209.6c-39.9,33.3-67.9,42.6-103.5,45.3
				c-2.2,0-4.3,0.5-6.5,0.5c-30.7,0-81.4-18.3-81.4-97c0,0,4.3-181.1,173-316.4c23.2-18.3,48-35,79.8-52.3C253.2,37.8,319,0,397.7,0
				c34.5,0,71.7,7.5,106.7,28c57.7,33.4,76,94.3,76,160.1c0,21.6-2.2,44.2-5.4,66.3C663,146.6,763.2,0,892.6,0
				c77.1,0,97,46.4,97.6,48.5C990.7,49.6,990.7,50.1,990.7,51.2z"/>
			<path class="st0" d="M778.9,414.8c0,1.1,0,2.2-0.5,3.2c-33.4,59.3-73.8,123.4-125.6,123.4c-35.6,0-58.2-18.3-58.2-52.8
				c0-19.9,7.5-45.8,24.8-76.5L698,270.9h44.2l-76.5,137.4c-20.5,37.7-32.3,64.7-35.6,83c0,1.6-0.5,3.2-0.5,5.4
				c0,10.2,4.3,24.8,20.5,27.5c1.6,0.5,3.2,0.5,5.4,0.5c11.9,0,28-5.9,46.9-23.7c22.1-21.6,43.7-54.4,63.6-90
				c1.6-2.2,3.8-3.2,6.5-3.2c1.1,0,2.2,0,3.2,0.5C777.8,410,778.9,412.1,778.9,414.8z M744.9,240.7c-2.7,0-5.9-0.5-8.6-1.6
				c-8.1-3.2-12.9-10.8-12.9-19.9c0-5.9,2.2-12.4,5.4-18.9c8.6-15.6,22.1-24.8,34-24.8c2.7,0,5.4,0.5,7.5,1.6
				c8.1,3.2,12.4,10.8,12.4,19.9c0,5.9-1.6,12.4-5.4,18.9C769.7,230.5,758.4,240.7,744.9,240.7z"/>
			<path class="st0" d="M1200.4,414.3c0,1.1,0,2.2-0.5,3.2c-45.3,81.4-93.8,124-147.7,124c-24.3,0-39.9-8.1-45.8-19.4
				c-3.2-5.9-4.9-12.9-4.9-20.5c0-27.5,21-65.8,60.4-118c18.3-23.7,37.2-48,51.2-76.5c0.5-1.1,4.3-8.6,4.3-14.6
				c0-2.2-0.5-4.3-2.2-5.9c-2.7-2.7-6.5-3.2-9.7-3.2c-1.6,0-3.8,0.5-4.8,0.5c-14,2.2-28,9.7-42.6,20.5
				c-59.3,43.1-101.3,109.4-119.7,141.8l-51.2,91.1H843c101.9-182.7,101.9-182.7,101.9-182.7c11.9-20.5,22.6-47.4,22.6-60.9
				c0-2.7-0.5-4.9-1.6-6.5c-2.7-2.7-6.5-3.8-9.7-3.8c-1.6,0-3.2,0.5-4.3,0.5c-14,2.2-28.6,9.7-43.1,20.5
				c-55,39.9-95.9,99.2-115.3,133.7L738,537.3h-44.2L842.6,271h44.7l-39.9,71.1c35-39.3,77.1-75.5,115.3-75.5
				c11.9,0,23.7,2.2,29.6,11.9c3.8,5.9,5.9,12.9,5.9,21.6c0,15.6-6.5,36.1-18.9,63.1c37.2-46.9,87.3-96.5,132.6-96.5
				c11.9,0,23.7,2.2,29.6,11.9c3.2,4.9,4.9,10.8,4.9,18.9c0,18.9-10.2,48.5-42,93.8c-21,30.2-46.9,65.2-59.3,91.1
				c-4.3,9.2-6.5,16.7-6.5,22.6c0,13.5,9.7,19.4,23.7,19.4c14.6,0,34-7,51.2-20.5c24.8-19.4,50.1-49.6,74.4-92.7
				c1.1-2.7,3.2-3.8,5.4-3.8c1.1,0,2.7,0.5,3.8,1.1C1199.3,409.5,1200.4,411.6,1200.4,414.3z"/>
			<path class="st0" d="M1382.6,412.1c0,1.1,0,2.2-0.5,3.2c-35,62-81.9,126.1-161.7,126.1c-64.1,0-77.1-39.3-77.1-69.5
				c0-5.4,0.5-10.2,1.1-14.6c4.3-30.2,15.6-56.6,35.6-90c24.3-39.9,74.4-100.8,128.3-100.8c6.5,0,29.1,0,41.5,18.3
				c4.8,6.5,7.5,15.6,7.5,25.3c0,9.2-2.2,19.4-7.5,29.6c-32.9,64.1-100.8,75.5-148.8,78.2c-2.7,5.4-4.9,11.3-7,16.7
				c-5.9,16.2-8.6,30.2-8.6,41.5c0,33.4,21.6,48,49.1,48h4.3c45.8-2.2,87.3-37.7,131.5-115.4c1.1-2.2,3.2-3.2,5.9-3.2
				c1.1,0,2.2,0,3.2,0.5C1381.5,407.3,1382.6,409.5,1382.6,412.1z M1208,404.1c35-3.8,93.2-18.3,117.5-69.5c4.9-10.8,7-20.5,7-28
				c0-14.6-7.5-22.6-19.4-22.6C1285.6,283.9,1234.9,357.7,1208,404.1z"/>
			<path class="st0" d="M1656.4,414.3c0,1.1,0,2.2-0.5,3.2c-45.8,81.4-93.2,124-147.2,124c-24.3,0-39.9-8.1-45.8-19.4
				c-3.2-5.9-4.9-12.9-4.9-20.5c0-27.5,21-66.3,60.4-118l5.9-7.5c18.3-23.7,48-61.4,48-82.5c0-6.5-3.2-10.2-10.2-10.2
				c-1.6,0-3.2,0.5-4.8,0.5c-14,2.2-28,9.7-43.1,20.5c-62,45.3-106.2,115.9-122.9,146.1c0,0.5-0.5,1.1-49.1,86.8H1298L1446.8,271
				h44.7l-42,75.5c35-41,79.2-79.8,119.1-79.8c11.3,0,23.2,2.2,29.1,11.9c3.2,4.9,5.4,10.8,5.4,19.4c0,18.9-10.8,48.5-42,93.2
				c-21,30.2-46.9,65.2-59.3,91.1c-4.3,9.2-6.5,16.7-6.5,22.6c0,13.5,9.7,19.4,23.2,19.4c14.6,0,33.4-7,51.2-20.5
				c24.8-19.4,50.1-49.6,73.8-92.7c1.6-2.7,3.8-3.8,5.9-3.8c1.1,0,2.7,0.5,3.8,1.1C1655.3,409.5,1656.4,411.6,1656.4,414.3z"/>
			<path class="st0" d="M1920,414.8c0,1.1,0,2.2-0.5,3.2c-33.4,59.8-73.3,123.4-127.2,123.4c-35.6,0-57.7-17.8-57.7-51.2
				c0-2.7,0-5.9,0.5-9.2c-27.5,37.2-56.6,59.8-84.1,60.4h-2.2c-38.8,0-52.3-30.2-52.3-59.3c0-4.3,0-8.1,0.5-11.9
				c4.3-30.7,17.2-67.4,38.3-101.3c48-78.7,93.3-102.4,126.7-102.4c9.2,0,17.2,2.2,24.3,4.9c15.1,5.9,21.6,19.4,21.6,38.3
				c0,6.5-0.5,13.5-2.2,21l33.4-59.8h44.7l-77.1,137.4c-23.2,41-32.3,64.7-35.6,83.5c0,1.6-0.5,3.2-0.5,5.4
				c0,10.2,4.3,23.7,20.5,27.5c2.2,0.5,4.3,0.5,6.5,0.5c11.9,0,27.5-6.5,45.8-23.7c22.1-21.6,43.7-54.4,63.6-90
				c1.6-2.7,3.8-3.8,5.9-3.8c1.1,0,2.7,0.5,3.8,1.1C1918.9,410,1920,412.1,1920,414.8z M1749.7,433.7
				c13.5-24.3,43.7-85.2,43.7-121.8c0-11.9-3.2-21.6-11.3-26.4c-2.7-1.6-6.5-2.7-9.7-2.7c-25.9,0-64.7,44.7-93.8,93.2
				c-19.4,32.9-34.5,66.8-38.8,95.9c-1.1,5.9-1.6,11.9-1.6,16.7c0,22.1,9.7,32.9,23.2,32.9c7.5,0,16.7-3.8,26.4-10.8
				C1708.2,495.7,1729.7,468.7,1749.7,433.7z"/>
		</g>
		<g>
			<path class="st0" d="M1232,656.6c0,0,0,0.2,0,0.7c0,0.4-0.3,0.7-0.9,0.8c-3.1,0.1-5.7,1.5-7.9,4.2c-2.2,2.7-4.6,7.4-7.2,14.1
				l-38.6,99.3c-0.1,0.3-0.2,0.7-0.2,1.3s0.1,1.2,0.4,1.7l0.9,1.9c0.2,0.7,0.4,1.2,0.4,1.3c0,0.9-0.5,1.4-1.5,1.7l-17,6.5
				c-0.7,0.2-1.2,0.4-1.3,0.4c-1,0-1.7-0.6-2.2-1.9l-43.6-112.3c-2.7-6.8-5.1-11.6-7.1-14.2c-2-2.6-4.5-4-7.5-4.1
				c-0.5-0.1-0.7-0.4-0.7-0.8c0-0.4,0.2-0.7,0.7-0.7c3.7,0.4,6.5,0.6,8.2,0.6h30c2.6,0,7.1-0.2,13.4-0.6c1,0,1.5,0.3,1.5,0.7
				c0,0.5-0.5,0.7-1.5,0.7c-9.4,0.5-14.2,4-14.2,10.6c0,2.1,0.6,4.7,1.7,7.6l34.9,90.3c0.2,0.5,0.9,1.5,1.3,0.6l36.4-93.4
				c3.1-8.2,1.3-15.2-7.4-15.7c-0.7,0-1.1-0.2-1.1-0.7s0.4-0.7,1.3-0.7c5.6,0.4,9.7,0.6,12.3,0.6h6.7c1.7,0,4.7-0.2,8.8-0.6
				C1231.7,656.6,1232,656.6,1232,656.6z"/>
			<path class="st0" d="M1409.4,787.5c0,0.4-0.3,0.7-0.9,0.7c-3.7-0.4-6.4-0.6-8-0.6h-29.8c-2.6,0-7.1,0.2-13.4,0.6
				c-1,0-1.5-0.3-1.5-0.7c0-0.5,0.5-0.7,1.5-0.7c9.3-0.5,14-3.9,14-10.2c0-2.4-0.6-5-1.9-8l-9.3-22.2c-1-2-4.1-2.4-6.3-1.6
				c-10,3.4-32.2,10.8-49.7,13.5c-2.5,0.4-4.3,1.1-5.4,3.2l-3.2,7.6c-1.2,2.9-1.9,5.4-1.9,7.6c0,6.6,1.6,9.7,11.4,10.2
				c1,0,1.5,0.3,1.5,0.7c0,0.5-0.5,0.7-1.5,0.7c-6.3-0.4-11-0.6-14-0.6h-6.9c-1.6,0-5.6,0.2-9.3,0.6c-0.6,0-0.9-0.2-0.9-0.7
				c0-0.4,0.2-0.7,0.7-0.8c3-0.1,5.5-1.5,7.5-4s4.4-7.3,7.3-14.3l36.6-94.4c0.6-1.6,1.9-3.7,1.4-5.7c-0.9-3.4-2.8-7.6-2.8-7.6
				c-0.6-1.6-1.7-2.5-3.2-2.6c-0.4-0.1-0.5-0.3-0.3-0.6c0.2-0.2,0.5-0.4,1-0.4h22.9c0.9,0,1.6,0.2,2.1,0.5s0.9,0.8,1.3,1.6
				l45.3,109.2c2.9,6.8,5.3,11.6,7.3,14.2c2,2.6,4.5,4,7.5,4.1C1409.1,786.8,1409.4,787,1409.4,787.5z M1355.3,737.8
				c0.8-1.6,0.3-2.7,0.3-2.7l-24.1-58.1l-28.5,72.8c-0.1,0.3-0.2,0.6-0.2,1.1c0,0.7,0.4,2.3,2.4,2.2c9.5-0.2,40.3-9.4,47.8-13.1
				C1354.1,739.6,1354.8,738.8,1355.3,737.8z"/>
			<path class="st0" d="M1545.9,657.2c0.1,0.4-0.3,0.8-1,0.8c-6.3,0-11,3.3-11,19.2v110.9c0,0.9-0.4,1.3-1.1,1.3
				c-0.6,0-1.2-0.4-1.9-1.3l-91.7-114.8c-0.5-0.5-0.9-0.7-1.3-0.7c-0.5,0-0.7,0.4-0.7,1.1v94c0,6.8,0.3,19.2,11.4,19.2
				c0.7,0,1.1,0.2,1,0.7c-0.1,0.4-0.4,0.7-1,0.7l-10.8-0.6h-7.3l-10.6,0.6c-0.7,0-1.1-0.2-1.2-0.7c-0.1-0.4,0.3-0.7,1-0.7
				c10.8,0,11-12.4,11-19.2l0.1-104.2c-1.5-1.7-2.4-2.3-4.4-3.5s-4.4-1.9-7.2-2.1c-0.7,0-1.1-0.2-1-0.7c0.1-0.4,0.4-0.7,1-0.7
				l10.8,0.6h21.2c2.9,0,4.8,0.8,6,2.4l67.8,87.1c0.5,0.7,1,1.1,1.5,1.1c0.6,0,0.9-0.4,0.9-1.3v-69.2c0-16.3-5.4-19.2-11.6-19.2
				c-0.8,0-1.1-0.4-1-0.8c0.1-0.4,0.5-0.7,1.2-0.7c4.8,0.4,11,0.6,13.3,0.6h7.3c2,0,3.2-0.2,8.4-0.6
				C1545.5,656.6,1545.9,656.8,1545.9,657.2z M1454.9,649.7c-0.3,0-0.4-0.1-0.6-0.4c-0.1-0.2-0.1-0.6,0-1.1c2-6.1,4.6-10.6,7.8-13.5
				c3.2-2.9,7.2-4.4,11.9-4.4c3.6,0,7.6,0.8,11.9,2.4l8,3c3.7,1.5,7.1,2.2,10.1,2.2c5.2,0,9.2-2.6,11.9-7.8c0.4-0.5,0.7-0.7,1.1-0.7
				c0.6,0,0.7,0.5,0.4,1.5c-4,12.2-10.6,18.3-19.8,18.3c-3.1,0-7-0.8-11.6-2.4l-8.8-3.2c-5.6-2.1-9.9-3.2-13-3.2
				c-2.4,0-4.2,0.7-5.4,2c-1.2,1.3-2.3,3.4-3.2,6.2C1455.6,649.3,1455.3,649.7,1454.9,649.7z"/>
			<path class="st0" d="M1590.4,782.2c-9.9-5.6-17.7-13.4-23.3-23.4c-5.6-10-8.4-21.3-8.4-34s3.2-24.4,9.5-35.1
				c6.3-10.7,15.1-19.3,26.4-25.7c11.2-6.4,23.8-9.6,37.7-9.6c12.9,0,24.4,2.8,34.6,8.5c10.1,5.7,18,13.4,23.8,23.4
				c5.7,9.9,8.6,21.1,8.6,33.5c0,12.8-3.2,24.6-9.7,35.4c-6.5,10.8-15.4,19.4-26.7,25.8c-11.4,6.4-24.2,9.6-38.5,9.6
				C1611.6,790.6,1600.3,787.8,1590.4,782.2z M1666.7,772.4c6.5-7.1,9.8-17.1,9.8-29.8c0-12.4-2.8-24.9-8.3-37.6
				c-5.5-12.7-12.8-23.1-21.9-31.2c-9.1-8.1-18.7-12.2-28.7-12.2c-11.3,0-20.1,3.5-26.6,10.4s-9.7,16.6-9.7,29
				c0,12.5,2.7,25.2,8.2,38c5.4,12.8,12.6,23.3,21.5,31.6s18.4,12.5,28.5,12.5C1651.1,783.1,1660.2,779.5,1666.7,772.4z"/>
			<path class="st0" d="M1728.6,731.9c0.1,0,0.2,0.2,0.4,0.5c0.1,0.3,0.1,0.8,0,1.4c-0.3,3.7-0.4,6.4-0.4,8
				c0,15.2,3.2,26.6,9.7,34.3s15.9,11.6,28.3,11.6c7.5,0,13.9-1.7,19.4-5c5.5-3.4,8.2-9.4,8.2-18.1c0-8.1-2.9-14.9-8.7-20.4
				c-5.8-5.5-14-11.2-24.7-17.1c-8.2-4.6-14.9-8.8-20-12.5c-5.2-3.7-9.3-7.8-12.3-12.3s-4.6-9.4-4.6-14.7c0.1-5.6,2.3-10.9,6.4-16
				c4.2-5.1,10.1-9.2,17.8-12.4c7.7-3.2,16.5-4.8,26.5-4.8c6,0,12,0.8,18,2.5s11,4.1,14.9,7.2c3.9,3.1,5.9,6.6,5.9,10.6
				c0,0.5-0.1,1.4-0.4,2.6l-7.6,28.7c-0.1,0.7-0.4,1.1-0.9,1.1s-0.7-0.6-0.6-1.7c0.4-3,0.6-5.9,0.6-8.8c0-12-3.1-21.6-9.2-28.7
				c-6.1-7.1-14.8-10.6-26-10.6c-8.9,0-15.2,1.5-18.7,4.5s-5.3,7.6-5.3,14c0,4.4,1.3,8.3,3.9,11.7c2.6,3.5,6.1,6.7,10.3,9.6
				c4.3,2.9,10.3,6.6,18,10.9c8.2,4.4,14.9,8.4,20.2,12c5.3,3.7,9.7,8.2,13.3,13.5c3.6,5.3,5.4,11.5,5.4,18.4
				c0,7.3-2.2,13.9-6.6,19.8c-4.4,5.8-10.7,10.4-18.7,13.8c-8.1,3.4-17.4,5-28,5c-7.9,0-15.4-1.2-22.3-3.4c-6.9-2.3-12.3-5.3-16.3-9
				s-6-7.6-6-11.6c0-0.6,0.1-1.4,0.4-2.4l8.8-30.7C1727.9,732.4,1728.3,731.9,1728.6,731.9z"/>
			<path class="st0" d="M1093.2,786.6c-3.9-0.1-7.1-1.4-9.9-3.9c-2.7-2.5-6.1-7-10.1-13.4l-32-51.1l28-43
				c4.3-6.5,7.8-10.9,10.3-13.3c2.5-2.4,5.6-3.7,9.2-3.8c0.7-0.1,1.1-0.4,1-0.8c-0.1-0.4-0.4-0.7-1-0.7c-4.8,0.4-8.3,0.6-10.2,0.6
				h-7.5c-2.6,0-6.5-0.2-11.7-0.6c-0.9,0-1.3,0.3-1.3,0.7c0,0.5,0.4,0.7,1.1,0.7c3.4,0.1,10.3,0.5,10.3,5.4c0,2.2-2.4,5-4.6,8.5
				l-26.8,41.2l-23.7-37.7c-2.2-3.5-3.4-6.5-3.4-9.1s1.1-4.6,3.3-6s4.9-2.1,8.3-2.2c0.9-0.1,1.3-0.4,1.2-0.8
				c-0.1-0.4-0.5-0.7-1.2-0.7c-5.6,0.4-9.5,0.6-11.7,0.6h-32.6c-2,0-5.6-0.2-10.8-0.6c-0.6,0-1,0.2-1,0.7c-0.1,0.4,0.3,0.7,1,0.8
				c3.8,0.1,7.1,1.4,9.9,3.9c2.7,2.5,6.1,7,10.1,13.4l30,47.6l-30.1,46.5c-4.3,6.5-7.8,10.9-10.3,13.3c-2.5,2.4-5.6,3.7-9.2,3.8
				c-0.7,0.1-1.1,0.4-1,0.8c0.1,0.4,0.4,0.7,1,0.7c4.8-0.4,8.3-0.6,10.2-0.6h7.5c2.6,0,6.5,0.2,11.7,0.6c0.9,0,1.3-0.3,1.3-0.7
				c0-0.5-0.4-0.7-1.1-0.7c-3.4-0.1-10.3-0.5-10.3-5.4c0-2.2,2.4-5,4.6-8.5l29-44.7l25.9,41.2c2.2,3.7,3.4,6.8,3.4,9.1
				c0,2.6-1.1,4.6-3.2,6s-4.7,2.1-7.8,2.2c-0.9,0.1-1.3,0.4-1.2,0.8c0.1,0.4,0.5,0.7,1.2,0.7c5.2-0.4,8.9-0.6,11.2-0.6h32.4
				c2.4,0,6,0.2,10.8,0.6c0.6,0,1-0.2,1-0.7C1094.3,787,1093.9,786.8,1093.2,786.6z"/>
		</g>
	</g>
</g>
<g class="st1">
	<g class="st2">
		
			<radialGradient id="SVGID_1_" cx="1918.5116" cy="69.6766" r="2066.7529" gradientTransform="matrix(1 0 0 -1 0 880)" gradientUnits="userSpaceOnUse">
			<stop  offset="0" style="stop-color:#F5CB86"/>
			<stop  offset="0.2045" style="stop-color:#DAB171"/>
			<stop  offset="0.6416" style="stop-color:#94703C"/>
			<stop  offset="1" style="stop-color:#57370D"/>
		</radialGradient>
		<path class="st3" d="M515.8,335.8l-6.5,6.5c-14,15.1-28,32.3-41,48L431.2,436C337.4,552.4,249,662.9,115.3,662.9
			c-65.8,0-89.5-35.6-89.5-40.4c-0.5-1.1-0.5-1.6-0.5-2.7c0-2.7,1.6-5.4,3.8-6.5c1.1-0.5,2.2-0.5,3.2-0.5c2.2,0,5.9,3.8,6.5,4.3
			c1.6,2.7,9.7,15.6,32.9,24.3c10.2,2.2,21,3.2,31.3,3.2c80.3,0,153.1-67.4,225.8-141.2C395.6,436,460.3,367,526.6,295.3l48.5-41
			C663,146.6,763.2,0,892.6,0c77.1,0,97,46.4,97.6,48.5c0.5,1.1,0.5,1.6,0.5,2.7c0,2.7-1.6,5.4-4.3,6.5c-0.5,0-1.6,0.5-2.2,0.5
			c-2.7,0-5.9-1.6-7-4.3c0-1.1-2.7-6.5-8.6-13.5c-10.2-10.8-28-19.9-53.9-19.9c-32.9,0-78.7,15.6-139.1,64.1
			c-104.6,84.6-193,187-193,187l-13.5,16.2L515.8,335.8z"/>
		<g>
			
				<linearGradient id="SVGID_2_" gradientUnits="userSpaceOnUse" x1="39.3893" y1="191.7946" x2="539.6392" y2="545.0244" gradientTransform="matrix(1 0 0 -1 0 880)">
				<stop  offset="0" style="stop-color:#FFE998;stop-opacity:0.3"/>
				<stop  offset="0.1695" style="stop-color:#FCE696;stop-opacity:0.4243"/>
				<stop  offset="0.3156" style="stop-color:#F1DB8F;stop-opacity:0.5315"/>
				<stop  offset="0.4531" style="stop-color:#E0C983;stop-opacity:0.6324"/>
				<stop  offset="0.5853" style="stop-color:#C8B072;stop-opacity:0.7294"/>
				<stop  offset="0.7138" style="stop-color:#A8905C;stop-opacity:0.8236"/>
				<stop  offset="0.8377" style="stop-color:#826942;stop-opacity:0.9145"/>
				<stop  offset="0.9542" style="stop-color:#573D25"/>
			</linearGradient>
			<path class="st4" d="M515.8,335.8l-6.5,6.5c-14,15.1-28,32.3-41,48L431.2,436C337.4,552.4,249,662.9,115.3,662.9
				c-65.8,0-89.5-35.6-89.5-40.4c-0.5-1.1-0.5-1.6-0.5-2.7c0-2.7,1.6-5.4,3.8-6.5c1.1-0.5,2.2-0.5,3.2-0.5c2.2,0,5.9,3.8,6.5,4.3
				c1.6,2.7,9.7,15.6,32.9,24.3c10.2,2.2,21,3.2,31.3,3.2c80.3,0,153.1-67.4,225.8-141.2C395.6,436,460.3,367,526.6,295.3
				L515.8,335.8z"/>
		</g>
		<g>
			
				<linearGradient id="SVGID_3_" gradientUnits="userSpaceOnUse" x1="588.3571" y1="627.6201" x2="957.897" y2="884.6913" gradientTransform="matrix(1 0 0 -1 0 880)">
				<stop  offset="0" style="stop-color:#573D25"/>
				<stop  offset="4.129261e-02" style="stop-color:#644A2E;stop-opacity:0.9711"/>
				<stop  offset="0.2118" style="stop-color:#937A4E;stop-opacity:0.8518"/>
				<stop  offset="0.3813" style="stop-color:#BAA268;stop-opacity:0.7331"/>
				<stop  offset="0.5471" style="stop-color:#D8C17D;stop-opacity:0.617"/>
				<stop  offset="0.7078" style="stop-color:#EED78C;stop-opacity:0.5045"/>
				<stop  offset="0.8614" style="stop-color:#FBE495;stop-opacity:0.397"/>
				<stop  offset="1" style="stop-color:#FFE998;stop-opacity:0.3"/>
			</linearGradient>
			<path class="st5" d="M575.1,254.4C663,146.6,763.2,0,892.6,0c77.1,0,97,46.4,97.6,48.5c0.5,1.1,0.5,1.6,0.5,2.7
				c0,2.7-1.6,5.4-4.3,6.5c-0.5,0-1.6,0.5-2.2,0.5c-2.7,0-5.9-1.6-7-4.3c0-1.1-2.7-6.5-8.6-13.5c-10.2-10.8-28-19.9-53.9-19.9
				c-32.9,0-78.7,15.6-139.1,64.1c-104.6,84.6-193,187-193,187l-13.5,16.2L575.1,254.4z"/>
		</g>
		
			<radialGradient id="SVGID_4_" cx="1918.5116" cy="69.6766" r="2066.7529" gradientTransform="matrix(1 0 0 -1 0 880)" gradientUnits="userSpaceOnUse">
			<stop  offset="0" style="stop-color:#F5CB86"/>
			<stop  offset="0.2974" style="stop-color:#C9A365"/>
			<stop  offset="0.7749" style="stop-color:#886733"/>
			<stop  offset="1" style="stop-color:#6E4F20"/>
		</radialGradient>
		<path class="st6" d="M569.2,287.8l-8.1,35.6c0,0-2.2,8.6-3.2,11.9c-7.5,30.2-26.4,110.5-33.4,179c-1.6,16.2-2.7,33.4-2.7,50.7
			c0,88.9,19.4,186,90.6,245.3C648,839.9,703,855,748.2,855c16.2,0,30.7-2.2,43.1-5.9c49.1-16.2,88.4-55,94.9-105.1
			c0.5-4.9,1.1-9.7,1.1-14.6c0-38.3-19.4-73.3-52.8-92.7c-10.2-5.9-21-9.7-31.8-12.4c-7.5-1.6-14-2.2-21-2.2
			c-48.5,0-81,33.7-81,33.7c-4.1,3.1-10.2,5-15,5c-4.1,0-7.5-1.3-10.2-3.8c-2.1-1.9-2.7-5-2.7-8.2c0-5.6,2.7-11.9,12.3-17.6
			c39.6-27,78.9-23.8,90.8-23.8c1.6,0,2.7,0,2.7,0c22.1,0.5,43.7,5.9,63.1,17.2c37.2,22.1,59.3,60.9,59.3,104
			c0,5.4-0.5,11.3-1.1,16.7c-7,55-43.1,100.3-95.4,121.3c-20.5,8.1-42,11.9-64.1,11.9c-49.6,0-118-19.4-163.9-58.2
			C501,756.2,480,655.4,480,564.3c0-109.4,29.6-204.8,30.7-208.1l5.4-20.5l10.8-40.4c1.1-2.7,1.6-5.9,2.2-8.6
			c10.8-44.2,16.2-81.9,16.2-113.7c0-114.8-63.6-156.3-135.8-156.3c-41,0-84.6,13.5-120.7,34c-55,31.3-113.7,81.4-161.2,146.1
			c-46.7,63-72.1,129.8-79.6,155.7c-7.5,25.3-10.8,46.4-10.8,64.1c0,44.2,19.4,64.7,36.1,69c6.5,1.6,13.5,2.7,19.9,2.7
			c30.2,0,60.9-16.2,89.5-41c40.4-35,71.7-85.7,90-131c14.6-36.7,13.4-73.8,13.4-73.8c0.7-16,7.6-23.3,20.1-23.3
			c8.3,0.7,14.5,6.7,14.5,18.7c0,3.3-0.7,6.7-1.4,10.7c-14.5,56.7-89.3,177.2-128,209.6c-39.9,33.3-67.9,42.6-103.5,45.3
			c-2.2,0-4.3,0.5-6.5,0.5c-30.7,0-81.4-18.3-81.4-97c0,0,4.3-181.1,173-316.4c23.2-18.3,48-35,79.8-52.3C253.2,37.8,319,0,397.7,0
			c34.5,0,71.7,7.5,106.7,28c57.7,33.4,76,94.3,76,160.1c0,21.6-2.2,44.2-5.4,66.3L569.2,287.8z"/>
		<g>
			
				<linearGradient id="SVGID_5_" gradientUnits="userSpaceOnUse" x1="-10.3543" y1="-172.2612" x2="1015.0566" y2="991.2424" gradientTransform="matrix(1 0 0 -1 0 880)">
				<stop  offset="0" style="stop-color:#57370D"/>
				<stop  offset="7.023899e-02" style="stop-color:#5F4014;stop-opacity:0.9226"/>
				<stop  offset="0.1848" style="stop-color:#765827;stop-opacity:0.7965"/>
				<stop  offset="0.3294" style="stop-color:#9C8046;stop-opacity:0.6372"/>
				<stop  offset="0.4966" style="stop-color:#CFB670;stop-opacity:0.453"/>
				<stop  offset="0.6355" style="stop-color:#FFE998;stop-opacity:0.3"/>
			</linearGradient>
			<path class="st7" d="M569.2,287.8l-8.1,35.6c0,0-2.2,8.6-3.2,11.9c-7.5,30.2-26.4,110.5-33.4,179c-1.6,16.2-2.7,33.4-2.7,50.7
				c0,88.9,19.4,186,90.6,245.3C648,839.9,703,855,748.2,855c16.2,0,30.7-2.2,43.1-5.9c49.1-16.2,88.4-55,94.9-105.1
				c0.5-4.9,1.1-9.7,1.1-14.6c0-38.3-19.4-73.3-52.8-92.7c-10.2-5.9-21-9.7-31.8-12.4c-7.5-1.6-14-2.2-21-2.2
				c-48.5,0-81,33.7-81,33.7c-4.1,3.1-10.2,5-15,5c-4.1,0-7.5-1.3-10.2-3.8c-2.1-1.9-2.7-5-2.7-8.2c0-5.6,2.7-11.9,12.3-17.6
				c39.6-27,78.9-23.8,90.8-23.8c1.6,0,2.7,0,2.7,0c22.1,0.5,43.7,5.9,63.1,17.2c37.2,22.1,59.3,60.9,59.3,104
				c0,5.4-0.5,11.3-1.1,16.7c-7,55-43.1,100.3-95.4,121.3c-20.5,8.1-42,11.9-64.1,11.9c-49.6,0-118-19.4-163.9-58.2
				C501,756.2,480,655.4,480,564.3c0-109.4,29.6-204.8,30.7-208.1l5.4-20.5l10.8-40.4c1.1-2.7,1.6-5.9,2.2-8.6
				c10.8-44.2,16.2-81.9,16.2-113.7c0-114.8-63.6-156.3-135.8-156.3c-41,0-84.6,13.5-120.7,34c-55,31.3-113.7,81.4-161.2,146.1
				c-46.7,63-72.1,129.8-79.6,155.7c-7.5,25.3-10.8,46.4-10.8,64.1c0,44.2,19.4,64.7,36.1,69c6.5,1.6,13.5,2.7,19.9,2.7
				c30.2,0,60.9-16.2,89.5-41c40.4-35,71.7-85.7,90-131c14.6-36.7,13.4-73.8,13.4-73.8c0.7-16,7.6-23.3,20.1-23.3
				c8.3,0.7,14.5,6.7,14.5,18.7c0,3.3-0.7,6.7-1.4,10.7c-14.5,56.7-89.3,177.2-128,209.6c-39.9,33.3-67.9,42.6-103.5,45.3
				c-2.2,0-4.3,0.5-6.5,0.5c-30.7,0-81.4-18.3-81.4-97c0,0,4.3-181.1,173-316.4c23.2-18.3,48-35,79.8-52.3C253.2,37.8,319,0,397.7,0
				c34.5,0,71.7,7.5,106.7,28c57.7,33.4,76,94.3,76,160.1c0,21.6-2.2,44.2-5.4,66.3L569.2,287.8z"/>
		</g>
		
			<radialGradient id="SVGID_6_" cx="1918.5116" cy="69.6766" r="2066.7529" gradientTransform="matrix(1 0 0 -1 0 880)" gradientUnits="userSpaceOnUse">
			<stop  offset="0" style="stop-color:#C19E6B"/>
			<stop  offset="0.2931" style="stop-color:#A68353"/>
			<stop  offset="0.921" style="stop-color:#604015"/>
			<stop  offset="1" style="stop-color:#57370D"/>
		</radialGradient>
		<path class="st8" d="M778.9,414.8c0,1.1,0,2.2-0.5,3.2c-33.4,59.3-73.8,123.4-125.6,123.4c-35.6,0-58.2-18.3-58.2-52.8
			c0-19.9,7.5-45.8,24.8-76.5L698,270.9h44.2l-76.5,137.4c-20.5,37.7-32.3,64.7-35.6,83c0,1.6-0.5,3.2-0.5,5.4
			c0,10.2,4.3,24.8,20.5,27.5c1.6,0.5,3.2,0.5,5.4,0.5c11.9,0,28-5.9,46.9-23.7c22.1-21.6,43.7-54.4,63.6-90
			c1.6-2.2,3.8-3.2,6.5-3.2c1.1,0,2.2,0,3.2,0.5C777.8,409.9,778.9,412.1,778.9,414.8z M744.9,240.7c-2.7,0-5.9-0.5-8.6-1.6
			c-8.1-3.2-12.9-10.8-12.9-19.9c0-5.9,2.2-12.4,5.4-18.9c8.6-15.6,22.1-24.8,34-24.8c2.7,0,5.4,0.5,7.5,1.6
			c8.1,3.2,12.4,10.8,12.4,19.9c0,5.9-1.6,12.4-5.4,18.9C769.7,230.5,758.4,240.7,744.9,240.7z"/>
		<g>
			
				<linearGradient id="SVGID_7_" gradientUnits="userSpaceOnUse" x1="789.2426" y1="340.5445" x2="634.017" y2="532.2936" gradientTransform="matrix(1 0 0 -1 0 880)">
				<stop  offset="1.025391e-02" style="stop-color:#573D25"/>
				<stop  offset="0.3551" style="stop-color:#937A4E;stop-opacity:0.7561"/>
				<stop  offset="1" style="stop-color:#FFE998;stop-opacity:0.3"/>
			</linearGradient>
			<path class="st9" d="M778.9,414.8c0,1.1,0,2.2-0.5,3.2c-33.4,59.3-73.8,123.4-125.6,123.4c-35.6,0-58.2-18.3-58.2-52.8
				c0-19.9,7.5-45.8,24.8-76.5L698,270.9h44.2l-76.5,137.4c-20.5,37.7-32.3,64.7-35.6,83c0,1.6-0.5,3.2-0.5,5.4
				c0,10.2,4.3,24.8,20.5,27.5c1.6,0.5,3.2,0.5,5.4,0.5c11.9,0,28-5.9,46.9-23.7c22.1-21.6,43.7-54.4,63.6-90
				c1.6-2.2,3.8-3.2,6.5-3.2c1.1,0,2.2,0,3.2,0.5C777.8,409.9,778.9,412.1,778.9,414.8z"/>
		</g>
		<path class="st10" d="M744.9,240.7c-2.7,0-5.9-0.5-8.6-1.6c-8.1-3.2-12.9-10.8-12.9-19.9c0-5.9,2.2-12.4,5.4-18.9
			c8.6-15.6,22.1-24.8,34-24.8c2.7,0,5.4,0.5,7.5,1.6c8.1,3.2,12.4,10.8,12.4,19.9c0,5.9-1.6,12.4-5.4,18.9
			C769.7,230.5,758.4,240.7,744.9,240.7z"/>
		
			<radialGradient id="SVGID_8_" cx="1918.5116" cy="69.6766" r="2066.7529" gradientTransform="matrix(1 0 0 -1 0 880)" gradientUnits="userSpaceOnUse">
			<stop  offset="0" style="stop-color:#C19E6B"/>
			<stop  offset="0.2931" style="stop-color:#A68353"/>
			<stop  offset="0.921" style="stop-color:#604015"/>
			<stop  offset="1" style="stop-color:#57370D"/>
		</radialGradient>
		<path class="st11" d="M1200.4,414.3c0,1.1,0,2.2-0.5,3.2c-45.3,81.4-93.8,124-147.7,124c-24.3,0-39.9-8.1-45.8-19.4
			c-3.2-5.9-4.9-12.9-4.9-20.5c0-27.5,21-65.8,60.4-118c18.3-23.7,37.2-48,51.2-76.5c0.5-1.1,4.3-8.6,4.3-14.6
			c0-2.2-0.5-4.3-2.2-5.9c-2.7-2.7-6.5-3.2-9.7-3.2c-1.6,0-3.8,0.5-4.8,0.5c-14,2.2-28,9.7-42.6,20.5
			c-59.3,43.1-101.3,109.4-119.7,141.8l-51.2,91.1H843c101.9-182.7,101.9-182.7,101.9-182.7c11.9-20.5,22.6-47.4,22.6-60.9
			c0-2.7-0.5-4.9-1.6-6.5c-2.7-2.7-6.5-3.8-9.7-3.8c-1.6,0-3.2,0.5-4.3,0.5c-14,2.2-28.6,9.7-43.1,20.5
			c-55,39.9-95.9,99.2-115.3,133.7L738,537.3h-44.2L842.6,271h44.7l-40,71c35-39.3,77.1-75.5,115.3-75.5c11.9,0,23.7,2.2,29.6,11.9
			c3.8,5.9,5.9,12.9,5.9,21.6c0,15.6-6.5,36.1-18.9,63.1c37.2-46.9,87.3-96.5,132.6-96.5c11.9,0,23.7,2.2,29.6,11.9
			c3.2,4.9,4.9,10.8,4.9,18.9c0,18.9-10.2,48.5-42,93.8c-21,30.2-46.9,65.2-59.3,91.1c-4.3,9.2-6.5,16.7-6.5,22.6
			c0,13.5,9.7,19.4,23.7,19.4c14.6,0,34-7,51.2-20.5c24.8-19.4,50.1-49.6,74.4-92.7c1.1-2.7,3.2-3.8,5.4-3.8c1.1,0,2.7,0.5,3.8,1.1
			C1199.3,409.4,1200.4,411.6,1200.4,414.3z"/>
		<g>
			
				<linearGradient id="SVGID_9_" gradientUnits="userSpaceOnUse" x1="1077.1139" y1="273.9707" x2="853.4683" y2="551.9601" gradientTransform="matrix(1 0 0 -1 0 880)">
				<stop  offset="1.025391e-02" style="stop-color:#573D25"/>
				<stop  offset="0.174" style="stop-color:#6D5434;stop-opacity:0.8842"/>
				<stop  offset="0.5169" style="stop-color:#A68E5B;stop-opacity:0.6417"/>
				<stop  offset="1" style="stop-color:#FFE998;stop-opacity:0.3"/>
			</linearGradient>
			<path class="st12" d="M1200.4,414.3c0,1.1,0,2.2-0.5,3.2c-45.3,81.4-93.8,124-147.7,124c-24.3,0-39.9-8.1-45.8-19.4
				c-3.2-5.9-4.9-12.9-4.9-20.5c0-27.5,21-65.8,60.4-118c18.3-23.7,37.2-48,51.2-76.5c0.5-1.1,4.3-8.6,4.3-14.6
				c0-2.2-0.5-4.3-2.2-5.9c-2.7-2.7-6.5-3.2-9.7-3.2c-1.6,0-3.8,0.5-4.8,0.5c-14,2.2-28,9.7-42.6,20.5
				c-59.3,43.1-101.3,109.4-119.7,141.8l-51.2,91.1H843c101.9-182.7,101.9-182.7,101.9-182.7c11.9-20.5,22.6-47.4,22.6-60.9
				c0-2.7-0.5-4.9-1.6-6.5c-2.7-2.7-6.5-3.8-9.7-3.8c-1.6,0-3.2,0.5-4.3,0.5c-14,2.2-28.6,9.7-43.1,20.5
				c-55,39.9-95.9,99.2-115.3,133.7L738,537.3h-44.2L842.6,271h44.7l-40,71c35-39.3,77.1-75.5,115.3-75.5c11.9,0,23.7,2.2,29.6,11.9
				c3.8,5.9,5.9,12.9,5.9,21.6c0,15.6-6.5,36.1-18.9,63.1c37.2-46.9,87.3-96.5,132.6-96.5c11.9,0,23.7,2.2,29.6,11.9
				c3.2,4.9,4.9,10.8,4.9,18.9c0,18.9-10.2,48.5-42,93.8c-21,30.2-46.9,65.2-59.3,91.1c-4.3,9.2-6.5,16.7-6.5,22.6
				c0,13.5,9.7,19.4,23.7,19.4c14.6,0,34-7,51.2-20.5c24.8-19.4,50.1-49.6,74.4-92.7c1.1-2.7,3.2-3.8,5.4-3.8c1.1,0,2.7,0.5,3.8,1.1
				C1199.3,409.4,1200.4,411.6,1200.4,414.3z"/>
		</g>
		
			<radialGradient id="SVGID_10_" cx="1918.5116" cy="69.6766" r="2066.7529" gradientTransform="matrix(1 0 0 -1 0 880)" gradientUnits="userSpaceOnUse">
			<stop  offset="0" style="stop-color:#C19E6B"/>
			<stop  offset="0.2931" style="stop-color:#A68353"/>
			<stop  offset="0.921" style="stop-color:#604015"/>
			<stop  offset="1" style="stop-color:#57370D"/>
		</radialGradient>
		<path class="st13" d="M1382.6,412.1c0,1.1,0,2.2-0.5,3.2c-35,62-81.9,126.1-161.7,126.1c-64.1,0-77.1-39.3-77.1-69.5
			c0-5.4,0.5-10.2,1.1-14.6c4.3-30.2,15.6-56.6,35.6-90c24.3-39.9,74.4-100.8,128.3-100.8c6.5,0,29.1,0,41.5,18.3
			c4.8,6.5,7.5,15.6,7.5,25.3c0,9.2-2.2,19.4-7.5,29.6c-32.9,64.1-100.8,75.5-148.8,78.2c-2.7,5.4-4.9,11.3-7,16.7
			c-5.9,16.2-8.6,30.2-8.6,41.5c0,33.4,21.6,48,49.1,48h4.3c45.8-2.2,87.3-37.7,131.5-115.4c1.1-2.2,3.2-3.2,5.9-3.2
			c1.1,0,2.2,0,3.2,0.5C1381.5,407.2,1382.6,409.4,1382.6,412.1z M1208,404c35-3.8,93.2-18.3,117.5-69.5c4.9-10.8,7-20.5,7-28
			c0-14.6-7.5-22.6-19.4-22.6C1285.6,283.8,1234.9,357.7,1208,404z"/>
		<g>
			
				<linearGradient id="SVGID_11_" gradientUnits="userSpaceOnUse" x1="1335.0601" y1="298.6519" x2="1187.7932" y2="622.1128" gradientTransform="matrix(1 0 0 -1 0 880)">
				<stop  offset="1.025391e-02" style="stop-color:#573D25"/>
				<stop  offset="0.174" style="stop-color:#6D5434;stop-opacity:0.8842"/>
				<stop  offset="0.5169" style="stop-color:#A68E5B;stop-opacity:0.6417"/>
				<stop  offset="1" style="stop-color:#FFE998;stop-opacity:0.3"/>
			</linearGradient>
			<path class="st14" d="M1382.6,412.1c0,1.1,0,2.2-0.5,3.2c-35,62-81.9,126.1-161.7,126.1c-64.1,0-77.1-39.3-77.1-69.5
				c0-5.4,0.5-10.2,1.1-14.6c4.3-30.2,15.6-56.6,35.6-90c24.3-39.9,74.4-100.8,128.3-100.8c6.5,0,29.1,0,41.5,18.3
				c4.8,6.5,7.5,15.6,7.5,25.3c0,9.2-2.2,19.4-7.5,29.6c-32.9,64.1-100.8,75.5-148.8,78.2c-2.7,5.4-4.9,11.3-7,16.7
				c-5.9,16.2-8.6,30.2-8.6,41.5c0,33.4,21.6,48,49.1,48h4.3c45.8-2.2,87.3-37.7,131.5-115.4c1.1-2.2,3.2-3.2,5.9-3.2
				c1.1,0,2.2,0,3.2,0.5C1381.5,407.2,1382.6,409.4,1382.6,412.1z M1208,404c35-3.8,93.2-18.3,117.5-69.5c4.9-10.8,7-20.5,7-28
				c0-14.6-7.5-22.6-19.4-22.6C1285.6,283.8,1234.9,357.7,1208,404z"/>
		</g>
		
			<radialGradient id="SVGID_12_" cx="1918.5116" cy="69.6766" r="2066.7529" gradientTransform="matrix(1 0 0 -1 0 880)" gradientUnits="userSpaceOnUse">
			<stop  offset="0" style="stop-color:#C19E6B"/>
			<stop  offset="0.2931" style="stop-color:#A68353"/>
			<stop  offset="0.921" style="stop-color:#604015"/>
			<stop  offset="1" style="stop-color:#57370D"/>
		</radialGradient>
		<path class="st15" d="M1656.4,414.3c0,1.1,0,2.2-0.5,3.2c-45.8,81.4-93.2,124-147.2,124c-24.3,0-39.9-8.1-45.8-19.4
			c-3.2-5.9-4.9-12.9-4.9-20.5c0-27.5,21-66.3,60.4-118l5.9-7.5c18.3-23.7,48-61.4,48-82.5c0-6.5-3.2-10.2-10.2-10.2
			c-1.6,0-3.2,0.5-4.8,0.5c-14,2.2-28,9.7-43.1,20.5c-62,45.3-106.2,115.9-122.9,146.1c0,0.5-0.5,1.1-49.1,86.8H1298L1446.8,271
			h44.7l-42,75.5c35-41,79.2-79.8,119.1-79.8c11.3,0,23.2,2.2,29.1,11.9c3.2,4.9,5.4,10.8,5.4,19.4c0,18.9-10.8,48.5-42,93.2
			c-21,30.2-46.9,65.2-59.3,91.1c-4.3,9.2-6.5,16.7-6.5,22.6c0,13.5,9.7,19.4,23.2,19.4c14.6,0,33.4-7,51.2-20.5
			c24.8-19.4,50.1-49.6,73.8-92.7c1.6-2.7,3.8-3.8,5.9-3.8c1.1,0,2.7,0.5,3.8,1.1C1655.3,409.4,1656.4,411.6,1656.4,414.3z"/>
		<g>
			
				<linearGradient id="SVGID_13_" gradientUnits="userSpaceOnUse" x1="1653.4932" y1="312.244" x2="1349.9393" y2="549.3956" gradientTransform="matrix(1 0 0 -1 0 880)">
				<stop  offset="0.1676" style="stop-color:#573D25"/>
				<stop  offset="0.2358" style="stop-color:#6B5233;stop-opacity:0.9427"/>
				<stop  offset="0.4272" style="stop-color:#A08757;stop-opacity:0.7817"/>
				<stop  offset="0.6058" style="stop-color:#C9B273;stop-opacity:0.6315"/>
				<stop  offset="0.7664" style="stop-color:#E7D087;stop-opacity:0.4965"/>
				<stop  offset="0.9032" style="stop-color:#F9E294;stop-opacity:0.3814"/>
				<stop  offset="1" style="stop-color:#FFE998;stop-opacity:0.3"/>
			</linearGradient>
			<path class="st16" d="M1656.4,414.3c0,1.1,0,2.2-0.5,3.2c-45.8,81.4-93.2,124-147.2,124c-24.3,0-39.9-8.1-45.8-19.4
				c-3.2-5.9-4.9-12.9-4.9-20.5c0-27.5,21-66.3,60.4-118l5.9-7.5c18.3-23.7,48-61.4,48-82.5c0-6.5-3.2-10.2-10.2-10.2
				c-1.6,0-3.2,0.5-4.8,0.5c-14,2.2-28,9.7-43.1,20.5c-62,45.3-106.2,115.9-122.9,146.1c0,0.5-0.5,1.1-49.1,86.8H1298L1446.8,271
				h44.7l-42,75.5c35-41,79.2-79.8,119.1-79.8c11.3,0,23.2,2.2,29.1,11.9c3.2,4.9,5.4,10.8,5.4,19.4c0,18.9-10.8,48.5-42,93.2
				c-21,30.2-46.9,65.2-59.3,91.1c-4.3,9.2-6.5,16.7-6.5,22.6c0,13.5,9.7,19.4,23.2,19.4c14.6,0,33.4-7,51.2-20.5
				c24.8-19.4,50.1-49.6,73.8-92.7c1.6-2.7,3.8-3.8,5.9-3.8c1.1,0,2.7,0.5,3.8,1.1C1655.3,409.4,1656.4,411.6,1656.4,414.3z"/>
		</g>
		
			<radialGradient id="SVGID_14_" cx="1918.5116" cy="69.6766" r="2066.7529" gradientTransform="matrix(1 0 0 -1 0 880)" gradientUnits="userSpaceOnUse">
			<stop  offset="0" style="stop-color:#C19E6B"/>
			<stop  offset="0.2931" style="stop-color:#A68353"/>
			<stop  offset="0.921" style="stop-color:#604015"/>
			<stop  offset="1" style="stop-color:#57370D"/>
		</radialGradient>
		<path class="st17" d="M1920,414.8c0,1.1,0,2.2-0.5,3.2c-33.4,59.8-73.3,123.4-127.2,123.4c-35.6,0-57.7-17.8-57.7-51.2
			c0-2.7,0-5.9,0.5-9.2c-27.5,37.2-56.6,59.8-84.1,60.4h-2.2c-38.8,0-52.3-30.2-52.3-59.3c0-4.3,0-8.1,0.5-11.9
			c4.3-30.7,17.2-67.4,38.3-101.3c48-78.7,93.3-102.4,126.7-102.4c9.2,0,17.2,2.2,24.3,4.9c15.1,5.9,21.6,19.4,21.6,38.3
			c0,6.5-0.5,13.5-2.2,21l33.4-59.8h44.7l-77.1,137.4c-23.2,41-32.3,64.7-35.6,83.5c0,1.6-0.5,3.2-0.5,5.4
			c0,10.2,4.3,23.7,20.5,27.5c2.2,0.5,4.3,0.5,6.5,0.5c11.9,0,27.5-6.5,45.8-23.7c22.1-21.6,43.7-54.4,63.6-90
			c1.6-2.7,3.8-3.8,5.9-3.8c1.1,0,2.7,0.5,3.8,1.1C1918.9,409.9,1920,412.1,1920,414.8z M1749.7,433.7
			c13.5-24.3,43.7-85.2,43.7-121.8c0-11.9-3.2-21.6-11.3-26.4c-2.7-1.6-6.5-2.7-9.7-2.7c-25.9,0-64.7,44.7-93.8,93.2
			c-19.4,32.9-34.5,66.8-38.8,95.9c-1.1,5.9-1.6,11.9-1.6,16.7c0,22.1,9.7,32.9,23.2,32.9c7.5,0,16.7-3.8,26.4-10.8
			C1708.2,495.6,1729.7,468.7,1749.7,433.7z"/>
		<g>
			
				<linearGradient id="SVGID_15_" gradientUnits="userSpaceOnUse" x1="1980.9653" y1="514.5682" x2="1125.9404" y2="353.178" gradientTransform="matrix(1 0 0 -1 0 880)">
				<stop  offset="1.025391e-02" style="stop-color:#573D25"/>
				<stop  offset="0.199" style="stop-color:#816842;stop-opacity:0.8665"/>
				<stop  offset="0.4697" style="stop-color:#B79F67;stop-opacity:0.675"/>
				<stop  offset="0.7033" style="stop-color:#DEC781;stop-opacity:0.5099"/>
				<stop  offset="0.8877" style="stop-color:#F6E092;stop-opacity:0.3794"/>
				<stop  offset="1" style="stop-color:#FFE998;stop-opacity:0.3"/>
			</linearGradient>
			<path class="st18" d="M1920,414.8c0,1.1,0,2.2-0.5,3.2c-33.4,59.8-73.3,123.4-127.2,123.4c-35.6,0-57.7-17.8-57.7-51.2
				c0-2.7,0-5.9,0.5-9.2c-27.5,37.2-56.6,59.8-84.1,60.4h-2.2c-38.8,0-52.3-30.2-52.3-59.3c0-4.3,0-8.1,0.5-11.9
				c4.3-30.7,17.2-67.4,38.3-101.3c48-78.7,93.3-102.4,126.7-102.4c9.2,0,17.2,2.2,24.3,4.9c15.1,5.9,21.6,19.4,21.6,38.3
				c0,6.5-0.5,13.5-2.2,21l33.4-59.8h44.7l-77.1,137.4c-23.2,41-32.3,64.7-35.6,83.5c0,1.6-0.5,3.2-0.5,5.4
				c0,10.2,4.3,23.7,20.5,27.5c2.2,0.5,4.3,0.5,6.5,0.5c11.9,0,27.5-6.5,45.8-23.7c22.1-21.6,43.7-54.4,63.6-90
				c1.6-2.7,3.8-3.8,5.9-3.8c1.1,0,2.7,0.5,3.8,1.1C1918.9,409.9,1920,412.1,1920,414.8z M1749.7,433.7
				c13.5-24.3,43.7-85.2,43.7-121.8c0-11.9-3.2-21.6-11.3-26.4c-2.7-1.6-6.5-2.7-9.7-2.7c-25.9,0-64.7,44.7-93.8,93.2
				c-19.4,32.9-34.5,66.8-38.8,95.9c-1.1,5.9-1.6,11.9-1.6,16.7c0,22.1,9.7,32.9,23.2,32.9c7.5,0,16.7-3.8,26.4-10.8
				C1708.2,495.6,1729.7,468.7,1749.7,433.7z"/>
		</g>
	</g>
	<g class="st2">
		
			<linearGradient id="SVGID_16_" gradientUnits="userSpaceOnUse" x1="159.7675" y1="-306.2966" x2="2093.2527" y2="605.0055" gradientTransform="matrix(1 0 0 -1 0 880)">
			<stop  offset="0" style="stop-color:#F5CB86"/>
			<stop  offset="1" style="stop-color:#57370D"/>
		</linearGradient>
		<path class="st19" d="M1243.1,656.5c0,0,0,0.2,0,0.7c0,0.4-0.3,0.7-0.9,0.8c-3.1,0.1-5.7,1.5-7.9,4.2c-2.2,2.7-4.6,7.4-7.2,14.1
			l-38.6,99.3c-0.1,0.3-0.2,0.7-0.2,1.3s0.1,1.2,0.4,1.7l0.9,1.9c0.2,0.7,0.4,1.2,0.4,1.3c0,0.9-0.5,1.4-1.5,1.7l-17,6.5
			c-0.7,0.2-1.2,0.4-1.3,0.4c-1,0-1.7-0.6-2.2-1.9l-43.6-112.2c-2.7-6.8-5.1-11.6-7.1-14.2c-2-2.6-4.5-4-7.5-4.1
			c-0.5-0.1-0.7-0.4-0.7-0.8c0-0.4,0.2-0.7,0.7-0.7c3.7,0.4,6.5,0.6,8.2,0.6h30c2.6,0,7.1-0.2,13.4-0.6c1,0,1.5,0.3,1.5,0.7
			c0,0.5-0.5,0.7-1.5,0.7c-9.4,0.5-14.2,4-14.2,10.6c0,2.1,0.6,4.7,1.7,7.6l34.9,90.3c0.2,0.5,0.9,1.5,1.3,0.6l36.4-93.4
			c3.1-8.2,1.3-15.2-7.4-15.7c-0.7,0-1.1-0.2-1.1-0.7s0.4-0.7,1.3-0.7c5.6,0.4,9.7,0.6,12.3,0.6h6.7c1.7,0,4.7-0.2,8.8-0.6
			C1242.8,656.5,1243.1,656.5,1243.1,656.5z"/>
		
			<linearGradient id="SVGID_17_" gradientUnits="userSpaceOnUse" x1="202.083" y1="-396.0761" x2="2135.5679" y2="515.226" gradientTransform="matrix(1 0 0 -1 0 880)">
			<stop  offset="0" style="stop-color:#F5CB86"/>
			<stop  offset="1" style="stop-color:#57370D"/>
		</linearGradient>
		<path class="st20" d="M1420.5,787.4c0,0.4-0.3,0.7-0.9,0.7c-3.7-0.4-6.4-0.6-8-0.6h-29.8c-2.6,0-7.1,0.2-13.4,0.6
			c-1,0-1.5-0.3-1.5-0.7c0-0.5,0.5-0.7,1.5-0.7c9.3-0.5,14-3.9,14-10.2c0-2.4-0.6-5-1.9-8l-9.3-22.2c-1-2-4.1-2.4-6.3-1.6
			c-10,3.4-32.2,10.8-49.7,13.5c-2.5,0.4-4.3,1.1-5.4,3.2l-3.2,7.6c-1.2,2.9-1.9,5.4-1.9,7.6c0,6.6,1.6,9.7,11.4,10.2
			c1,0,1.5,0.3,1.5,0.7c0,0.5-0.5,0.7-1.5,0.7c-6.3-0.4-11-0.6-14-0.6h-6.9c-1.6,0-5.6,0.2-9.3,0.6c-0.6,0-0.9-0.2-0.9-0.7
			c0-0.4,0.2-0.7,0.7-0.8c3-0.1,5.5-1.5,7.5-4s4.4-7.3,7.3-14.3l36.6-94.4c0.6-1.6,1.9-3.7,1.4-5.7c-0.9-3.4-2.8-7.6-2.8-7.6
			c-0.6-1.6-1.7-2.5-3.2-2.6c-0.4-0.1-0.5-0.3-0.3-0.6c0.2-0.2,0.5-0.4,1-0.4h22.9c0.9,0,1.6,0.2,2.1,0.5s0.9,0.8,1.3,1.6
			l45.3,109.2c2.9,6.8,5.3,11.6,7.3,14.2c2,2.6,4.5,4,7.5,4.1C1420.2,786.7,1420.5,787,1420.5,787.4z M1366.4,737.7
			c0.8-1.6,0.3-2.7,0.3-2.7l-24.1-58.1l-28.5,72.8c-0.1,0.3-0.2,0.6-0.2,1.1c0,0.7,0.4,2.3,2.4,2.2c9.5-0.2,40.3-9.4,47.8-13.1
			C1365.2,739.6,1365.9,738.8,1366.4,737.7z"/>
		
			<linearGradient id="SVGID_18_" gradientUnits="userSpaceOnUse" x1="225.0387" y1="-435.3925" x2="2158.5237" y2="475.9094" gradientTransform="matrix(1 0 0 -1 0 880)">
			<stop  offset="0" style="stop-color:#F5CB86"/>
			<stop  offset="1" style="stop-color:#57370D"/>
		</linearGradient>
		<path class="st21" d="M1561.4,657.2c0.1,0.4-0.3,0.8-1,0.8c-6.3,0-11,3.3-11,19.2v110.9c0,0.9-0.4,1.3-1.1,1.3
			c-0.6,0-1.2-0.4-1.9-1.3l-91.7-114.8c-0.5-0.5-0.9-0.7-1.3-0.7c-0.5,0-0.7,0.4-0.7,1.1v94c0,6.8,0.3,19.2,11.4,19.2
			c0.7,0,1.1,0.2,1,0.7c-0.1,0.4-0.4,0.7-1,0.7l-10.8-0.6h-7.3l-10.6,0.6c-0.7,0-1.1-0.2-1.2-0.7c-0.1-0.4,0.3-0.7,1-0.7
			c10.8,0,11-12.4,11-19.2l0.1-104.2c-1.5-1.7-2.4-2.3-4.4-3.5s-4.4-1.9-7.2-2.1c-0.7,0-1.1-0.2-1-0.7c0.1-0.4,0.4-0.7,1-0.7
			l10.8,0.6h21.2c2.9,0,4.8,0.8,6,2.4l67.8,87.1c0.5,0.7,1,1.1,1.5,1.1c0.6,0,0.9-0.4,0.9-1.3v-69.2c0-16.3-5.4-19.2-11.6-19.2
			c-0.8,0-1.1-0.4-1-0.8c0.1-0.4,0.5-0.7,1.2-0.7c4.8,0.4,11,0.6,13.3,0.6h7.3c2,0,3.2-0.2,8.4-0.6
			C1561,656.5,1561.3,656.7,1561.4,657.2z M1470.4,643c-0.3,0-0.4-0.1-0.6-0.4c-0.1-0.2-0.1-0.6,0-1.1c2-6.1,4.6-10.6,7.8-13.5
			c3.2-2.9,7.2-4.4,11.9-4.4c3.6,0,7.6,0.8,11.9,2.4l8,3c3.7,1.5,7.1,2.2,10.1,2.2c5.2,0,9.2-2.6,11.9-7.8c0.4-0.5,0.7-0.7,1.1-0.7
			c0.6,0,0.7,0.5,0.4,1.5c-4,12.2-10.6,18.3-19.8,18.3c-3.1,0-7-0.8-11.6-2.4l-8.8-3.2c-5.6-2.1-9.9-3.2-13-3.2
			c-2.4,0-4.2,0.7-5.4,2c-1.2,1.3-2.3,3.4-3.2,6.2C1471.1,642.6,1470.7,643,1470.4,643z"/>
		
			<linearGradient id="SVGID_19_" gradientUnits="userSpaceOnUse" x1="249.8709" y1="-497.4665" x2="2183.356" y2="413.8356" gradientTransform="matrix(1 0 0 -1 0 880)">
			<stop  offset="0" style="stop-color:#F5CB86"/>
			<stop  offset="1" style="stop-color:#57370D"/>
		</linearGradient>
		<path class="st22" d="M1601.4,782.1c-9.9-5.6-17.7-13.4-23.3-23.4c-5.6-10-8.4-21.3-8.4-34s3.2-24.4,9.5-35.1
			c6.3-10.7,15.1-19.3,26.4-25.7c11.2-6.4,23.8-9.6,37.7-9.6c12.9,0,24.4,2.8,34.6,8.5c10.1,5.7,18,13.4,23.8,23.4
			c5.7,9.9,8.6,21.1,8.6,33.5c0,12.8-3.2,24.6-9.7,35.4c-6.5,10.8-15.4,19.4-26.7,25.8c-11.4,6.4-24.2,9.6-38.5,9.6
			C1622.7,790.5,1611.4,787.7,1601.4,782.1z M1677.8,772.4c6.5-7.1,9.8-17.1,9.8-29.8c0-12.4-2.8-24.9-8.3-37.6
			c-5.5-12.7-12.8-23.1-21.9-31.2c-9.1-8.1-18.7-12.2-28.7-12.2c-11.3,0-20.1,3.5-26.6,10.4s-9.7,16.6-9.7,29
			c0,12.5,2.7,25.2,8.2,38c5.4,12.8,12.6,23.3,21.5,31.6s18.4,12.5,28.5,12.5C1662.2,783.1,1671.3,779.5,1677.8,772.4z"/>
		
			<linearGradient id="SVGID_20_" gradientUnits="userSpaceOnUse" x1="275.4357" y1="-551.7066" x2="2208.9209" y2="359.5954" gradientTransform="matrix(1 0 0 -1 0 880)">
			<stop  offset="0" style="stop-color:#F5CB86"/>
			<stop  offset="1" style="stop-color:#57370D"/>
		</linearGradient>
		<path class="st23" d="M1739.7,731.8c0.1,0,0.2,0.2,0.4,0.5c0.1,0.3,0.1,0.8,0,1.4c-0.3,3.7-0.4,6.4-0.4,8
			c0,15.2,3.2,26.6,9.7,34.3s15.9,11.6,28.3,11.6c7.5,0,13.9-1.7,19.4-5c5.5-3.4,8.2-9.4,8.2-18.1c0-8.1-2.9-14.9-8.7-20.4
			c-5.8-5.5-14-11.2-24.7-17.1c-8.2-4.6-14.9-8.8-20-12.5c-5.2-3.7-9.3-7.8-12.3-12.3s-4.6-9.4-4.6-14.7c0.1-5.6,2.3-10.9,6.4-16
			c4.2-5.1,10.1-9.2,17.8-12.4c7.7-3.2,16.5-4.8,26.5-4.8c6,0,12,0.8,18,2.5s11,4.1,14.9,7.2c3.9,3.1,5.9,6.6,5.9,10.6
			c0,0.5-0.1,1.4-0.4,2.6l-7.6,28.7c-0.1,0.7-0.4,1.1-0.9,1.1s-0.7-0.6-0.6-1.7c0.4-3,0.6-5.9,0.6-8.8c0-12-3.1-21.6-9.2-28.7
			c-6.1-7.1-14.8-10.6-26-10.6c-8.9,0-15.2,1.5-18.7,4.5s-5.3,7.6-5.3,14c0,4.4,1.3,8.3,3.9,11.7c2.6,3.5,6.1,6.7,10.3,9.6
			c4.3,2.9,10.3,6.6,18,10.9c8.2,4.4,14.9,8.4,20.2,12c5.3,3.7,9.7,8.2,13.3,13.5c3.6,5.3,5.4,11.5,5.4,18.4
			c0,7.3-2.2,13.9-6.6,19.8c-4.4,5.8-10.7,10.4-18.7,13.8c-8.1,3.4-17.4,5-28,5c-7.9,0-15.4-1.2-22.3-3.4c-6.9-2.3-12.3-5.3-16.3-9
			s-6-7.6-6-11.6c0-0.6,0.1-1.4,0.4-2.4l8.8-30.7C1739,732.3,1739.3,731.8,1739.7,731.8z"/>
		
			<linearGradient id="SVGID_21_" gradientUnits="userSpaceOnUse" x1="141.098" y1="-266.6861" x2="2074.5828" y2="644.616" gradientTransform="matrix(1 0 0 -1 0 880)">
			<stop  offset="0" style="stop-color:#F5CB86"/>
			<stop  offset="1" style="stop-color:#57370D"/>
		</linearGradient>
		<path class="st24" d="M1104.3,786.6c-3.9-0.1-7.1-1.4-9.9-3.9c-2.7-2.5-6.1-7-10.1-13.4l-32.1-51.1l28-43
			c4.3-6.5,7.8-10.9,10.3-13.3c2.5-2.4,5.6-3.7,9.2-3.8c0.7-0.1,1.1-0.4,1-0.8c-0.1-0.4-0.4-0.7-1-0.7c-4.8,0.4-8.3,0.6-10.2,0.6
			h-7.5c-2.6,0-6.5-0.2-11.7-0.6c-0.9,0-1.3,0.3-1.3,0.7c0,0.5,0.4,0.7,1.1,0.7c3.4,0.1,10.3,0.5,10.3,5.4c0,2.2-2.4,5-4.6,8.5
			l-26.8,41.2l-23.7-37.7c-2.2-3.5-3.4-6.5-3.4-9.1s1.1-4.6,3.3-6c2.2-1.4,4.9-2.1,8.3-2.2c0.9-0.1,1.3-0.4,1.2-0.8
			c-0.1-0.4-0.5-0.7-1.2-0.7c-5.6,0.4-9.5,0.6-11.7,0.6h-32.6c-2,0-5.6-0.2-10.8-0.6c-0.6,0-1,0.2-1,0.7c-0.1,0.4,0.3,0.7,1,0.8
			c3.8,0.1,7.1,1.4,9.9,3.9c2.7,2.5,6.1,7,10.1,13.4l30,47.6l-30.1,46.5c-4.3,6.5-7.8,10.9-10.3,13.3c-2.5,2.4-5.6,3.7-9.2,3.8
			c-0.7,0.1-1.1,0.4-1,0.8c0.1,0.4,0.4,0.7,1,0.7c4.8-0.4,8.3-0.6,10.2-0.6h7.5c2.6,0,6.5,0.2,11.7,0.6c0.9,0,1.3-0.3,1.3-0.7
			c0-0.5-0.4-0.7-1.1-0.7c-3.4-0.1-10.3-0.5-10.3-5.4c0-2.2,2.4-5,4.6-8.5l29-44.7l25.9,41.2c2.2,3.7,3.4,6.8,3.4,9.1
			c0,2.6-1.1,4.6-3.2,6s-4.7,2.1-7.8,2.2c-0.9,0.1-1.3,0.4-1.2,0.8c0.1,0.4,0.5,0.7,1.2,0.7c5.2-0.4,8.9-0.6,11.2-0.6h32.4
			c2.4,0,6,0.2,10.8,0.6c0.6,0,1-0.2,1-0.7C1105.3,787,1105,786.7,1104.3,786.6z"/>
	</g>
	
		<linearGradient id="SVGID_22_" gradientUnits="userSpaceOnUse" x1="1139.4203" y1="48.7816" x2="1186.856" y2="273.8488" gradientTransform="matrix(1 0 0 -1 0 880)">
		<stop  offset="0" style="stop-color:#57370D"/>
		<stop  offset="1" style="stop-color:#FFE998;stop-opacity:0.5"/>
	</linearGradient>
	<path class="st25" d="M1243.1,656.5c0,0,0,0.2,0,0.7c0,0.4-0.3,0.7-0.9,0.8c-3.1,0.1-5.7,1.5-7.9,4.2c-2.2,2.7-4.6,7.4-7.2,14.1
		l-38.6,99.3c-0.1,0.3-0.2,0.7-0.2,1.3s0.1,1.2,0.4,1.7l0.9,1.9c0.2,0.7,0.4,1.2,0.4,1.3c0,0.9-0.5,1.4-1.5,1.7l-17,6.5
		c-0.7,0.2-1.2,0.4-1.3,0.4c-1,0-1.7-0.6-2.2-1.9l-43.6-112.2c-2.7-6.8-5.1-11.6-7.1-14.2c-2-2.6-4.5-4-7.5-4.1
		c-0.5-0.1-0.7-0.4-0.7-0.8c0-0.4,0.2-0.7,0.7-0.7c3.7,0.4,6.5,0.6,8.2,0.6h30c2.6,0,7.1-0.2,13.4-0.6c1,0,1.5,0.3,1.5,0.7
		c0,0.5-0.5,0.7-1.5,0.7c-9.4,0.5-14.2,4-14.2,10.6c0,2.1,0.6,4.7,1.7,7.6l34.9,90.3c0.2,0.5,0.9,1.5,1.3,0.6l36.4-93.4
		c3.1-8.2,1.3-15.2-7.4-15.7c-0.7,0-1.1-0.2-1.1-0.7s0.4-0.7,1.3-0.7c5.6,0.4,9.7,0.6,12.3,0.6h6.7c1.7,0,4.7-0.2,8.8-0.6
		C1242.8,656.5,1243.1,656.5,1243.1,656.5z"/>
	
		<linearGradient id="SVGID_23_" gradientUnits="userSpaceOnUse" x1="1356.2961" y1="53.2789" x2="1337.1564" y2="265.1832" gradientTransform="matrix(1 0 0 -1 0 880)">
		<stop  offset="0" style="stop-color:#57370D"/>
		<stop  offset="1" style="stop-color:#FFE998;stop-opacity:0.5"/>
	</linearGradient>
	<path class="st26" d="M1420.5,787.4c0,0.4-0.3,0.7-0.9,0.7c-3.7-0.4-6.4-0.6-8-0.6h-29.8c-2.6,0-7.1,0.2-13.4,0.6
		c-1,0-1.5-0.3-1.5-0.7c0-0.5,0.5-0.7,1.5-0.7c9.3-0.5,14-3.9,14-10.2c0-2.4-0.6-5-1.9-8l-9.3-22.2c-1-2-4.1-2.4-6.3-1.6
		c-10,3.4-32.2,10.8-49.7,13.5c-2.5,0.4-4.3,1.1-5.4,3.2l-3.2,7.6c-1.2,2.9-1.9,5.4-1.9,7.6c0,6.6,1.6,9.7,11.4,10.2
		c1,0,1.5,0.3,1.5,0.7c0,0.5-0.5,0.7-1.5,0.7c-6.3-0.4-11-0.6-14-0.6h-6.9c-1.6,0-5.6,0.2-9.3,0.6c-0.6,0-0.9-0.2-0.9-0.7
		c0-0.4,0.2-0.7,0.7-0.8c3-0.1,5.5-1.5,7.5-4s4.4-7.3,7.3-14.3l36.6-94.4c0.6-1.6,1.9-3.7,1.4-5.7c-0.9-3.4-2.8-7.6-2.8-7.6
		c-0.6-1.6-1.7-2.5-3.2-2.6c-0.4-0.1-0.5-0.3-0.3-0.6c0.2-0.2,0.5-0.4,1-0.4h22.9c0.9,0,1.6,0.2,2.1,0.5s0.9,0.8,1.3,1.6l45.3,109.2
		c2.9,6.8,5.3,11.6,7.3,14.2c2,2.6,4.5,4,7.5,4.1C1420.2,786.7,1420.5,787,1420.5,787.4z M1366.4,737.7c0.8-1.6,0.3-2.7,0.3-2.7
		l-24.1-58.1l-28.5,72.8c-0.1,0.3-0.2,0.6-0.2,1.1c0,0.7,0.4,2.3,2.4,2.2c9.5-0.2,40.3-9.4,47.8-13.1
		C1365.2,739.6,1365.9,738.8,1366.4,737.7z"/>
	
		<linearGradient id="SVGID_24_" gradientUnits="userSpaceOnUse" x1="1524.4058" y1="26.8517" x2="1474.7051" y2="271.0953" gradientTransform="matrix(1 0 0 -1 0 880)">
		<stop  offset="0" style="stop-color:#57370D"/>
		<stop  offset="1" style="stop-color:#FFE998;stop-opacity:0.5"/>
	</linearGradient>
	<path class="st27" d="M1561.4,657.2c0.1,0.4-0.3,0.8-1,0.8c-6.3,0-11,3.3-11,19.2v110.9c0,0.9-0.4,1.3-1.1,1.3
		c-0.6,0-1.2-0.4-1.9-1.3l-91.7-114.8c-0.5-0.5-0.9-0.7-1.3-0.7c-0.5,0-0.7,0.4-0.7,1.1v94c0,6.8,0.3,19.2,11.4,19.2
		c0.7,0,1.1,0.2,1,0.7c-0.1,0.4-0.4,0.7-1,0.7l-10.8-0.6h-7.3l-10.6,0.6c-0.7,0-1.1-0.2-1.2-0.7c-0.1-0.4,0.3-0.7,1-0.7
		c10.8,0,11-12.4,11-19.2l0.1-104.2c-1.5-1.7-2.4-2.3-4.4-3.5s-4.4-1.9-7.2-2.1c-0.7,0-1.1-0.2-1-0.7c0.1-0.4,0.4-0.7,1-0.7
		l10.8,0.6h21.2c2.9,0,4.8,0.8,6,2.4l67.8,87.1c0.5,0.7,1,1.1,1.5,1.1c0.6,0,0.9-0.4,0.9-1.3v-69.2c0-16.3-5.4-19.2-11.6-19.2
		c-0.8,0-1.1-0.4-1-0.8c0.1-0.4,0.5-0.7,1.2-0.7c4.8,0.4,11,0.6,13.3,0.6h7.3c2,0,3.2-0.2,8.4-0.6
		C1561,656.5,1561.3,656.7,1561.4,657.2z M1470.4,643c-0.3,0-0.4-0.1-0.6-0.4c-0.1-0.2-0.1-0.6,0-1.1c2-6.1,4.6-10.6,7.8-13.5
		c3.2-2.9,7.2-4.4,11.9-4.4c3.6,0,7.6,0.8,11.9,2.4l8,3c3.7,1.5,7.1,2.2,10.1,2.2c5.2,0,9.2-2.6,11.9-7.8c0.4-0.5,0.7-0.7,1.1-0.7
		c0.6,0,0.7,0.5,0.4,1.5c-4,12.2-10.6,18.3-19.8,18.3c-3.1,0-7-0.8-11.6-2.4l-8.8-3.2c-5.6-2.1-9.9-3.2-13-3.2c-2.4,0-4.2,0.7-5.4,2
		c-1.2,1.3-2.3,3.4-3.2,6.2C1471.1,642.6,1470.7,643,1470.4,643z"/>
	
		<linearGradient id="SVGID_25_" gradientUnits="userSpaceOnUse" x1="1652.1832" y1="62.1066" x2="1626.9515" y2="259.9234" gradientTransform="matrix(1 0 0 -1 0 880)">
		<stop  offset="0" style="stop-color:#57370D"/>
		<stop  offset="1" style="stop-color:#FFE998;stop-opacity:0.5"/>
	</linearGradient>
	<path class="st28" d="M1601.4,782.1c-9.9-5.6-17.7-13.4-23.3-23.4c-5.6-10-8.4-21.3-8.4-34s3.2-24.4,9.5-35.1
		c6.3-10.7,15.1-19.3,26.4-25.7c11.2-6.4,23.8-9.6,37.7-9.6c12.9,0,24.4,2.8,34.6,8.5c10.1,5.7,18,13.4,23.8,23.4
		c5.7,9.9,8.6,21.1,8.6,33.5c0,12.8-3.2,24.6-9.7,35.4c-6.5,10.8-15.4,19.4-26.7,25.8c-11.4,6.4-24.2,9.6-38.5,9.6
		C1622.7,790.5,1611.4,787.7,1601.4,782.1z M1677.8,772.4c6.5-7.1,9.8-17.1,9.8-29.8c0-12.4-2.8-24.9-8.3-37.6
		c-5.5-12.7-12.8-23.1-21.9-31.2c-9.1-8.1-18.7-12.2-28.7-12.2c-11.3,0-20.1,3.5-26.6,10.4s-9.7,16.6-9.7,29c0,12.5,2.7,25.2,8.2,38
		c5.4,12.8,12.6,23.3,21.5,31.6s18.4,12.5,28.5,12.5C1662.2,783.1,1671.3,779.5,1677.8,772.4z"/>
	
		<linearGradient id="SVGID_26_" gradientUnits="userSpaceOnUse" x1="1832.2064" y1="64.1843" x2="1729.261" y2="241.8158" gradientTransform="matrix(1 0 0 -1 0 880)">
		<stop  offset="0" style="stop-color:#57370D"/>
		<stop  offset="1" style="stop-color:#FFE998;stop-opacity:0.5"/>
	</linearGradient>
	<path class="st29" d="M1739.7,731.8c0.1,0,0.2,0.2,0.4,0.5c0.1,0.3,0.1,0.8,0,1.4c-0.3,3.7-0.4,6.4-0.4,8c0,15.2,3.2,26.6,9.7,34.3
		s15.9,11.6,28.3,11.6c7.5,0,13.9-1.7,19.4-5c5.5-3.4,8.2-9.4,8.2-18.1c0-8.1-2.9-14.9-8.7-20.4c-5.8-5.5-14-11.2-24.7-17.1
		c-8.2-4.6-14.9-8.8-20-12.5c-5.2-3.7-9.3-7.8-12.3-12.3s-4.6-9.4-4.6-14.7c0.1-5.6,2.3-10.9,6.4-16c4.2-5.1,10.1-9.2,17.8-12.4
		c7.7-3.2,16.5-4.8,26.5-4.8c6,0,12,0.8,18,2.5s11,4.1,14.9,7.2c3.9,3.1,5.9,6.6,5.9,10.6c0,0.5-0.1,1.4-0.4,2.6l-7.6,28.7
		c-0.1,0.7-0.4,1.1-0.9,1.1s-0.7-0.6-0.6-1.7c0.4-3,0.6-5.9,0.6-8.8c0-12-3.1-21.6-9.2-28.7c-6.1-7.1-14.8-10.6-26-10.6
		c-8.9,0-15.2,1.5-18.7,4.5s-5.3,7.6-5.3,14c0,4.4,1.3,8.3,3.9,11.7c2.6,3.5,6.1,6.7,10.3,9.6c4.3,2.9,10.3,6.6,18,10.9
		c8.2,4.4,14.9,8.4,20.2,12c5.3,3.7,9.7,8.2,13.3,13.5c3.6,5.3,5.4,11.5,5.4,18.4c0,7.3-2.2,13.9-6.6,19.8
		c-4.4,5.8-10.7,10.4-18.7,13.8c-8.1,3.4-17.4,5-28,5c-7.9,0-15.4-1.2-22.3-3.4c-6.9-2.3-12.3-5.3-16.3-9s-6-7.6-6-11.6
		c0-0.6,0.1-1.4,0.4-2.4l8.8-30.7C1739,732.3,1739.3,731.8,1739.7,731.8z"/>
	
		<linearGradient id="SVGID_27_" gradientUnits="userSpaceOnUse" x1="949.0579" y1="106.5454" x2="1317.4412" y2="310.4178" gradientTransform="matrix(1 0 0 -1 0 880)">
		<stop  offset="0" style="stop-color:#57370D"/>
		<stop  offset="0.7787" style="stop-color:#FFE998;stop-opacity:0.5"/>
	</linearGradient>
	<path class="st30" d="M1104.3,786.6c-3.9-0.1-7.1-1.4-9.9-3.9c-2.7-2.5-6.1-7-10.1-13.4l-32.1-51.1l28-43
		c4.3-6.5,7.8-10.9,10.3-13.3c2.5-2.4,5.6-3.7,9.2-3.8c0.7-0.1,1.1-0.4,1-0.8c-0.1-0.4-0.4-0.7-1-0.7c-4.8,0.4-8.3,0.6-10.2,0.6
		h-7.5c-2.6,0-6.5-0.2-11.7-0.6c-0.9,0-1.3,0.3-1.3,0.7c0,0.5,0.4,0.7,1.1,0.7c3.4,0.1,10.3,0.5,10.3,5.4c0,2.2-2.4,5-4.6,8.5
		l-26.8,41.2l-23.7-37.7c-2.2-3.5-3.4-6.5-3.4-9.1s1.1-4.6,3.3-6c2.2-1.4,4.9-2.1,8.3-2.2c0.9-0.1,1.3-0.4,1.2-0.8
		c-0.1-0.4-0.5-0.7-1.2-0.7c-5.6,0.4-9.5,0.6-11.7,0.6h-32.6c-2,0-5.6-0.2-10.8-0.6c-0.6,0-1,0.2-1,0.7c-0.1,0.4,0.3,0.7,1,0.8
		c3.8,0.1,7.1,1.4,9.9,3.9c2.7,2.5,6.1,7,10.1,13.4l30,47.6l-30.1,46.5c-4.3,6.5-7.8,10.9-10.3,13.3c-2.5,2.4-5.6,3.7-9.2,3.8
		c-0.7,0.1-1.1,0.4-1,0.8c0.1,0.4,0.4,0.7,1,0.7c4.8-0.4,8.3-0.6,10.2-0.6h7.5c2.6,0,6.5,0.2,11.7,0.6c0.9,0,1.3-0.3,1.3-0.7
		c0-0.5-0.4-0.7-1.1-0.7c-3.4-0.1-10.3-0.5-10.3-5.4c0-2.2,2.4-5,4.6-8.5l29-44.7l25.9,41.2c2.2,3.7,3.4,6.8,3.4,9.1
		c0,2.6-1.1,4.6-3.2,6s-4.7,2.1-7.8,2.2c-0.9,0.1-1.3,0.4-1.2,0.8c0.1,0.4,0.5,0.7,1.2,0.7c5.2-0.4,8.9-0.6,11.2-0.6h32.4
		c2.4,0,6,0.2,10.8,0.6c0.6,0,1-0.2,1-0.7C1105.3,787,1105,786.7,1104.3,786.6z"/>
</g>
</svg>
