<?xml version="1.0" encoding="utf-8"?>
<!-- Generator: Adobe Illustrator 22.0.1, SVG Export Plug-In . SVG Version: 6.00 Build 0)  -->
<svg version="1.1" id="Capa_1" xmlns="http://www.w3.org/2000/svg" xmlns:xlink="http://www.w3.org/1999/xlink" x="0px" y="0px"
	 viewBox="0 0 340.9 512" style="enable-background:new 0 0 340.9 512;" xml:space="preserve">
<style type="text/css">
	.st0{fill:url(#SVGID_1_);}
	.st1{fill:url(#SVGID_2_);}
	.st2{fill:url(#SVGID_3_);}
	.st3{fill:url(#SVGID_4_);}
	.st4{fill:url(#SVGID_5_);}
</style>
<g>
	
		<linearGradient id="SVGID_1_" gradientUnits="userSpaceOnUse" x1="-41.7813" y1="116.9159" x2="435.627" y2="606.5342" gradientTransform="matrix(1 0 0 -1 0 514)">
		<stop  offset="0.1047" style="stop-color:#4B4B50"/>
		<stop  offset="0.3143" style="stop-color:#D7D7D8"/>
		<stop  offset="0.5121" style="stop-color:#A8A9AD"/>
		<stop  offset="0.7251" style="stop-color:#4B4B50"/>
	</linearGradient>
	<path class="st0" d="M171.6,109.9L76.3,90.1c-3.6-0.8-7.1,1.5-7.9,5.1L31,258.7c0,0.2-0.1,0.4-0.1,0.6c-0.1,0.5-5.5,45.7,37.9,58.3
		L46,418.8l-37.7-8.5c-3.6-0.8-7.2,1.5-8.1,5.1c-0.8,3.6,1.5,7.2,5.1,8.1l88.6,20.1c0.5,0.1,1,0.2,1.5,0.2c3.1,0,5.9-2.1,6.6-5.3
		c0.8-3.6-1.5-7.2-5.1-8.1l-37.7-8.5L82,320.2c2.4,0.2,4.7,0.4,7,0.4c30.9,0,48.4-21.8,53.7-34.8c0.2-0.4,0.3-0.8,0.4-1.2
		l33.8-166.8C177.6,114.2,175.2,110.6,171.6,109.9z M80,104.6l82.3,17.1l-4.6,22.9c-6.3,7.9-46.1,55.2-101.4,64.2L80,104.6z"/>
	
		<linearGradient id="SVGID_2_" gradientUnits="userSpaceOnUse" x1="79.4451" y1="-1.2873" x2="556.8534" y2="488.331" gradientTransform="matrix(1 0 0 -1 0 514)">
		<stop  offset="0.1047" style="stop-color:#4B4B50"/>
		<stop  offset="0.3143" style="stop-color:#D7D7D8"/>
		<stop  offset="0.5121" style="stop-color:#A8A9AD"/>
		<stop  offset="0.7251" style="stop-color:#4B4B50"/>
	</linearGradient>
	<path class="st1" d="M340.7,485.4c-0.8-3.6-4.3-6-8-5.2l-37.9,7.9l-21-101.5c43.6-11.8,39-57.1,38.9-57.6c0-0.2-0.1-0.4-0.1-0.6
		l-34.4-164.2c-0.8-3.6-4.3-5.9-7.9-5.2l-95.7,18.1c-3.6,0.7-6.1,4.2-5.4,7.9L200,352.4c0.1,0.4,0.2,0.8,0.3,1.2
		c5.1,13.3,22.6,35.8,54.2,35.8c1.9,0,3.8-0.1,5.8-0.3L281.4,491l-37.9,7.9c-3.6,0.8-6,4.3-5.2,8c0.7,3.2,3.5,5.4,6.6,5.4
		c0.5,0,0.9,0,1.4-0.1l88.9-18.5C339.1,492.6,341.5,489.1,340.7,485.4z M266.5,173.3l21.9,104.6c-55.1-10-94.1-58-100.2-66l-4.2-23
		L266.5,173.3z"/>
	
		<linearGradient id="SVGID_3_" gradientUnits="userSpaceOnUse" x1="-126.0013" y1="199.0358" x2="351.407" y2="688.6541" gradientTransform="matrix(1 0 0 -1 0 514)">
		<stop  offset="0.1047" style="stop-color:#4B4B50"/>
		<stop  offset="0.3143" style="stop-color:#D7D7D8"/>
		<stop  offset="0.5121" style="stop-color:#A8A9AD"/>
		<stop  offset="0.7251" style="stop-color:#4B4B50"/>
	</linearGradient>
	<path class="st2" d="M146.6,62c0.6,3.2,3.4,5.5,6.6,5.5c0.4,0,0.8,0,1.3-0.1c3.7-0.7,6.1-4.2,5.4-7.9l-10.1-54
		c-0.7-3.7-4.2-6.1-7.9-5.4s-6.1,4.2-5.4,7.9L146.6,62z"/>
	
		<linearGradient id="SVGID_4_" gradientUnits="userSpaceOnUse" x1="-80.1923" y1="154.369" x2="397.2161" y2="643.9873" gradientTransform="matrix(1 0 0 -1 0 514)">
		<stop  offset="0.1047" style="stop-color:#4B4B50"/>
		<stop  offset="0.3143" style="stop-color:#D7D7D8"/>
		<stop  offset="0.5121" style="stop-color:#A8A9AD"/>
		<stop  offset="0.7251" style="stop-color:#4B4B50"/>
	</linearGradient>
	<path class="st3" d="M203.4,91.2c0.6,0.1,1.1,0.2,1.7,0.2c3,0,5.7-2,6.5-5.1l12.2-47.6c0.9-3.6-1.2-7.3-4.9-8.2
		c-3.6-0.9-7.3,1.2-8.2,4.9L198.5,83C197.6,86.6,199.8,90.3,203.4,91.2z"/>
	
		<linearGradient id="SVGID_5_" gradientUnits="userSpaceOnUse" x1="-34.2019" y1="109.5256" x2="443.2064" y2="599.1439" gradientTransform="matrix(1 0 0 -1 0 514)">
		<stop  offset="0.1047" style="stop-color:#4B4B50"/>
		<stop  offset="0.3143" style="stop-color:#D7D7D8"/>
		<stop  offset="0.5121" style="stop-color:#A8A9AD"/>
		<stop  offset="0.7251" style="stop-color:#4B4B50"/>
	</linearGradient>
	<path class="st4" d="M247.7,121.5c1.7,0,3.5-0.7,4.8-2l43.9-43.9c2.6-2.6,2.6-6.9,0-9.5s-6.9-2.6-9.5,0L243,110
		c-2.6,2.6-2.6,6.9,0,9.5C244.2,120.8,246,121.5,247.7,121.5z"/>
</g>
</svg>
