<?xml version="1.0" encoding="utf-8"?>
<!-- Generator: Adobe Illustrator 22.0.1, SVG Export Plug-In . SVG Version: 6.00 Build 0)  -->
<svg version="1.1" id="Capa_1" xmlns="http://www.w3.org/2000/svg" xmlns:xlink="http://www.w3.org/1999/xlink" x="0px" y="0px"
	 viewBox="0 0 624.6 512" style="enable-background:new 0 0 624.6 512;" xml:space="preserve">
<style type="text/css">
	.st0{fill:url(#SVGID_1_);}
	.st1{fill:url(#SVGID_2_);}
	.st2{fill:url(#SVGID_3_);}
	.st3{fill:url(#SVGID_4_);}
	.st4{fill:url(#SVGID_5_);}
</style>
<g>
	<g>
		
			<linearGradient id="SVGID_1_" gradientUnits="userSpaceOnUse" x1="118.7032" y1="982.0168" x2="500.3968" y2="671.6832" gradientTransform="matrix(1 0 0 1 0 -565.7)">
			<stop  offset="0" style="stop-color:#4B4B50"/>
			<stop  offset="0.4468" style="stop-color:#D7D7D8"/>
			<stop  offset="0.7807" style="stop-color:#A8A9AD"/>
			<stop  offset="1" style="stop-color:#4B4B50"/>
		</linearGradient>
		<rect x="3.4" y="247.8" class="st0" width="612.3" height="26.7"/>
	</g>
	<g>
		
			<linearGradient id="SVGID_2_" gradientUnits="userSpaceOnUse" x1="204.6235" y1="891.294" x2="859.0279" y2="643.5463" gradientTransform="matrix(1 0 0 1 0 -565.7)">
			<stop  offset="0" style="stop-color:#4B4B50"/>
			<stop  offset="0.4468" style="stop-color:#D7D7D8"/>
			<stop  offset="0.7807" style="stop-color:#A8A9AD"/>
			<stop  offset="1" style="stop-color:#4B4B50"/>
		</linearGradient>
		<rect x="375.1" y="8.9" class="st1" width="26.7" height="494.2"/>
	</g>
	<g>
		
			<linearGradient id="SVGID_3_" gradientUnits="userSpaceOnUse" x1="24.3092" y1="1055.845" x2="600.277" y2="587.5582" gradientTransform="matrix(1 0 0 1 0 -565.7)">
			<stop  offset="0" style="stop-color:#4B4B50"/>
			<stop  offset="0.4468" style="stop-color:#D7D7D8"/>
			<stop  offset="0.7807" style="stop-color:#A8A9AD"/>
			<stop  offset="1" style="stop-color:#4B4B50"/>
		</linearGradient>
		<path class="st2" d="M544.5,512H80.1C36,512,0,476,0,431.9V80.1C0,36,36,0,80.1,0h464.2c44.3,0,80.3,36,80.3,80.1v351.7
			C624.6,476,588.6,512,544.5,512z M80.1,17.8c-34.4,0-62.3,27.9-62.3,62.3v351.7c0,34.4,27.9,62.3,62.3,62.3h464.2
			c34.4,0,62.3-27.9,62.3-62.3V80.1c0-34.4-27.9-62.3-62.3-62.3H80.1z"/>
	</g>
	<g>
		
			<linearGradient id="SVGID_4_" gradientUnits="userSpaceOnUse" x1="339.8397" y1="897.3474" x2="882.8828" y2="568.2683" gradientTransform="matrix(1 0 0 1 0 -565.7)">
			<stop  offset="0" style="stop-color:#4B4B50"/>
			<stop  offset="0.4468" style="stop-color:#D7D7D8"/>
			<stop  offset="0.7807" style="stop-color:#A8A9AD"/>
			<stop  offset="1" style="stop-color:#4B4B50"/>
		</linearGradient>
		<path class="st3" d="M481.1,371.8c-4.5,0-9-1.7-12.4-5.1l-92.6-90.5c-2.8-2.7-4.8-6.5-5.2-10.6l0,0l0,0c0-0.4-0.1-0.7-0.1-1.1
			c-0.1-1.3,0-2.6,0.1-3.9c1.3-9.8,12-79.1,48.3-105.6c12.6-9.1,27.1-12.6,42.2-9.8c23.8,4.3,42.9,23.3,47.7,47.2
			c3.2,15.5-0.2,30.4-9.5,42.9c-16.2,21.7-48.3,33.5-73.7,39.6l67.8,66.2c7.1,6.8,7.2,18.2,0.2,25.3
			C490.4,370,485.8,371.8,481.1,371.8z M451.2,179.9c-3.9,0-7.4,1.2-11,3.9c-14.3,10.4-23.9,37-29.3,57.9c23.5-5,50.1-14.4,60-27.7
			c3.4-4.5,4.4-9,3.2-14.6c-2-9.8-9.6-17.4-19.2-19.2C453.7,180.1,452.5,179.9,451.2,179.9z"/>
	</g>
	<g>
		
			<linearGradient id="SVGID_5_" gradientUnits="userSpaceOnUse" x1="-99.7643" y1="586.3996" x2="395.7311" y2="832.8961" gradientTransform="matrix(-1 0 0 1 679.5582 -565.7)">
			<stop  offset="0" style="stop-color:#4B4B50"/>
			<stop  offset="0.4468" style="stop-color:#D7D7D8"/>
			<stop  offset="0.7807" style="stop-color:#A8A9AD"/>
			<stop  offset="1" style="stop-color:#4B4B50"/>
		</linearGradient>
		<path class="st4" d="M291.7,371.8c-4.8,0-9.5-2-13.1-5.6c-6.7-7.2-6.3-18.4,0.9-25.1l70.5-66c-26.6-6.2-60.1-18.1-76.7-40.3
			c-9.3-12.4-12.6-27.1-9.5-42.3c4.8-23.9,24-42.8,47.7-47.2c14.9-2.7,29.5,0.6,42.2,9.5c38.1,26.7,51,97.7,52.3,105.6
			c1,5.9-1,11.8-5.4,16L303.9,367C300.5,370.2,296.1,371.8,291.7,371.8z M321.7,179.9c-1.2,0-2.4,0.1-3.8,0.4
			c-9.5,1.7-17.2,9.4-19.2,19.2c-1.1,5.2-0.1,9.6,3.2,13.9c10.2,13.8,38.4,23.3,63.2,28.4c-6.7-22.7-17.8-48.1-31.8-57.9
			C329.4,181.2,325.7,179.9,321.7,179.9z"/>
	</g>
</g>
</svg>
