<?xml version="1.0" encoding="utf-8"?>
<!-- Generator: Adobe Illustrator 22.0.1, SVG Export Plug-In . SVG Version: 6.00 Build 0)  -->
<svg version="1.1" id="Capa_1" xmlns="http://www.w3.org/2000/svg" xmlns:xlink="http://www.w3.org/1999/xlink" x="0px" y="0px"
	 viewBox="0 0 467.9 512" style="enable-background:new 0 0 467.9 512;" xml:space="preserve">
<style type="text/css">
	.st0{fill:url(#SVGID_1_);}
</style>
<linearGradient id="SVGID_1_" gradientUnits="userSpaceOnUse" x1="27.9165" y1="446.0571" x2="406.0131" y2="138.6482">
	<stop  offset="0" style="stop-color:#7E5936"/>
	<stop  offset="1" style="stop-color:#F5CB86"/>
</linearGradient>
<path class="st0" d="M466.3,404.9l-5.8-7c-48.3-57.6-124.7-148.7-144.6-198.3c0,0,0-0.1,0-0.1c0-1.7-0.7-3.3-1.7-4.5
	c-2-5.9-3.2-11.2-3.2-15.5c0-42.4,20.9-100.7,21.1-101.2c0.2-0.5,0.3-1,0.4-1.6c0.1-0.6,1.4-13.6-7.8-23.8c-2.7-3-6.1-5.5-9.9-7.3
	C314.6,15,291.7,1.5,290.7,0.9c-1.9-1.1-4.1-1.2-6.1-0.3c-2,0.8-3.4,2.6-3.9,4.6c-0.1,0.3-6.2,24.6-15.6,40.4
	c-14.5,4.1-25.5,10.3-31.1,13.9c-5.6-3.6-16.6-9.8-31.1-13.9c-9.4-15.8-15.5-40.2-15.6-40.4c-0.5-2.1-2-3.8-3.9-4.6
	c-2-0.8-4.2-0.7-6.1,0.3c-1,0.6-23.9,14.1-24.2,44.8c-3.9,1.8-7.2,4.2-9.9,7.3c-9.1,10.2-7.8,23.3-7.8,23.8c0.1,0.5,0.2,1.1,0.4,1.6
	c0.2,0.6,21.1,58.9,21.1,101.2c0,4.4-1.2,9.6-3.2,15.5c-1,1.2-1.7,2.8-1.7,4.5c0,0,0,0.1,0,0.1C132.1,249.3,55.7,340.4,7.4,398
	l-5.8,6.9c-1.2,1.4-1.8,3.3-1.5,5.2c0.2,1.9,1.2,3.6,2.7,4.7c17.3,12.8,40.5,27.6,51.7,34.6c-2,2.3-2.3,5.7-0.6,8.3
	c1.1,1.6,3.1,4.6,45.7,25.9c1,0.5,2,0.7,3,0.7c2.5,0,4.9-1.4,6.1-3.8c1.7-3.4,0.3-7.5-3.1-9.2c-13.4-6.7-28.1-14.4-35.9-18.8
	c22.7-27.7,56.8-75.9,78.9-119.3c1.7-3.4,0.4-7.5-3-9.2c-3.4-1.7-7.5-0.4-9.2,3c-22.4,43.9-51.5,83.3-73.3,111.8
	c-9.3-5.8-29.6-18.7-46.6-30.8l1.1-1.3c50.9-60.7,123.5-147.2,145.8-200.3h140.5c22.3,53.1,94.9,139.7,145.8,200.3l1.1,1.3
	c-16.6,11.9-36.6,24.5-46,30.4c-26-37.8-85.8-131.3-102.3-167.7c-1.6-3.4-4.6-5.9-8.2-5.1c-3.7,0.9-6.5,4.7-5.1,8.2
	C305.6,314,372.8,416.7,397,450.6c0.1,0.2,0.2,0.5,0.3,0.7c0.1,0.2,0.3,0.4,0.4,0.5c-39.3,30.5-108.9,46.5-159.7,46.5
	c-58.7,0-90-12.8-90.5-13c-3.4-1.6-7.5-0.1-9.1,3.3c-1.6,3.4-0.1,7.5,3.3,9.1c1.9,0.9,37.5,14.3,96.2,14.3
	c65.8,0,137.2-22.2,173.7-54c1.4-1.2,2.2-2.9,2.3-4.7c0.1-1.3-0.2-2.6-0.9-3.8c11.2-7,34.5-21.9,51.9-34.8c1.5-1.1,2.5-2.8,2.7-4.7
	C468.1,408.2,467.5,406.4,466.3,404.9z M291,18.8c4.3,4.7,9,12.3,10,23.1c-2.2-0.2-4.6-0.4-7-0.4c-4.1,0-8,0.3-11.8,0.7
	C285.9,33.9,288.9,25.3,291,18.8z M177,18.8c2,6.5,5,15.1,8.8,23.4c-3.8-0.4-7.7-0.7-11.8-0.7c-2.5,0-4.8,0.2-7,0.4
	C168,31.1,172.7,23.5,177,18.8z M153.3,62.1c4.1-4.6,11-6.9,20.6-6.9c32,0,55.6,17.9,55.8,18c2.5,1.9,5.9,1.9,8.4,0
	c0.2-0.2,23.7-18,55.8-18c9.5,0,16.5,2.3,20.6,6.8c4.2,4.7,4.5,10.8,4.5,12.7c-2.4,6.7-15.6,45.2-20.1,82.2H169
	c-4.5-37-17.7-75.5-20.1-82.2C148.9,72.7,149.1,66.7,153.3,62.1z"/>
</svg>
